<?xml version="1.0" encoding="UTF-8"?>
<svg width="1440px" height="784px" viewBox="0 0 1440 784" version="1.1" xmlns="http://www.w3.org/2000/svg" xmlns:xlink="http://www.w3.org/1999/xlink">
    <title>back-chisono</title>
    <defs>
        <path d="M902.4,578.906191 L1177.4,578.906191 C1177.4,578.906191 1140.3,563.306191 1119.5,567.006191 C1107.2,558.006191 1084.4,549.106191 1070.2,553.606191 C1061,542.406191 1035.4,508.506191 989.5,543.706191 C981,540.506191 939.5,543.806191 932,561.406191 C919.5,558.006191 877,558.006191 865.4,578.906191 C880.4,578.906191 902.4,578.906191 902.4,578.906191 Z" id="path-1"></path>
        <filter x="-1.3%" y="-7.9%" width="103.2%" height="119.7%" filterUnits="objectBoundingBox" id="filter-2">
            <feOffset dx="1" dy="1" in="SourceAlpha" result="shadowOffsetOuter1"></feOffset>
            <feGaussianBlur stdDeviation="1.5" in="shadowOffsetOuter1" result="shadowBlurOuter1"></feGaussianBlur>
            <feColorMatrix values="0 0 0 0 1   0 0 0 0 1   0 0 0 0 1  0 0 0 0.120227307 0" type="matrix" in="shadowBlurOuter1"></feColorMatrix>
        </filter>
        <filter x="-2.4%" y="-14.8%" width="105.4%" height="133.5%" filterUnits="objectBoundingBox" id="filter-3">
            <feGaussianBlur stdDeviation="5" in="SourceAlpha" result="shadowBlurInner1"></feGaussianBlur>
            <feOffset dx="1" dy="1" in="shadowBlurInner1" result="shadowOffsetInner1"></feOffset>
            <feComposite in="shadowOffsetInner1" in2="SourceAlpha" operator="arithmetic" k2="-1" k3="1" result="shadowInnerInner1"></feComposite>
            <feColorMatrix values="0 0 0 0 0   0 0 0 0 0   0 0 0 0 0  0 0 0 0.15 0" type="matrix" in="shadowInnerInner1"></feColorMatrix>
        </filter>
        <path d="M346.4,613.906191 L621.4,613.906191 C621.4,613.906191 584.3,598.306191 563.5,602.006191 C551.2,593.006191 528.4,584.106191 514.2,588.606191 C505,577.406191 479.4,543.506191 433.5,578.706191 C425,575.506191 383.5,578.806191 376,596.406191 C363.5,593.006191 321,593.006191 309.4,613.906191 C324.4,613.906191 346.4,613.906191 346.4,613.906191 Z" id="path-4"></path>
        <filter x="-1.3%" y="-7.9%" width="103.2%" height="119.7%" filterUnits="objectBoundingBox" id="filter-5">
            <feOffset dx="1" dy="1" in="SourceAlpha" result="shadowOffsetOuter1"></feOffset>
            <feGaussianBlur stdDeviation="1.5" in="shadowOffsetOuter1" result="shadowBlurOuter1"></feGaussianBlur>
            <feColorMatrix values="0 0 0 0 1   0 0 0 0 1   0 0 0 0 1  0 0 0 0.120227307 0" type="matrix" in="shadowBlurOuter1"></feColorMatrix>
        </filter>
        <filter x="-2.4%" y="-14.8%" width="105.4%" height="133.5%" filterUnits="objectBoundingBox" id="filter-6">
            <feGaussianBlur stdDeviation="5" in="SourceAlpha" result="shadowBlurInner1"></feGaussianBlur>
            <feOffset dx="1" dy="1" in="shadowBlurInner1" result="shadowOffsetInner1"></feOffset>
            <feComposite in="shadowOffsetInner1" in2="SourceAlpha" operator="arithmetic" k2="-1" k3="1" result="shadowInnerInner1"></feComposite>
            <feColorMatrix values="0 0 0 0 0   0 0 0 0 0   0 0 0 0 0  0 0 0 0.15 0" type="matrix" in="shadowInnerInner1"></feColorMatrix>
        </filter>
        <path d="M146.4,466.906191 L421.4,466.906191 C421.4,466.906191 384.3,451.306191 363.5,455.006191 C351.2,446.006191 328.4,437.106191 314.2,441.606191 C305,430.406191 279.4,396.506191 233.5,431.706191 C225,428.506191 183.5,431.806191 176,449.406191 C163.5,446.006191 121,446.006191 109.4,466.906191 C124.4,466.906191 146.4,466.906191 146.4,466.906191 Z" id="path-7"></path>
        <filter x="-1.3%" y="-7.9%" width="103.2%" height="119.7%" filterUnits="objectBoundingBox" id="filter-8">
            <feOffset dx="1" dy="1" in="SourceAlpha" result="shadowOffsetOuter1"></feOffset>
            <feGaussianBlur stdDeviation="1.5" in="shadowOffsetOuter1" result="shadowBlurOuter1"></feGaussianBlur>
            <feColorMatrix values="0 0 0 0 1   0 0 0 0 1   0 0 0 0 1  0 0 0 0.120227307 0" type="matrix" in="shadowBlurOuter1"></feColorMatrix>
        </filter>
        <filter x="-2.4%" y="-14.8%" width="105.4%" height="133.5%" filterUnits="objectBoundingBox" id="filter-9">
            <feGaussianBlur stdDeviation="5" in="SourceAlpha" result="shadowBlurInner1"></feGaussianBlur>
            <feOffset dx="1" dy="1" in="shadowBlurInner1" result="shadowOffsetInner1"></feOffset>
            <feComposite in="shadowOffsetInner1" in2="SourceAlpha" operator="arithmetic" k2="-1" k3="1" result="shadowInnerInner1"></feComposite>
            <feColorMatrix values="0 0 0 0 0   0 0 0 0 0   0 0 0 0 0  0 0 0 0.15 0" type="matrix" in="shadowInnerInner1"></feColorMatrix>
        </filter>
        <path d="M220.4,527.706191 L684.9,527.706191 C684.9,527.706191 622.2,501.306191 587,507.606191 C566.2,492.506191 527.7,477.306191 503.8,485.006191 C488.3,466.006191 444.9,408.906191 367.6,468.306191 C353.3,462.906191 283.2,468.506191 270.5,498.106191 C249.4,492.306191 177.6,492.306191 158,527.706191 C183.3,527.706191 220.4,527.706191 220.4,527.706191 Z" id="path-10"></path>
        <filter x="-0.8%" y="-4.7%" width="101.9%" height="111.7%" filterUnits="objectBoundingBox" id="filter-11">
            <feOffset dx="1" dy="1" in="SourceAlpha" result="shadowOffsetOuter1"></feOffset>
            <feGaussianBlur stdDeviation="1.5" in="shadowOffsetOuter1" result="shadowBlurOuter1"></feGaussianBlur>
            <feColorMatrix values="0 0 0 0 1   0 0 0 0 1   0 0 0 0 1  0 0 0 0.120227307 0" type="matrix" in="shadowBlurOuter1"></feColorMatrix>
        </filter>
        <filter x="-1.4%" y="-8.8%" width="103.2%" height="119.8%" filterUnits="objectBoundingBox" id="filter-12">
            <feGaussianBlur stdDeviation="5" in="SourceAlpha" result="shadowBlurInner1"></feGaussianBlur>
            <feOffset dx="1" dy="1" in="shadowBlurInner1" result="shadowOffsetInner1"></feOffset>
            <feComposite in="shadowOffsetInner1" in2="SourceAlpha" operator="arithmetic" k2="-1" k3="1" result="shadowInnerInner1"></feComposite>
            <feColorMatrix values="0 0 0 0 0   0 0 0 0 0   0 0 0 0 0  0 0 0 0.15 0" type="matrix" in="shadowInnerInner1"></feColorMatrix>
        </filter>
        <path d="M1111.4,653.706191 L1575.9,653.706191 C1575.9,653.706191 1513.2,627.306191 1478,633.606191 C1457.2,618.506191 1418.7,603.306191 1394.8,611.006191 C1379.3,592.006191 1335.9,534.906191 1258.6,594.306191 C1244.3,588.906191 1174.2,594.506191 1161.5,624.106191 C1140.4,618.306191 1068.6,618.306191 1049,653.706191 C1074.3,653.706191 1111.4,653.706191 1111.4,653.706191 Z" id="path-13"></path>
        <filter x="-0.8%" y="-4.7%" width="101.9%" height="111.7%" filterUnits="objectBoundingBox" id="filter-14">
            <feOffset dx="1" dy="1" in="SourceAlpha" result="shadowOffsetOuter1"></feOffset>
            <feGaussianBlur stdDeviation="1.5" in="shadowOffsetOuter1" result="shadowBlurOuter1"></feGaussianBlur>
            <feColorMatrix values="0 0 0 0 1   0 0 0 0 1   0 0 0 0 1  0 0 0 0.120227307 0" type="matrix" in="shadowBlurOuter1"></feColorMatrix>
        </filter>
        <filter x="-1.4%" y="-8.8%" width="103.2%" height="119.8%" filterUnits="objectBoundingBox" id="filter-15">
            <feGaussianBlur stdDeviation="5" in="SourceAlpha" result="shadowBlurInner1"></feGaussianBlur>
            <feOffset dx="1" dy="1" in="shadowBlurInner1" result="shadowOffsetInner1"></feOffset>
            <feComposite in="shadowOffsetInner1" in2="SourceAlpha" operator="arithmetic" k2="-1" k3="1" result="shadowInnerInner1"></feComposite>
            <feColorMatrix values="0 0 0 0 0   0 0 0 0 0   0 0 0 0 0  0 0 0 0.15 0" type="matrix" in="shadowInnerInner1"></feColorMatrix>
        </filter>
        <path d="M820.4,329.706191 L1284.9,329.706191 C1284.9,329.706191 1222.2,303.306191 1187,309.606191 C1166.2,294.506191 1127.7,279.306191 1103.8,287.006191 C1088.3,268.006191 1044.9,210.906191 967.6,270.306191 C953.3,264.906191 883.2,270.506191 870.5,300.106191 C849.4,294.306191 777.6,294.306191 758,329.706191 C783.3,329.706191 820.4,329.706191 820.4,329.706191 Z" id="path-16"></path>
        <filter x="-0.8%" y="-4.7%" width="101.9%" height="111.7%" filterUnits="objectBoundingBox" id="filter-17">
            <feOffset dx="1" dy="1" in="SourceAlpha" result="shadowOffsetOuter1"></feOffset>
            <feGaussianBlur stdDeviation="1.5" in="shadowOffsetOuter1" result="shadowBlurOuter1"></feGaussianBlur>
            <feColorMatrix values="0 0 0 0 1   0 0 0 0 1   0 0 0 0 1  0 0 0 0.120227307 0" type="matrix" in="shadowBlurOuter1"></feColorMatrix>
        </filter>
        <filter x="-1.4%" y="-8.8%" width="103.2%" height="119.8%" filterUnits="objectBoundingBox" id="filter-18">
            <feGaussianBlur stdDeviation="5" in="SourceAlpha" result="shadowBlurInner1"></feGaussianBlur>
            <feOffset dx="1" dy="1" in="shadowBlurInner1" result="shadowOffsetInner1"></feOffset>
            <feComposite in="shadowOffsetInner1" in2="SourceAlpha" operator="arithmetic" k2="-1" k3="1" result="shadowInnerInner1"></feComposite>
            <feColorMatrix values="0 0 0 0 0   0 0 0 0 0   0 0 0 0 0  0 0 0 0.15 0" type="matrix" in="shadowInnerInner1"></feColorMatrix>
        </filter>
        <path d="M171.4,207.706191 L635.9,207.706191 C635.9,207.706191 573.2,181.306191 538,187.606191 C517.2,172.506191 478.7,157.306191 454.8,165.006191 C439.3,146.006191 395.9,88.9061909 318.6,148.306191 C304.3,142.906191 234.2,148.506191 221.5,178.106191 C200.4,172.306191 128.6,172.306191 109,207.706191 C134.3,207.706191 171.4,207.706191 171.4,207.706191 Z" id="path-19"></path>
        <filter x="-0.8%" y="-4.7%" width="101.9%" height="111.7%" filterUnits="objectBoundingBox" id="filter-20">
            <feOffset dx="1" dy="1" in="SourceAlpha" result="shadowOffsetOuter1"></feOffset>
            <feGaussianBlur stdDeviation="1.5" in="shadowOffsetOuter1" result="shadowBlurOuter1"></feGaussianBlur>
            <feColorMatrix values="0 0 0 0 1   0 0 0 0 1   0 0 0 0 1  0 0 0 0.120227307 0" type="matrix" in="shadowBlurOuter1"></feColorMatrix>
        </filter>
        <filter x="-1.4%" y="-8.8%" width="103.2%" height="119.8%" filterUnits="objectBoundingBox" id="filter-21">
            <feGaussianBlur stdDeviation="5" in="SourceAlpha" result="shadowBlurInner1"></feGaussianBlur>
            <feOffset dx="1" dy="1" in="shadowBlurInner1" result="shadowOffsetInner1"></feOffset>
            <feComposite in="shadowOffsetInner1" in2="SourceAlpha" operator="arithmetic" k2="-1" k3="1" result="shadowInnerInner1"></feComposite>
            <feColorMatrix values="0 0 0 0 0   0 0 0 0 0   0 0 0 0 0  0 0 0 0.15 0" type="matrix" in="shadowInnerInner1"></feColorMatrix>
        </filter>
        <path d="M665.1,217.782374 C680.3,210.682374 692.4,218.682374 702.3,228.882374 C613.9,230.482374 525.4,231.982374 437,233.582374 C448.3,218.282374 466.6,209.582374 482.1,218.482374 C485.1,200.382374 495.3,194.082374 513,200.282374 C506.2,147.982374 585.6,137.182374 597.8,189.982374 C605.4,172.582374 643.8,173.082374 640.5,206.582374 C646,189.582374 675.7,196.282374 665.1,217.782374 L665.1,217.782374 Z" id="path-22"></path>
        <filter x="-1.5%" y="-5.1%" width="103.8%" height="112.8%" filterUnits="objectBoundingBox" id="filter-23">
            <feOffset dx="1" dy="1" in="SourceAlpha" result="shadowOffsetOuter1"></feOffset>
            <feGaussianBlur stdDeviation="1.5" in="shadowOffsetOuter1" result="shadowBlurOuter1"></feGaussianBlur>
            <feColorMatrix values="0 0 0 0 1   0 0 0 0 1   0 0 0 0 1  0 0 0 0.120227307 0" type="matrix" in="shadowBlurOuter1"></feColorMatrix>
        </filter>
        <filter x="-2.8%" y="-9.6%" width="106.4%" height="121.7%" filterUnits="objectBoundingBox" id="filter-24">
            <feGaussianBlur stdDeviation="5" in="SourceAlpha" result="shadowBlurInner1"></feGaussianBlur>
            <feOffset dx="1" dy="1" in="shadowBlurInner1" result="shadowOffsetInner1"></feOffset>
            <feComposite in="shadowOffsetInner1" in2="SourceAlpha" operator="arithmetic" k2="-1" k3="1" result="shadowInnerInner1"></feComposite>
            <feColorMatrix values="0 0 0 0 0   0 0 0 0 0   0 0 0 0 0  0 0 0 0.15 0" type="matrix" in="shadowInnerInner1"></feColorMatrix>
        </filter>
        <path d="M275.130041,681.60385 C293.464003,673.075527 308.058801,682.684906 320,694.936863 C213.373539,696.858739 106.626461,698.660498 0,700.582374 C13.629853,682.204437 35.7029778,671.754237 54.3987938,682.444671 C58.0173389,660.703452 70.320392,653.136066 91.6698078,660.583334 C83.4677723,597.762021 179.238598,584.789359 193.954014,648.211259 C203.120995,627.31086 249.438372,627.911447 245.457972,668.15072 C252.091971,647.73079 287.915567,655.778645 275.130041,681.60385 L275.130041,681.60385 Z" id="path-25"></path>
        <filter x="-1.2%" y="-4.3%" width="103.1%" height="110.6%" filterUnits="objectBoundingBox" id="filter-26">
            <feOffset dx="1" dy="1" in="SourceAlpha" result="shadowOffsetOuter1"></feOffset>
            <feGaussianBlur stdDeviation="1.5" in="shadowOffsetOuter1" result="shadowBlurOuter1"></feGaussianBlur>
            <feColorMatrix values="0 0 0 0 1   0 0 0 0 1   0 0 0 0 1  0 0 0 0.120227307 0" type="matrix" in="shadowBlurOuter1"></feColorMatrix>
        </filter>
        <filter x="-2.3%" y="-8.0%" width="105.3%" height="118.1%" filterUnits="objectBoundingBox" id="filter-27">
            <feGaussianBlur stdDeviation="5" in="SourceAlpha" result="shadowBlurInner1"></feGaussianBlur>
            <feOffset dx="1" dy="1" in="shadowBlurInner1" result="shadowOffsetInner1"></feOffset>
            <feComposite in="shadowOffsetInner1" in2="SourceAlpha" operator="arithmetic" k2="-1" k3="1" result="shadowInnerInner1"></feComposite>
            <feColorMatrix values="0 0 0 0 0   0 0 0 0 0   0 0 0 0 0  0 0 0 0.15 0" type="matrix" in="shadowInnerInner1"></feColorMatrix>
        </filter>
        <path d="M1447.48096,124.729782 C1473.43498,112.663112 1494.09574,126.25936 1511,143.594577 C1360.05692,146.313827 1208.94308,148.863124 1058,151.582374 C1077.29476,125.579548 1108.54203,110.793627 1135.00829,125.919454 C1140.1308,95.1579415 1157.5473,84.4508956 1187.77007,94.9879884 C1176.15907,6.10251258 1311.73464,-12.2524231 1332.56615,77.4828182 C1345.54316,47.9109773 1411.11119,48.7607428 1405.47644,105.695034 C1414.8677,76.8030057 1465.58047,88.189864 1447.48096,124.729782 L1447.48096,124.729782 Z" id="path-28"></path>
        <filter x="-0.9%" y="-3.0%" width="102.2%" height="107.5%" filterUnits="objectBoundingBox" id="filter-29">
            <feOffset dx="1" dy="1" in="SourceAlpha" result="shadowOffsetOuter1"></feOffset>
            <feGaussianBlur stdDeviation="1.5" in="shadowOffsetOuter1" result="shadowBlurOuter1"></feGaussianBlur>
            <feColorMatrix values="0 0 0 0 1   0 0 0 0 1   0 0 0 0 1  0 0 0 0.120227307 0" type="matrix" in="shadowBlurOuter1"></feColorMatrix>
        </filter>
        <filter x="-1.7%" y="-5.6%" width="103.8%" height="112.8%" filterUnits="objectBoundingBox" id="filter-30">
            <feGaussianBlur stdDeviation="5" in="SourceAlpha" result="shadowBlurInner1"></feGaussianBlur>
            <feOffset dx="1" dy="1" in="shadowBlurInner1" result="shadowOffsetInner1"></feOffset>
            <feComposite in="shadowOffsetInner1" in2="SourceAlpha" operator="arithmetic" k2="-1" k3="1" result="shadowInnerInner1"></feComposite>
            <feColorMatrix values="0 0 0 0 0   0 0 0 0 0   0 0 0 0 0  0 0 0 0.15 0" type="matrix" in="shadowInnerInner1"></feColorMatrix>
        </filter>
        <path d="M234.9,133.482374 C247.2,127.782374 257,134.282374 265,142.482374 C193.4,143.782374 121.9,145.082374 50.3,146.282374 C59.5,133.882374 74.3,126.882374 86.8,134.082374 C89.2,119.382374 97.4,114.382374 111.8,119.382374 C106.3,77.0823735 170.6,68.2823735 180.4,111.082374 C186.6,96.9823735 217.6,97.3823735 215,124.582374 C219.4,110.582374 243.5,116.082374 234.9,133.482374 L234.9,133.482374 Z" id="path-31"></path>
        <filter x="-1.9%" y="-6.3%" width="104.7%" height="115.8%" filterUnits="objectBoundingBox" id="filter-32">
            <feOffset dx="1" dy="1" in="SourceAlpha" result="shadowOffsetOuter1"></feOffset>
            <feGaussianBlur stdDeviation="1.5" in="shadowOffsetOuter1" result="shadowBlurOuter1"></feGaussianBlur>
            <feColorMatrix values="0 0 0 0 1   0 0 0 0 1   0 0 0 0 1  0 0 0 0.120227307 0" type="matrix" in="shadowBlurOuter1"></feColorMatrix>
        </filter>
        <filter x="-3.5%" y="-11.9%" width="107.9%" height="126.9%" filterUnits="objectBoundingBox" id="filter-33">
            <feGaussianBlur stdDeviation="5" in="SourceAlpha" result="shadowBlurInner1"></feGaussianBlur>
            <feOffset dx="1" dy="1" in="shadowBlurInner1" result="shadowOffsetInner1"></feOffset>
            <feComposite in="shadowOffsetInner1" in2="SourceAlpha" operator="arithmetic" k2="-1" k3="1" result="shadowInnerInner1"></feComposite>
            <feColorMatrix values="0 0 0 0 0   0 0 0 0 0   0 0 0 0 0  0 0 0 0.15 0" type="matrix" in="shadowInnerInner1"></feColorMatrix>
        </filter>
        <path d="M1254.9,274.482374 C1267.2,268.782374 1277,275.282374 1285,283.482374 C1213.4,284.782374 1141.9,286.082374 1070.3,287.282374 C1079.5,274.882374 1094.3,267.882374 1106.8,275.082374 C1109.2,260.382374 1117.4,255.382374 1131.8,260.382374 C1126.3,218.082374 1190.6,209.282374 1200.4,252.082374 C1206.6,237.982374 1237.6,238.382374 1235,265.582374 C1239.4,251.582374 1263.5,257.082374 1254.9,274.482374 L1254.9,274.482374 Z" id="path-34"></path>
        <filter x="-1.9%" y="-6.3%" width="104.7%" height="115.8%" filterUnits="objectBoundingBox" id="filter-35">
            <feOffset dx="1" dy="1" in="SourceAlpha" result="shadowOffsetOuter1"></feOffset>
            <feGaussianBlur stdDeviation="1.5" in="shadowOffsetOuter1" result="shadowBlurOuter1"></feGaussianBlur>
            <feColorMatrix values="0 0 0 0 1   0 0 0 0 1   0 0 0 0 1  0 0 0 0.120227307 0" type="matrix" in="shadowBlurOuter1"></feColorMatrix>
        </filter>
        <filter x="-3.5%" y="-11.9%" width="107.9%" height="126.9%" filterUnits="objectBoundingBox" id="filter-36">
            <feGaussianBlur stdDeviation="5" in="SourceAlpha" result="shadowBlurInner1"></feGaussianBlur>
            <feOffset dx="1" dy="1" in="shadowBlurInner1" result="shadowOffsetInner1"></feOffset>
            <feComposite in="shadowOffsetInner1" in2="SourceAlpha" operator="arithmetic" k2="-1" k3="1" result="shadowInnerInner1"></feComposite>
            <feColorMatrix values="0 0 0 0 0   0 0 0 0 0   0 0 0 0 0  0 0 0 0.15 0" type="matrix" in="shadowInnerInner1"></feColorMatrix>
        </filter>
        <path d="M1405.68933,674.210004 C1420.52725,667.364496 1432.34932,675.170778 1442,685.018701 C1355.62646,686.579958 1269.37354,688.141214 1183,689.582374 C1194.09828,674.690391 1211.95203,666.283627 1227.03121,674.930584 C1229.92641,657.276379 1239.81835,651.271548 1257.18957,657.276379 C1250.55473,606.475503 1328.12203,595.907 1339.94411,647.308359 C1347.42338,630.374733 1384.81975,630.85512 1381.68328,663.521404 C1386.99115,646.707875 1416.06381,653.31319 1405.68933,674.210004 L1405.68933,674.210004 Z" id="path-37"></path>
        <filter x="-1.5%" y="-5.3%" width="103.9%" height="113.2%" filterUnits="objectBoundingBox" id="filter-38">
            <feOffset dx="1" dy="1" in="SourceAlpha" result="shadowOffsetOuter1"></feOffset>
            <feGaussianBlur stdDeviation="1.5" in="shadowOffsetOuter1" result="shadowBlurOuter1"></feGaussianBlur>
            <feColorMatrix values="0 0 0 0 1   0 0 0 0 1   0 0 0 0 1  0 0 0 0.120227307 0" type="matrix" in="shadowBlurOuter1"></feColorMatrix>
        </filter>
        <filter x="-2.9%" y="-9.9%" width="106.6%" height="122.4%" filterUnits="objectBoundingBox" id="filter-39">
            <feGaussianBlur stdDeviation="5" in="SourceAlpha" result="shadowBlurInner1"></feGaussianBlur>
            <feOffset dx="1" dy="1" in="shadowBlurInner1" result="shadowOffsetInner1"></feOffset>
            <feComposite in="shadowOffsetInner1" in2="SourceAlpha" operator="arithmetic" k2="-1" k3="1" result="shadowInnerInner1"></feComposite>
            <feColorMatrix values="0 0 0 0 0   0 0 0 0 0   0 0 0 0 0  0 0 0 0.15 0" type="matrix" in="shadowInnerInner1"></feColorMatrix>
        </filter>
    </defs>
    <g id="back-chisono" stroke="none" stroke-width="1" fill="none" fill-rule="evenodd">
        <g id="Group-7" transform="translate(-25.000000, 0.000000)">
            <rect id="Rectangle-Copy-10" fill="#6D7AFD" x="25" y="0" width="1440" height="784"></rect>
            <g id="Path">
                <use fill="black" fill-opacity="1" filter="url(#filter-2)" xlink:href="#path-1"></use>
                <use fill="#E5F4FF" fill-rule="evenodd" xlink:href="#path-1"></use>
                <use fill="black" fill-opacity="1" filter="url(#filter-3)" xlink:href="#path-1"></use>
            </g>
            <g id="Path-Copy-12">
                <use fill="black" fill-opacity="1" filter="url(#filter-5)" xlink:href="#path-4"></use>
                <use fill="#F2F3FE" fill-rule="evenodd" xlink:href="#path-4"></use>
                <use fill="black" fill-opacity="1" filter="url(#filter-6)" xlink:href="#path-4"></use>
            </g>
            <g id="Path-Copy-10" transform="translate(265.400000, 441.518558) scale(-1, 1) translate(-265.400000, -441.518558) ">
                <use fill="black" fill-opacity="1" filter="url(#filter-8)" xlink:href="#path-7"></use>
                <use fill="#F2F3FE" fill-rule="evenodd" xlink:href="#path-7"></use>
                <use fill="black" fill-opacity="1" filter="url(#filter-9)" xlink:href="#path-7"></use>
            </g>
            <g id="Path">
                <use fill="black" fill-opacity="1" filter="url(#filter-11)" xlink:href="#path-10"></use>
                <use fill="#A7AFFF" fill-rule="evenodd" xlink:href="#path-10"></use>
                <use fill="black" fill-opacity="1" filter="url(#filter-12)" xlink:href="#path-10"></use>
            </g>
            <g id="Path-Copy-15">
                <use fill="black" fill-opacity="1" filter="url(#filter-14)" xlink:href="#path-13"></use>
                <use fill="#A7AFFF" fill-rule="evenodd" xlink:href="#path-13"></use>
                <use fill="black" fill-opacity="1" filter="url(#filter-15)" xlink:href="#path-13"></use>
            </g>
            <g id="Path-Copy-11" transform="translate(1021.450000, 286.853095) scale(-1, 1) translate(-1021.450000, -286.853095) ">
                <use fill="black" fill-opacity="1" filter="url(#filter-17)" xlink:href="#path-16"></use>
                <use fill="#A7AFFF" fill-rule="evenodd" xlink:href="#path-16"></use>
                <use fill="black" fill-opacity="1" filter="url(#filter-18)" xlink:href="#path-16"></use>
            </g>
            <g id="Path-Copy-13" transform="translate(372.450000, 164.853095) scale(-1, 1) translate(-372.450000, -164.853095) ">
                <use fill="black" fill-opacity="1" filter="url(#filter-20)" xlink:href="#path-19"></use>
                <use fill="#A7AFFF" fill-rule="evenodd" xlink:href="#path-19"></use>
                <use fill="black" fill-opacity="1" filter="url(#filter-21)" xlink:href="#path-19"></use>
            </g>
            <g id="Path">
                <use fill="black" fill-opacity="1" filter="url(#filter-23)" xlink:href="#path-22"></use>
                <use fill="#F2F3FE" fill-rule="evenodd" xlink:href="#path-22"></use>
                <use fill="black" fill-opacity="1" filter="url(#filter-24)" xlink:href="#path-22"></use>
            </g>
            <g id="Path-Copy-8" transform="translate(160.000000, 653.582374) scale(-1, 1) translate(-160.000000, -653.582374) ">
                <use fill="black" fill-opacity="1" filter="url(#filter-26)" xlink:href="#path-25"></use>
                <use fill="#F2F3FE" fill-rule="evenodd" xlink:href="#path-25"></use>
                <use fill="black" fill-opacity="1" filter="url(#filter-27)" xlink:href="#path-25"></use>
            </g>
            <g id="Path-Copy-16" transform="translate(1284.500000, 85.082374) scale(-1, 1) translate(-1284.500000, -85.082374) ">
                <use fill="black" fill-opacity="1" filter="url(#filter-29)" xlink:href="#path-28"></use>
                <use fill="#A7AFFF" fill-rule="evenodd" xlink:href="#path-28"></use>
                <use fill="black" fill-opacity="1" filter="url(#filter-30)" xlink:href="#path-28"></use>
            </g>
            <g id="Path">
                <use fill="black" fill-opacity="1" filter="url(#filter-32)" xlink:href="#path-31"></use>
                <use fill="#F2F3FE" fill-rule="evenodd" xlink:href="#path-31"></use>
                <use fill="black" fill-opacity="1" filter="url(#filter-33)" xlink:href="#path-31"></use>
            </g>
            <g id="Path-Copy-14">
                <use fill="black" fill-opacity="1" filter="url(#filter-35)" xlink:href="#path-34"></use>
                <use fill="#F2F3FE" fill-rule="evenodd" xlink:href="#path-34"></use>
                <use fill="black" fill-opacity="1" filter="url(#filter-36)" xlink:href="#path-34"></use>
            </g>
            <g id="Path-Copy-9" transform="translate(1312.500000, 651.582374) scale(-1, 1) translate(-1312.500000, -651.582374) ">
                <use fill="black" fill-opacity="1" filter="url(#filter-38)" xlink:href="#path-37"></use>
                <use fill="#F2F3FE" fill-rule="evenodd" xlink:href="#path-37"></use>
                <use fill="black" fill-opacity="1" filter="url(#filter-39)" xlink:href="#path-37"></use>
            </g>
        </g>
        <rect id="Rectangle-Copy-10" fill="#6D7AFD" opacity="0.7" x="0" y="0" width="1440" height="784"></rect>
    </g>
</svg>