<?xml version="1.0" encoding="UTF-8"?>
<svg width="80px" height="80px" viewBox="0 0 80 80" version="1.1" xmlns="http://www.w3.org/2000/svg" xmlns:xlink="http://www.w3.org/1999/xlink">
    <title>esigenza</title>
    <defs>
        <filter id="filter-1">
            <feColorMatrix in="SourceGraphic" type="matrix" values="0 0 0 0 1.000000 0 0 0 0 1.000000 0 0 0 0 1.000000 0 0 0 1.000000 0"></feColorMatrix>
        </filter>
    </defs>
    <g id="Home" stroke="none" stroke-width="1" fill="none" fill-rule="evenodd">
        <g id="esigenza" transform="translate(-254.000000, -894.000000)" filter="url(#filter-1)">
            <g transform="translate(254.000000, 894.000000)">
                <path d="M42.5785124,0 C37.382405,0 33,4.34648361 33,9.5 C33,14.6535164 37.382405,19 42.5785124,19 C47.7746198,19 52,14.6535164 52,9.5 C52,4.34648361 47.7746198,0 42.5785124,0 Z" id="Path" fill="#000000" fill-rule="nonzero"></path>
                <path d="M52.3788729,19 C49.8287072,21.8434 46.1761768,23.6666667 42.0773481,23.6666667 C37.9785193,23.6666667 34.1712928,21.8434 31.6211271,19 C29.3947403,21.4825111 28,24.7347111 28,28.3333333 L28,30.6666667 C28,31.9563778 29.0378564,33 30.320442,33 L53.679558,33 C54.9621436,33 56,31.9563778 56,30.6666667 L56,28.3333333 C56,24.7347111 54.6052597,21.4825111 52.3788729,19 Z" id="Path" fill="#000000" fill-rule="nonzero"></path>
                <path d="M22.5092098,71.845811 L10.6363994,47.6261391 C9.48998307,45.2873774 6.69981593,44.3336355 4.3984406,45.4937713 L1.29530381,47.0578449 C0.13987889,47.6408364 -0.330274523,49.0696319 0.246428359,50.2432007 L14.2252216,78.6895217 C14.8000607,79.8626164 16.198406,80.3294521 17.3445117,79.7543623 L20.4077312,78.2102012 C22.7181151,77.0457985 23.6598198,74.1934226 22.5092098,71.845811 Z" id="Path" fill="#000000" fill-rule="nonzero"></path>
                <path d="M78.088944,38.7181985 C76.169462,37.3401456 73.5011309,37.6157562 71.9096509,39.3153548 L59.114145,54.7495476 C58.2247013,55.6682495 56.5394395,56.2194707 55.6499958,56.2194707 L44.7424512,56.2194707 C43.4315361,56.2194707 42.4018099,55.2090517 42.4018099,53.9227158 C42.4018099,52.63638 43.4315361,51.6259609 44.7424512,51.6259609 C47.8773502,51.6259609 51.3480531,51.6259609 54.1050165,51.6259609 C56.679722,51.6259609 58.7862992,49.5588815 58.7862992,47.0324512 C58.7862992,44.5060208 56.679722,42.4389414 54.1050165,42.4389414 C43.1124286,42.4389414 53.5978776,42.4389414 41.840056,42.4389414 C40.6734804,42.4389414 40.091753,41.7130138 39.1717249,40.9229301 C35.5501286,37.7250817 30.1292033,36.1844185 24.6411796,37.4326282 C21.5939767,38.1256357 19.5390497,39.3335757 17.4549426,40.9532472 L17.3855036,40.897972 L14,43.8215879 L27.3048294,70 L31.2445969,70 L54.1050165,70 C58.5054222,70 62.7187326,67.9329206 65.3402509,64.4877883 L79.0718573,45.1950473 C80.6166805,43.1737499 80.1953651,40.2342098 78.088944,38.7181985 Z" id="Path" fill="#000000" fill-rule="nonzero"></path>
            </g>
        </g>
    </g>
</svg>