<?xml version="1.0" encoding="UTF-8"?>
<svg width="80px" height="80px" viewBox="0 0 80 80" version="1.1" xmlns="http://www.w3.org/2000/svg" xmlns:xlink="http://www.w3.org/1999/xlink">
    <title>ideazione</title>
    <defs>
        <filter id="filter-1">
            <feColorMatrix in="SourceGraphic" type="matrix" values="0 0 0 0 1.000000 0 0 0 0 1.000000 0 0 0 0 1.000000 0 0 0 1.000000 0"></feColorMatrix>
        </filter>
    </defs>
    <g id="Home" stroke="none" stroke-width="1" fill="none" fill-rule="evenodd">
        <g id="ideazione" transform="translate(-538.000000, -894.000000)" filter="url(#filter-1)">
            <g transform="translate(538.000000, 894.000000)">
                <path d="M23.5897436,60.5128205 L23.5897436,62.9087852 C23.5897436,66.1030853 25.6527473,68.7854477 28.4781245,69.7187558 C29.4236679,75.3615721 34.2132747,80 40,80 C45.7867253,80 50.5763321,75.3615721 51.5218755,69.7187558 C54.3472527,68.7854477 56.4102564,66.1032451 56.4102564,62.9087852 L56.4102564,60.5128205 L23.5897436,60.5128205 L23.5897436,60.5128205 Z" id="Path" fill="#000000" fill-rule="nonzero"></path>
                <path d="M34.3937058,0.633762164 C23.8139251,2.848789 15.1980568,11.4608497 12.9547464,22.065275 C11.0480264,31.0881874 13.4011896,40.1455726 19.4074672,46.9167918 C21.8357929,49.6569003 23.3171653,52.9640846 23.8029867,56.4102564 L57.0737051,56.4102564 C57.5760904,52.9803807 59.1009039,49.620704 61.5984541,46.7629182 C66.0894502,41.6282115 68.7179487,35.0360936 68.7179487,28.205174 C68.7179487,10.3136927 52.1967396,-3.12454419 34.3937058,0.633762164 Z M56.8419672,30.5557411 C55.5463914,30.5557411 54.4980235,29.5044809 54.4980235,28.2053306 C54.4980235,20.4287625 48.1871895,14.1028678 40.4320173,14.1028678 C39.1364415,14.1028678 38.0880736,13.0516075 38.0880736,11.7524573 C38.0880736,10.4533071 39.1364415,9.40204681 40.4320173,9.40204681 C50.7738095,9.40204681 59.1859109,17.8373566 59.1859109,28.2053306 C59.1859109,29.5044809 58.1375431,30.5557411 56.8419672,30.5557411 Z" id="Shape" fill="#000000" fill-rule="nonzero"></path>
                <path d="M6.92307692,27.6923077 L2.30769231,27.6923077 C1.03215385,27.6923077 0,28.8391453 0,30.2564103 C0,31.6736752 1.03215385,32.8205128 2.30769231,32.8205128 L6.92307692,32.8205128 C8.19861538,32.8205128 9.23076923,31.6736752 9.23076923,30.2564103 C9.23076923,28.8391453 8.19861538,27.6923077 6.92307692,27.6923077 Z" id="Path" fill="#000000" fill-rule="nonzero"></path>
                <path d="M8.52670689,16.4103165 L5.12820513,13.0118645 C4.18929511,12.0729682 2.66845316,12.0729682 1.72970337,13.0118645 C0.790953578,13.9506005 0.790953578,15.4715805 1.72970337,16.4103165 L5.12820513,19.8087685 C6.06695492,20.7475045 7.5879571,20.7475045 8.52670689,19.8087685 C9.46545668,18.8700324 9.46545668,17.3490525 8.52670689,16.4103165 Z" id="Path" fill="#000000" fill-rule="nonzero"></path>
                <path d="M8.52670689,40.7041173 C7.5879571,39.7653744 6.06695492,39.7652141 5.12820513,40.7041173 L1.72970337,44.1025941 C0.790953578,45.0413371 0.790953578,46.5623281 1.72970337,47.501071 C2.66845316,48.4398139 4.18945534,48.4398139 5.12820513,47.501071 L8.52670689,44.1025941 C9.46545668,43.1638512 9.46545668,41.6428602 8.52670689,40.7041173 Z" id="Path" fill="#000000" fill-rule="nonzero"></path>
                <path d="M77.6923077,27.6923077 L73.0769231,27.6923077 C71.8013846,27.6923077 70.7692308,28.8391453 70.7692308,30.2564103 C70.7692308,31.6736752 71.8013846,32.8205128 73.0769231,32.8205128 L77.6923077,32.8205128 C78.9678462,32.8205128 80,31.6736752 80,30.2564103 C80,28.8391453 78.9678462,27.6923077 77.6923077,27.6923077 Z" id="Path" fill="#000000" fill-rule="nonzero"></path>
                <path d="M78.2702966,13.0117547 C77.3315468,12.0730049 75.8105447,12.0730049 74.8717949,13.0117547 L71.4732931,16.4102564 C70.5345433,17.3490062 70.5345433,18.8700084 71.4732931,19.8087582 C72.4120429,20.747508 73.9328849,20.747508 74.8717949,19.8087582 L78.2702966,16.4102564 C79.2090464,15.4715066 79.2090464,13.9505044 78.2702966,13.0117547 Z" id="Path" fill="#000000" fill-rule="nonzero"></path>
                <path d="M78.2702966,44.1025641 L74.8717949,40.7040623 C73.9330451,39.7653126 72.4120429,39.7653126 71.4732931,40.7040623 C70.5345433,41.6428121 70.5345433,43.1638143 71.4732931,44.1025641 L74.8717949,47.5010659 C75.8105447,48.4398157 77.3315468,48.4398157 78.2702966,47.5010659 C79.2090464,46.5623161 79.2090464,45.0413139 78.2702966,44.1025641 Z" id="Path" fill="#000000" fill-rule="nonzero"></path>
            </g>
        </g>
    </g>
</svg>