<?xml version="1.0" encoding="UTF-8"?>
<svg width="90px" height="80px" viewBox="0 0 90 80" version="1.1" xmlns="http://www.w3.org/2000/svg" xmlns:xlink="http://www.w3.org/1999/xlink">
    <title>soluzione</title>
    <defs>
        <filter id="filter-1">
            <feColorMatrix in="SourceGraphic" type="matrix" values="0 0 0 0 1.000000 0 0 0 0 1.000000 0 0 0 0 1.000000 0 0 0 1.000000 0"></feColorMatrix>
        </filter>
    </defs>
    <g id="Home" stroke="none" stroke-width="1" fill="none" fill-rule="evenodd">
        <g id="soluzione" transform="translate(-1101.000000, -894.000000)" filter="url(#filter-1)">
            <g transform="translate(1101.000000, 894.000000)">
                <path d="M82.6865487,7.82903989 C78.037426,2.78050282 71.6581583,0 64.722503,0 C59.5382345,0 54.790442,1.6409975 50.6106856,4.87702805 C48.5016215,6.51047911 46.590582,8.50890136 44.9056604,10.8414229 C43.2214241,8.50958735 41.3096993,6.51047911 39.19995,4.87702805 C35.0208787,1.6409975 30.2730862,0 25.0888177,0 C18.1531625,0 11.7732096,2.78050282 7.12408673,7.82903989 C2.53046571,12.8185778 0,19.6350289 0,27.023634 C0,34.6283401 2.83058603,41.5895449 8.90767799,48.9314993 C14.3441025,55.4989194 22.1575064,62.1658148 31.2056517,69.885775 C34.2952455,72.5222104 37.7973333,75.5105821 41.4337215,78.6937879 C42.3943804,79.5362398 43.6270661,80 44.9056604,80 C46.1835695,80 47.4169403,79.5362398 48.3762287,78.6951601 C52.012617,75.5112681 55.5167606,72.5215244 58.6077247,69.8837169 C67.6544996,62.1651288 75.4679036,55.4989194 80.9043279,48.9308133 C86.9814201,41.5895449 89.8113208,34.6283401 89.8113208,27.022948 C89.8113208,19.6350289 87.280855,12.8185778 82.6865487,7.82903989 Z" id="Path" fill="#000000" fill-rule="nonzero"></path>
            </g>
        </g>
    </g>
</svg>