<?xml version="1.0" encoding="UTF-8"?>
<svg width="594px" height="497px" viewBox="0 0 594 497" version="1.1" xmlns="http://www.w3.org/2000/svg" xmlns:xlink="http://www.w3.org/1999/xlink">
    <title>ui-ux</title>
    <defs>
        <filter x="-11.4%" y="-14.1%" width="122.8%" height="128.2%" filterUnits="objectBoundingBox" id="filter-1">
            <feOffset dx="10" dy="10" in="SourceAlpha" result="shadowOffsetOuter1"></feOffset>
            <feGaussianBlur stdDeviation="10" in="shadowOffsetOuter1" result="shadowBlurOuter1"></feGaussianBlur>
            <feColorMatrix values="0 0 0 0 0   0 0 0 0 0   0 0 0 0 0  0 0 0 0.15 0" type="matrix" in="shadowBlurOuter1" result="shadowMatrixOuter1"></feColorMatrix>
            <feMerge>
                <feMergeNode in="shadowMatrixOuter1"></feMergeNode>
                <feMergeNode in="SourceGraphic"></feMergeNode>
            </feMerge>
        </filter>
        <filter id="filter-2">
            <feColorMatrix in="SourceGraphic" type="matrix" values="0 0 0 0 1.000000 0 0 0 0 1.000000 0 0 0 0 1.000000 0 0 0 1.000000 0"></feColorMatrix>
        </filter>
        <filter id="filter-3">
            <feColorMatrix in="SourceGraphic" type="matrix" values="0 0 0 0 1.000000 0 0 0 0 1.000000 0 0 0 0 1.000000 0 0 0 1.000000 0"></feColorMatrix>
        </filter>
        <filter id="filter-4">
            <feColorMatrix in="SourceGraphic" type="matrix" values="0 0 0 0 0.254902 0 0 0 0 0.294118 0 0 0 0 0.678431 0 0 0 1.000000 0"></feColorMatrix>
        </filter>
        <filter id="filter-5">
            <feColorMatrix in="SourceGraphic" type="matrix" values="0 0 0 0 0.254902 0 0 0 0 0.294118 0 0 0 0 0.678431 0 0 0 1.000000 0"></feColorMatrix>
        </filter>
        <filter id="filter-6">
            <feColorMatrix in="SourceGraphic" type="matrix" values="0 0 0 0 0.254902 0 0 0 0 0.294118 0 0 0 0 0.678431 0 0 0 1.000000 0"></feColorMatrix>
        </filter>
        <filter id="filter-7">
            <feColorMatrix in="SourceGraphic" type="matrix" values="0 0 0 0 0.254902 0 0 0 0 0.294118 0 0 0 0 0.678431 0 0 0 1.000000 0"></feColorMatrix>
        </filter>
        <filter id="filter-8">
            <feColorMatrix in="SourceGraphic" type="matrix" values="0 0 0 0 0.254902 0 0 0 0 0.294118 0 0 0 0 0.678431 0 0 0 1.000000 0"></feColorMatrix>
        </filter>
        <filter id="filter-9">
            <feColorMatrix in="SourceGraphic" type="matrix" values="0 0 0 0 0.454902 0 0 0 0 0.921569 0 0 0 0 0.835294 0 0 0 1.000000 0"></feColorMatrix>
        </filter>
        <filter id="filter-10">
            <feColorMatrix in="SourceGraphic" type="matrix" values="0 0 0 0 0.254902 0 0 0 0 0.294118 0 0 0 0 0.678431 0 0 0 1.000000 0"></feColorMatrix>
        </filter>
        <filter id="filter-11">
            <feColorMatrix in="SourceGraphic" type="matrix" values="0 0 0 0 1.000000 0 0 0 0 1.000000 0 0 0 0 1.000000 0 0 0 1.000000 0"></feColorMatrix>
        </filter>
        <filter id="filter-12">
            <feColorMatrix in="SourceGraphic" type="matrix" values="0 0 0 0 0.254902 0 0 0 0 0.294118 0 0 0 0 0.678431 0 0 0 1.000000 0"></feColorMatrix>
        </filter>
        <filter id="filter-13">
            <feColorMatrix in="SourceGraphic" type="matrix" values="0 0 0 0 0.254902 0 0 0 0 0.294118 0 0 0 0 0.678431 0 0 0 1.000000 0"></feColorMatrix>
        </filter>
        <filter id="filter-14">
            <feColorMatrix in="SourceGraphic" type="matrix" values="0 0 0 0 0.454902 0 0 0 0 0.921569 0 0 0 0 0.835294 0 0 0 1.000000 0"></feColorMatrix>
        </filter>
        <filter id="filter-15">
            <feColorMatrix in="SourceGraphic" type="matrix" values="0 0 0 0 0.454902 0 0 0 0 0.921569 0 0 0 0 0.835294 0 0 0 1.000000 0"></feColorMatrix>
        </filter>
    </defs>
    <g id="Home" stroke="none" stroke-width="1" fill="none" fill-rule="evenodd">
        <g id="Desktop-HD-Copy-6" transform="translate(-745.000000, -2198.000000)">
            <g id="ui-ux" filter="url(#filter-1)" transform="translate(788.000000, 2241.000000)">
                <g id="Device" transform="translate(323.000000, 32.000000)">
                    <path d="M156.891856,378.038559 L28.6844682,377.961644 C13.2609405,377.950656 0.768431983,365.435442 0.768431983,350.008437 L0.834297582,28.293832 C0.834297582,12.8558382 13.3487613,0.340624774 28.7832666,0.340624774 L156.979677,0.406552149 C172.403204,0.417540045 184.895713,12.9327535 184.895713,28.3707473 L184.829847,350.085352 C184.829847,365.534334 172.315383,378.038559 156.891856,378.038559 Z" id="Path" fill="#6D7AFD" fill-rule="nonzero"></path>
                    <path d="M156.847945,11.7900123 L131.99466,11.7790244 C128.657469,11.7790244 125.95698,14.6029137 125.95698,18.0860767 L125.95698,22.6021019 C125.95698,26.0852649 123.25649,28.9201421 119.9193,28.9091542 L71.4641745,28.8761905 C68.1269841,28.8761905 65.4264946,26.0413133 65.4264946,22.5581503 L65.4264946,18.0421251 C65.4264946,14.5589621 62.726005,11.7240849 59.3888147,11.7240849 L50.6506453,11.7240849 L28.8930426,11.7130867 C18.0910844,11.7021092 9.3199822,20.4704501 9.3199822,31.2825397 L9.2541166,345.305617 C9.2541166,356.117707 18.0032636,364.886048 28.8052218,364.886048 L156.760125,364.962973 C167.562083,364.973951 176.322207,356.20561 176.333185,345.39352 L176.399051,31.3704428 C176.399051,20.5583533 167.649904,11.7900123 156.847945,11.7900123 Z" id="Path" fill="#FFFFFF" fill-rule="nonzero"></path>
                    <g id="Group" transform="translate(27.443999, 41.754004)">
                        <rect id="Rectangle" fill="#EFF1FF" fill-rule="nonzero" x="9.243139" y="157.302718" width="110.445631" height="22.5801261"></rect>
                        <rect id="Rectangle" fill="#EFF1FF" fill-rule="nonzero" x="9.243139" y="190.068624" width="110.445631" height="22.5801261"></rect>
                        <path d="M94.2097612,258.149627 L38.7728824,258.149627 C32.5485833,258.149627 27.4879098,253.095195 27.4879098,246.85407 L27.4879098,246.85407 C27.4879098,240.612945 32.5376057,235.558513 38.7728824,235.558513 L94.2097612,235.558513 C100.445038,235.558513 105.494734,240.612945 105.494734,246.85407 L105.494734,246.85407 C105.494734,253.095195 100.445038,258.149627 94.2097612,258.149627 Z" id="Path" fill="#74EBD5" fill-rule="nonzero"></path>
                        <g filter="url(#filter-2)">
                            <g transform="translate(18.661920, 164.818439)">
                                <path d="M5.82910547,8.74636515 L0.955051179,8.74636515 C0.47203679,8.74636515 0.0878207981,8.36178879 0.0878207981,7.87832137 L0.0878207981,7.87832137 C0.0878207981,6.07630644 1.54784157,4.62590418 3.33719033,4.62590418 L3.44696633,4.62590418 C5.24729269,4.62590418 6.69633586,6.08729434 6.69633586,7.87832137 L6.69633586,7.87832137 C6.69633586,8.36178879 6.31211986,8.74636515 5.82910547,8.74636515 Z" id="Path" fill="#E0E0E0" fill-rule="nonzero"></path>
                                <path d="M5.33511348,2.91179242 C5.33511348,3.98860622 4.4678831,4.85665 3.39207833,4.85665 C2.31627355,4.85665 1.44904317,3.98860622 1.44904317,2.91179242 C1.44904317,1.83497862 2.31627355,0.966934841 3.39207833,0.966934841 C4.4678831,0.966934841 5.33511348,1.83497862 5.33511348,2.91179242 Z" id="Path" fill="#E0E0E0" fill-rule="nonzero"></path>
                            </g>
                        </g>
                        <g filter="url(#filter-3)">
                            <g transform="translate(17.564160, 197.683337)">
                                <rect id="Rectangle" fill="#E0E0E0" fill-rule="nonzero" x="1.58077437" y="4.03245633" width="5.81812787" height="4.12046097"></rect>
                                <path d="M8.05755823,4.911488 L6.10354547,4.911488 L6.10354547,3.63689208 C6.10354547,2.72489672 5.36804628,1.98870769 4.4569055,1.98870769 C3.54576472,1.98870769 2.81026554,2.72489672 2.81026554,3.63689208 L2.81026554,4.911488 L0.856252781,4.911488 L0.856252781,3.63689208 C0.856252781,1.64808292 2.46995995,0.0328622164 4.4569055,0.0328622164 C6.44385106,0.0328622164 8.05755823,1.64808292 8.05755823,3.63689208 L8.05755823,4.911488 Z" id="Path" fill="#E0E0E0" fill-rule="nonzero"></path>
                            </g>
                        </g>
                        <path d="M14.4135885,10.2297311 C14.4135885,11.4603754 14.4135885,12.7020077 14.4135885,13.932652 C14.4135885,14.4930347 14.1940365,14.7127926 13.6451565,14.7127926 C12.2180685,14.7127926 10.7909806,14.7127926 9.3638926,14.7127926 C8.83696781,14.7127926 8.62839341,14.4930347 8.62839341,13.9766036 C8.62839341,13.086584 8.63937101,12.1855766 8.61741581,11.295557 C8.59546061,10.3176343 7.67334223,9.72428789 6.79513425,10.13084 C6.29016466,10.3615859 6.07061267,10.7901138 6.07061267,11.3395086 C6.07061267,12.1855766 6.07061267,13.0206567 6.07061267,13.8667247 C6.07061267,14.5369863 5.88399347,14.7127926 5.21435989,14.7127926 C3.86411512,14.7127926 2.51387035,14.7127926 1.16362557,14.7127926 C0.570835188,14.7127926 0.373238392,14.5259984 0.373238392,13.932652 C0.373238392,11.4933391 0.373238392,9.05402624 0.373238392,6.61471334 C0.373238392,5.95543959 0.614745587,5.44999638 1.15264798,5.06542002 C3.08470553,3.68094513 4.99480789,2.28548235 6.92686545,0.901007465 C7.27814864,0.648285859 7.49770064,0.648285859 7.85996143,0.901007465 C9.78104139,2.28548235 11.7021213,3.68094513 13.6341789,5.06542002 C14.1720813,5.44999638 14.4245661,5.95543959 14.4135885,6.61471334 C14.4026109,7.82338189 14.4135885,9.02106255 14.4135885,10.2297311 Z M1.53686397,13.5041241 C2.67853434,13.5041241 3.78727192,13.5041241 4.92894229,13.5041241 C4.92894229,12.7569472 4.91796469,12.0427339 4.92894229,11.3175328 C4.93991989,9.92207002 6.01572467,8.84525622 7.36596944,8.84525622 C8.71621421,8.84525622 9.79201899,9.92207002 9.81397419,11.3175328 C9.82495179,11.932855 9.83592939,12.559165 9.81397419,13.1744872 C9.80299659,13.4711604 9.87983979,13.5810394 10.1981902,13.5700515 C11.0763982,13.5480757 11.9655837,13.5590636 12.8437917,13.5590636 C12.9535677,13.5590636 13.0743213,13.5480757 13.2170301,13.5370878 C13.2170301,13.3722693 13.2170301,13.2404146 13.2170301,13.0975719 C13.2170301,10.9878959 13.2060525,8.8782199 13.2170301,6.76854389 C13.2170301,6.39495543 13.1072541,6.15322171 12.7998813,5.94445169 C11.054443,4.69183156 9.3199822,3.42822353 7.57454384,2.1536276 C7.42085744,2.04374864 7.31108144,2.03276075 7.15739505,2.1426397 C5.40097908,3.41723563 3.63358552,4.69183156 1.87716956,5.95543959 C1.62468476,6.13124592 1.51490877,6.34001595 1.52588637,6.64767703 C1.53686397,8.81229253 1.52588637,10.976908 1.52588637,13.1305356 C1.53686397,13.2623904 1.53686397,13.3722693 1.53686397,13.5041241 Z" id="Shape" fill="#6D7AFD" fill-rule="nonzero"></path>
                        <path d="M132.960688,2.62610712 L119.436285,2.62610712 C119.172823,2.62610712 118.953271,2.40634921 118.953271,2.1426397 L118.953271,2.1426397 C118.953271,1.8789302 119.172823,1.65917228 119.436285,1.65917228 L132.960688,1.65917228 C133.224151,1.65917228 133.443703,1.8789302 133.443703,2.1426397 L133.443703,2.1426397 C133.432725,2.40634921 133.224151,2.62610712 132.960688,2.62610712 Z" id="Path" fill="#6D7AFD" fill-rule="nonzero"></path>
                        <path d="M132.960688,6.50483438 L119.436285,6.50483438 C119.172823,6.50483438 118.953271,6.28507647 118.953271,6.02136696 L118.953271,6.02136696 C118.953271,5.75765746 119.172823,5.53789954 119.436285,5.53789954 L132.960688,5.53789954 C133.224151,5.53789954 133.443703,5.75765746 133.443703,6.02136696 L133.443703,6.02136696 C133.432725,6.28507647 133.224151,6.50483438 132.960688,6.50483438 Z" id="Path" fill="#6D7AFD" fill-rule="nonzero"></path>
                        <path d="M132.960688,10.3835616 L119.436285,10.3835616 C119.172823,10.3835616 118.953271,10.1638037 118.953271,9.90009422 L118.953271,9.90009422 C118.953271,9.63638472 119.172823,9.4166268 119.436285,9.4166268 L132.960688,9.4166268 C133.224151,9.4166268 133.443703,9.63638472 133.443703,9.90009422 L133.443703,9.90009422 C133.432725,10.1638037 133.224151,10.3835616 132.960688,10.3835616 Z" id="Path" fill="#6D7AFD" fill-rule="nonzero"></path>
                    </g>
                    <path d="M123.959057,184.420845 L61.9685507,184.420845 C60.0804035,184.420845 58.5435395,182.88254 58.5435395,180.992622 L58.5435395,179.476292 C58.5435395,177.586374 60.0804035,176.048068 61.9685507,176.048068 L123.959057,176.048068 C125.847204,176.048068 127.384068,177.586374 127.384068,179.476292 L127.384068,180.992622 C127.384068,182.871552 125.836226,184.420845 123.959057,184.420845 Z" id="Path" fill="#6D7AFD" fill-rule="nonzero"></path>
                    <path d="M111.301884,330.966413 L79.2143599,330.966413 C77.3262127,330.966413 75.7893488,329.428108 75.7893488,327.538189 L75.7893488,326.02186 C75.7893488,324.131942 77.3262127,322.593636 79.2143599,322.593636 L111.301884,322.593636 C113.190031,322.593636 114.726895,324.131942 114.726895,326.02186 L114.726895,327.538189 C114.726895,329.428108 113.190031,330.966413 111.301884,330.966413 Z" id="Path" fill="#74EBD5" fill-rule="nonzero"></path>
                    <path d="M126.308263,320.48396 L64.2189586,320.48396 C62.3308115,320.48396 60.7939475,318.945655 60.7939475,317.055737 L60.7939475,315.539407 C60.7939475,313.649489 62.3308115,312.111184 64.2189586,312.111184 L126.31924,312.111184 C128.207388,312.111184 129.744252,313.649489 129.744252,315.539407 L129.744252,317.055737 C129.733274,318.934667 128.19641,320.48396 126.308263,320.48396 Z" id="Path" fill="#EFF1FF" fill-rule="nonzero"></path>
                </g>
                <g id="Prototyping" transform="translate(0.000000, 22.000000)">
                    <g id="Group" transform="translate(83.527337, 50.630555)">
                        <g>
                            <g fill-rule="nonzero" id="Path">
                                <path d="M138.545475,0.814491532 L115.39961,0.792478247 C112.300306,0.792478247 109.783496,3.42306576 109.783496,6.67002525 L109.783496,10.8745626 C109.783496,14.1215221 107.266685,16.7521096 104.167381,16.7521096 L59.0516291,16.7300963 C55.9523253,16.7300963 53.4355147,14.0885022 53.4355147,10.8415427 L53.4355147,6.63700532 C53.4355147,3.39004584 50.9187042,0.748451678 47.8194004,0.748451678 L39.675485,0.748451678 L19.4201058,0.737433923 C9.36385408,0.726438393 1.19795786,8.893367 1.19795786,18.9754514 L1.14300566,311.520998 C1.14300566,321.592075 9.28692101,329.759004 19.3431727,329.759004 L138.479532,329.825055 C148.535784,329.83605 156.70168,321.669122 156.70168,311.587037 L156.756632,19.0414912 C156.745642,8.98142013 148.601727,0.814491532 138.545475,0.814491532 Z" fill="#FFFFFF"></path>
                                <path d="M138.545475,0.814491532 C138.545475,0.814491532 138.754293,0.814491532 139.17193,0.836504816 C139.578576,0.880531386 140.216022,0.825498174 141.018324,0.979591167 C142.633918,1.16670409 145.084786,1.69502292 147.854377,3.34601927 C149.250162,4.13849751 150.667929,5.27218167 152.008763,6.71405182 C153.349596,8.1669286 154.591516,9.98302459 155.481741,12.1623398 C156.382957,14.3306483 156.866537,16.862176 156.844556,19.56981 C156.844556,22.2664374 156.855546,25.1281644 156.855546,28.1659977 C156.866537,52.4686639 156.888518,87.6238795 156.921489,131.067097 C156.932479,174.510314 156.932479,226.241533 156.94347,283.685199 C156.94347,290.86153 156.94347,298.136921 156.94347,305.489358 C156.94347,307.327467 156.94347,309.176583 156.94347,311.025699 C156.921489,312.874815 156.800594,314.78997 156.251072,316.584053 C155.723531,318.389142 154.976181,320.150205 153.921099,321.724155 C152.866017,323.298105 151.591126,324.717962 150.129398,325.939699 C147.172969,328.317134 143.458201,329.83605 139.611547,330.023163 C135.797865,330.13323 132.006164,330.056183 128.1705,330.078197 C120.510164,330.078197 112.783886,330.06719 104.980674,330.06719 C89.3742504,330.056183 73.493066,330.056183 57.3810823,330.045177 C49.3250905,330.045177 41.203156,330.03417 33.0372598,330.03417 C28.9488165,330.03417 24.8493827,330.03417 20.7389585,330.023163 C16.6065534,330.23229 12.3312726,329.142632 8.88027476,326.743184 C5.41828646,324.365749 2.85751416,320.755571 1.6595563,316.760159 C1.02211083,314.767957 0.901216003,312.643675 0.901216003,310.585433 C0.901216003,308.527191 0.901216003,306.479955 0.901216003,304.43272 C0.901216003,296.243778 0.901216003,288.120876 0.912206442,280.042001 C0.912206442,263.895256 0.923196881,247.990658 0.923196881,232.361226 C0.93418732,201.102362 0.945177759,170.944162 0.956168198,142.216825 C0.967158637,113.489489 0.978149076,86.193016 1.00012995,60.6465992 C1.01112039,47.8788941 1.01112039,35.5404481 1.02211083,23.6862943 C1.02211083,22.2003976 1.02211083,20.7255075 1.02211083,19.2616241 C1.03310127,18.524179 1.08805347,17.786734 1.12102478,17.049289 C1.25291005,16.3228506 1.30786225,15.5854055 1.49469971,14.8809804 C2.16511649,12.0302601 3.48396918,9.35564597 5.33036294,7.15431751 C7.18774715,4.96399569 9.51772023,3.23595284 12.089483,2.10226868 C14.6502553,0.94657124 17.4638077,0.539325474 20.1894366,0.57050397 C25.607723,0.583352043 30.9051146,0.583352043 36.0596306,0.594358685 C38.6423837,0.594358685 41.1811752,0.605365328 43.6979857,0.605365328 C44.9508958,0.605365328 46.2038058,0.605365328 47.434735,0.605365328 C48.687645,0.539325474 49.9955073,0.891538028 51.0176181,1.60696978 C52.0507194,2.33340817 52.842031,3.36803255 53.2486772,4.53473664 C53.7102757,5.70144072 53.6003713,6.96720459 53.6223522,8.13390868 C53.6223522,8.72826736 53.6223522,9.32262605 53.6223522,9.90597809 C53.6223522,10.5003368 53.6003713,11.0836888 53.6773044,11.6450276 C53.8201801,12.7787117 54.292769,13.8573627 55.0401188,14.6938675 C55.7654878,15.5523856 56.7546273,16.1577509 57.8206999,16.4219103 C58.3592314,16.5539901 58.8977629,16.5980166 59.4582753,16.58701 C60.0187877,16.58701 60.5793001,16.58701 61.1398125,16.58701 C63.3708716,16.58701 65.557969,16.5980166 67.7120951,16.5980166 C76.3285993,16.6090233 84.3406294,16.6200299 91.7262044,16.6310365 C95.4189919,16.6420432 98.9469229,16.6420432 102.309997,16.6530498 C103.145271,16.6420432 103.991534,16.6860698 104.793836,16.6200299 C105.596138,16.5319768 106.354479,16.2568107 107.024896,15.8385583 C108.365729,15.0020535 109.266945,13.6262232 109.574677,12.1623398 C109.739534,11.4359014 109.717553,10.6874497 109.717553,9.95000466 C109.717553,9.21255962 109.717553,8.48612123 109.717553,7.77068948 C109.728544,7.05525773 109.684582,6.33982598 109.816467,5.64640751 C109.937362,4.95298904 110.168161,4.29259051 110.508865,3.68722518 C111.168291,2.48750116 112.234364,1.58495649 113.421331,1.11167087 C114.619289,0.594358685 115.89418,0.748451678 117.037186,0.726438393 C121.708122,0.737445036 125.65369,0.748451678 128.851908,0.75945832 C132.039135,0.770464963 134.479012,0.781471605 136.116588,0.792478247 C137.710201,0.792478247 138.545475,0.814491532 138.545475,0.814491532 C138.545475,0.814491532 137.710201,0.836504816 136.072626,0.836504816 C134.435051,0.836504816 131.995173,0.847511459 128.807946,0.858518101 C125.609728,0.858518101 121.66416,0.869524743 116.993224,0.880531386 C115.828237,0.90254467 114.586318,0.75945832 113.432322,1.26576387 C112.289316,1.7170362 111.256215,2.60857423 110.618769,3.77527832 C110.300046,4.35863036 110.069247,4.99701561 109.959343,5.6684208 C109.838448,6.33982598 109.88241,7.04425109 109.871419,7.75968284 C109.871419,8.47511459 109.871419,9.20155298 109.871419,9.93899802 C109.871419,10.6654364 109.904391,11.4359014 109.728544,12.1953597 C109.409821,13.7032697 108.475634,15.1341332 107.090838,16.0036579 C106.398441,16.4439236 105.607129,16.7300963 104.771856,16.8291561 C103.925592,16.9062026 103.112299,16.8511694 102.266035,16.862176 C98.9029611,16.862176 95.3640397,16.862176 91.6822426,16.862176 C84.2966676,16.862176 76.2846375,16.862176 67.6681333,16.8731827 C65.5140072,16.8731827 63.3269099,16.8731827 61.0958507,16.8731827 C60.5353383,16.8731827 59.974826,16.8731827 59.4143136,16.8731827 C58.8538012,16.8841893 58.2603175,16.8511694 57.6998051,16.708083 C56.5677898,16.432917 55.5236981,15.7835251 54.7543674,14.8809804 C53.9740462,13.9894424 53.468486,12.8557582 53.3146199,11.6670409 C53.2376868,11.0616755 53.2596677,10.4673168 53.2486772,9.88396481 C53.2486772,9.28960612 53.2486772,8.70625408 53.2486772,8.11189539 C53.2376868,6.92317802 53.3366008,5.72345401 52.8969832,4.62278978 C52.5123178,3.5111189 51.7539775,2.53152773 50.7868189,1.84911591 C49.8086698,1.16670409 48.610712,0.847511459 47.3907732,0.913551313 C46.1488536,0.913551313 44.906934,0.913551313 43.6540239,0.913551313 C41.1372134,0.913551313 38.598422,0.913551313 36.0156688,0.913551313 C30.8611529,0.913551313 25.5637613,0.913551313 20.1454748,0.913551313 C17.4528172,0.880531386 14.7161979,1.28777715 12.1993874,2.42146131 C9.69356725,3.53313219 7.40755593,5.23916175 5.58314304,7.385457 C3.78071104,9.54275889 2.49482967,12.1623398 1.83540332,14.9580269 C1.64856586,15.6514454 1.59361366,16.3778838 1.47271883,17.0823089 C1.43974752,17.8087473 1.38479532,18.524179 1.37380488,19.2506174 C1.37380488,20.7145009 1.37380488,22.1893909 1.37380488,23.6752876 C1.37380488,35.5294414 1.37380488,47.8678875 1.38479532,60.6355926 C1.38479532,86.1820094 1.38479532,113.478482 1.39578576,142.205819 C1.39578576,170.933155 1.39578576,201.091355 1.39578576,232.350219 C1.39578576,247.979652 1.39578576,263.88425 1.39578576,280.030994 C1.39578576,288.098863 1.39578576,296.232771 1.39578576,304.421713 C1.39578576,306.468949 1.39578576,308.516184 1.39578576,310.574426 C1.39578576,312.621662 1.50569015,314.646884 2.13214518,316.59506 C3.29713172,320.480404 5.78097095,323.991523 9.15503574,326.302918 C12.5291005,328.636326 16.6285343,329.692964 20.7279681,329.494845 C24.8383923,329.494845 28.937826,329.494845 33.0262694,329.505851 C41.1921656,329.505851 49.3141001,329.516858 57.3700919,329.516858 C73.4820756,329.527864 89.36326,329.538871 104.969683,329.549878 C112.772895,329.560884 120.510164,329.560884 128.15951,329.560884 C131.984183,329.538871 135.819846,329.626924 139.578576,329.516858 C143.326316,329.329745 146.93118,327.854855 149.810675,325.54346 C151.239432,324.354743 152.481352,322.967906 153.503462,321.437982 C154.536564,319.908059 155.261933,318.191023 155.767493,316.42996 C156.317015,314.668897 156.426919,312.830788 156.4489,310.992679 C156.4489,309.143563 156.4489,307.305454 156.4489,305.456338 C156.4489,298.103901 156.45989,290.82851 156.45989,283.652179 C156.492862,226.208513 156.525833,174.477294 156.547814,131.034077 C156.591776,87.5908596 156.624747,52.435644 156.646728,28.1329778 C156.646728,25.0951445 156.657718,22.2334175 156.657718,19.5367901 C156.69069,16.8511694 156.218101,14.3416549 155.327875,12.1953597 C154.44864,10.0380578 153.228701,8.23296846 151.909849,6.78009167 C150.580006,5.33822153 149.18422,4.20453737 147.799424,3.41205912 C145.062805,1.76106277 142.622928,1.2217373 141.018324,1.01261109 C140.216022,0.847511459 139.589567,0.891538028 139.18292,0.847511459 C138.754293,0.825498174 138.545475,0.814491532 138.545475,0.814491532 Z" fill="#414BAD"></path>
                            </g>
                            <g filter="url(#filter-4)">
                                <g transform="translate(121.894830, 27.516606)">
                                    <path d="M18.9916087,0.704425109 C18.9916087,0.90254467 15.1559454,1.05663766 10.4190662,1.05663766 C5.68218695,1.05663766 1.84652372,0.90254467 1.84652372,0.704425109 C1.84652372,0.506305547 5.68218695,0.352212554 10.4190662,0.352212554 C15.1559454,0.352212554 18.9916087,0.506305547 18.9916087,0.704425109 Z" id="Path" fill="#1E0F00" fill-rule="nonzero"></path>
                                    <path d="M17.2331384,3.53313219 C17.2331384,3.73125175 13.3974752,3.88534474 8.66059593,3.88534474 C3.9237167,3.88534474 0.088053467,3.73125175 0.088053467,3.53313219 C0.088053467,3.33501262 3.9237167,3.18091963 8.66059593,3.18091963 C13.3864847,3.18091963 17.2331384,3.34601927 17.2331384,3.53313219 Z" id="Path" fill="#1E0F00" fill-rule="nonzero"></path>
                                    <path d="M18.1123735,6.18573298 C18.1123735,6.38385255 14.2767103,6.53794554 9.53983106,6.53794554 C4.80295182,6.53794554 0.967288592,6.38385255 0.967288592,6.18573298 C0.967288592,5.98761342 4.80295182,5.83352043 9.53983106,5.83352043 C14.2767103,5.84452707 18.1123735,5.99862007 18.1123735,6.18573298 Z" id="Path" fill="#1E0F00" fill-rule="nonzero"></path>
                                </g>
                            </g>
                            <g filter="url(#filter-5)">
                                <g transform="translate(35.169405, 53.932547)">
                                    <path d="M57.447025,1.87112919 C57.447025,1.87112919 57.6668338,1.92616241 58.0844704,2.06924876 C58.5350784,2.22334175 59.150543,2.4434746 59.9418546,2.71864065 C60.7441567,3.04883992 61.7223058,3.47809897 62.8763019,4.01742445 C63.9863362,4.62278978 65.3051889,5.28318831 66.6680033,6.20774627 C69.4266035,8.00182897 72.59185,10.5663766 75.6362016,14.1435354 C77.1199109,15.9596314 78.6365915,17.9738469 79.9334633,20.2962484 C80.6368514,21.4299326 81.1973638,22.6846898 81.8128284,23.9394471 C82.3403694,25.2382308 82.9338532,26.5590279 83.3514898,27.9788848 C85.2418454,33.5812657 85.8133482,40.251291 84.5604381,47.0974225 C83.3185185,53.9325474 80.2302051,60.9767985 75.1746032,66.9754185 C72.6468022,69.9692252 69.6244314,72.6768593 66.1734336,74.8781877 C62.7224357,77.0905228 58.8428107,78.7855457 54.743377,79.9082233 C46.533519,82.1425716 37.323531,81.9334454 28.7949503,78.9396387 C20.2663696,75.8797922 13.1115938,70.0022452 8.30877193,62.9800074 C3.45099787,55.9687762 0.736359417,47.8899007 0.362684489,40.0531714 C-0.0109904391,32.2274487 1.80243201,24.6878987 5.35234382,18.678272 C8.88027476,12.6136121 14.1227142,8.37605481 19.3102014,5.61338758 C24.53066,2.82870708 29.7840899,1.45287679 34.4000743,0.781471605 C39.0380395,0.110066423 43.0825211,0.110066423 46.3686624,0.253152773 C52.940945,0.61637197 56.5018472,1.41985686 56.5018472,1.41985686 C56.5018472,1.41985686 56.271048,1.40885022 55.8314304,1.35381701 C55.3588415,1.29878379 54.7104056,1.2217373 53.8751323,1.11167087 C52.1606238,0.913551313 49.6218324,0.638385255 46.3466815,0.517312189 C43.0715307,0.418252408 39.04903,0.462278978 34.444036,1.16670409 C29.8610229,1.87112919 24.6735357,3.26897277 19.5300102,6.05365328 C14.419456,8.8163205 9.27593057,13.0098512 5.83592314,18.9754514 C2.37393484,24.8970249 0.604474148,32.3155019 0.989139515,40.0201515 C1.37380488,47.7248011 4.06646245,55.6936101 8.85829388,62.5837682 C13.5951731,69.4959396 20.6290541,75.2634202 29.0147591,78.2682336 C37.4004641,81.2180137 46.4675763,81.4271399 54.5455491,79.2368181 C62.6564931,77.0905228 69.7233454,72.467733 74.669043,66.5571661 C79.6696928,60.6686125 82.7250348,53.7344278 83.9779449,46.9983627 C85.2418454,40.251291 84.7143043,33.6803255 82.8679105,28.1329778 C82.4612643,26.7241276 81.878771,25.4253438 81.3732108,24.12656 C80.7577462,22.8828094 80.2192147,21.6390588 79.526817,20.5053746 C78.2629166,18.1939798 76.7792073,16.1907709 75.3174789,14.3856815 C72.3280795,10.8195294 69.2177852,8.2439751 66.4921563,6.42787912 C65.1513228,5.49231452 63.8544509,4.82090934 62.755407,4.19353072 C61.6233918,3.64319861 60.6562332,3.19192627 59.8649216,2.83971372 C59.0846004,2.53152773 58.4691358,2.30038825 58.0295182,2.13528861 C57.6448529,1.98119562 57.447025,1.87112919 57.447025,1.87112919 Z" id="Path" fill="#1E0F00" fill-rule="nonzero"></path>
                                    <g transform="translate(21.980878, 12.107307)" fill="#1E0F00" fill-rule="nonzero" id="Path">
                                        <path d="M46.0609301,45.0171671 C46.0389492,45.0281737 45.9290448,44.7860276 45.7422074,44.3347553 C45.533389,43.8064364 45.2696185,43.1350313 44.9399053,42.3315464 C44.2475077,40.5924969 43.2913395,38.0499625 41.7966397,35.0671624 C40.30194,32.1063757 38.2467279,28.6282767 34.993558,25.6895032 C33.3779634,24.2256198 31.465627,22.9048227 29.3005105,21.9692581 C27.1244036,21.0557068 24.6845261,20.5273879 22.1896965,20.7255075 C17.1560754,21.0557068 12.7598997,23.6532744 9.68257681,26.7021143 C6.59426344,29.8169941 4.7258888,33.4051594 3.52793094,36.4870193 C2.31898264,39.5908924 1.71450849,42.2434932 1.31885269,44.0705959 C1.14300566,44.929114 1.01112039,45.6225324 0.890225564,46.1838712 C0.791311612,46.6681634 0.736359417,46.9213162 0.714378539,46.9213162 C0.692397661,46.9213162 0.703764573,46.6571568 0.758340295,46.1618579 C0.802302051,45.666559 0.901216003,44.9511272 1.05508215,44.0155626 C1.37380488,42.1664467 1.90134596,39.480826 3.0663325,36.310913 C4.23131904,33.1630133 6.0777128,29.4757881 9.23196881,26.2398353 C12.3752344,23.0919356 16.8923048,20.3732949 22.1457347,20.0210824 C24.7504688,19.8229628 27.3222315,20.3732949 29.5752715,21.3308728 C31.8283115,22.310464 33.7956001,23.6862943 35.4331755,25.2052109 C38.7522881,28.2540508 40.7965098,31.8312096 42.2472477,34.8470296 C43.6869953,37.8958695 44.5772208,40.4714238 45.1926854,42.2324866 C45.4674464,43.0579848 45.6872552,43.7403966 45.8631022,44.2797221 C46.0169683,44.7640143 46.082911,45.0171671 46.0609301,45.0171671 Z"></path>
                                        <path d="M23.2447786,1.87112919 C23.2447786,1.84911591 23.4206256,1.86012255 23.7393484,1.90414912 C24.0690615,1.93716905 24.5416504,2.05824211 25.1241437,2.30038825 C26.2781398,2.75166058 27.8827439,3.84131817 29.0037687,5.83352043 C29.5532906,6.82411824 29.9819178,8.0348489 30.03687,9.37765926 C30.0918221,10.7204696 29.762109,12.1953597 28.9488165,13.4941435 C27.410155,16.0586911 24.1020329,18.0839133 20.552121,17.5555945 C17.0131997,16.9502292 14.4853987,14.0554822 13.7270584,11.1607353 C13.3094217,9.69685189 13.3863548,8.19994853 13.7490393,6.91217138 C14.1227142,5.62439423 14.793131,4.53473664 15.5294904,3.67621854 C17.0241901,1.95918233 18.7606795,1.15569744 19.9586373,0.858518101 C20.5631115,0.693418466 21.0466908,0.638385255 21.376404,0.638385255 C21.7061171,0.627378612 21.8709737,0.638385255 21.8709737,0.660398539 C21.8819642,0.726438393 21.1895665,0.748451678 20.0355704,1.12267752 C18.8925647,1.49690336 17.2769702,2.33340817 15.9141558,4.00641781 C15.243739,4.84292262 14.6392648,5.877547 14.3205421,7.07727101 C14.0128098,8.27699503 13.9578576,9.65282532 14.3645039,10.9956357 C15.0898728,13.6702498 17.4747981,16.3338572 20.6730159,16.8731827 C23.8822241,17.3574749 26.9705375,15.5193657 28.410285,13.1639442 C29.1686253,11.9862335 29.487348,10.6434231 29.4653671,9.41067919 C29.4323958,8.1669286 29.0697113,7.0222378 28.5751416,6.07566656 C27.5750116,4.17151744 26.1022928,3.05984657 25.0252297,2.55354102 C23.9261858,2.01421554 23.2337882,1.94817569 23.2447786,1.87112919 Z"></path>
                                    </g>
                                </g>
                            </g>
                            <g filter="url(#filter-6)">
                                <g transform="translate(41.664625, 154.092993)">
                                    <path d="M79.3294135,6.61499204 C79.3181287,6.63700532 78.9994059,6.5269389 78.3949318,6.28479277 C77.7904576,6.05365328 76.8892416,5.73446065 75.7022742,5.42627466 C73.3393298,4.80990269 69.7674371,4.19353072 65.4262137,4.83191598 C63.2610972,5.12909532 60.9311241,5.75647393 58.601151,6.82411824 C57.4361645,7.35243707 56.2491971,8.00182897 54.9303444,8.50813451 C53.6334726,9.00343342 52.116792,9.42168583 50.5781305,9.00343342 C47.2809988,8.14491532 46.786429,3.80829824 43.8190105,3.24695948 C42.3682725,2.9387735 41.0384294,4.00641781 39.9613664,5.16211525 C38.8403416,6.31781269 37.7962499,7.6716297 36.3455119,8.68424079 C35.6201429,9.20155298 34.7518983,9.48772568 33.8616727,9.63081203 C32.9714471,9.68584524 32.0702311,9.57577882 31.2789195,9.24557955 C29.6743154,8.61820094 28.3664532,7.58357656 27.1135431,6.60398539 C25.8716235,5.61338758 24.6736656,4.61178313 23.3877843,3.86333146 C22.1238838,3.10387313 20.6951267,2.64159416 19.3542931,2.89474693 C17.9804883,3.07085321 16.8814444,3.99541116 16.0022092,4.99701561 C15.1119837,6.00962671 14.3646338,7.14331087 13.5293604,8.15592196 C12.7050775,9.16853305 11.7379189,10.1040977 10.6059036,10.6434231 C9.47388842,11.1937552 8.27593057,11.4138881 7.1329249,11.3918748 C4.84691358,11.3478482 2.86863455,10.2912106 1.72562889,8.88236035 C0.582623225,7.47351014 0.143005662,5.91056693 0.0550821498,4.66681634 C-0.0548222408,3.41205912 0.197957858,2.4434746 0.4067762,1.82710263 C0.626584981,1.21073066 0.835403323,0.924557955 0.835403323,0.924557955 C0.945307714,0.94657124 0.0990439061,2.19032182 0.318852687,4.64480306 C0.439747517,5.84452707 0.901345957,7.31941714 2.0113803,8.62920758 C3.11042421,9.92799137 4.97879885,10.8745626 7.12193447,10.8965759 C8.18800705,10.8965759 9.30903184,10.6764431 10.3421331,10.1591309 C11.3862248,9.64181867 12.2654599,8.78330057 13.0567716,7.78169612 C13.8590736,6.79109831 14.595433,5.65741415 15.5186299,4.58976985 C16.4308364,3.54413883 17.6507751,2.47649452 19.2224079,2.26736832 C20.7720598,1.97018898 22.3766639,2.49850781 23.706507,3.29098605 C25.058331,4.0834643 26.2782697,5.0960754 27.5201894,6.07566656 C28.762109,7.04425109 30.0369999,8.04585554 31.4987283,8.6071943 C32.2240973,8.90437364 32.993428,8.99242678 33.7627587,8.94840021 C34.521099,8.8163205 35.2684489,8.58518101 35.9278752,8.11189539 C37.2467279,7.18733744 38.2798292,5.877547 39.4338253,4.67782299 C40.0163186,4.0834643 40.6207927,3.48910562 41.379133,3.05984657 C42.1154924,2.61958087 43.0496798,2.39944803 43.9179244,2.5755543 C44.7971596,2.69662737 45.5664903,3.20293292 46.1270027,3.78628496 C46.709496,4.369637 47.160104,5.0190289 47.5997215,5.64640751 C48.4679662,6.87915145 49.4021535,8.05686218 50.7319967,8.39806809 C52.0398589,8.76128729 53.4466351,8.42008138 54.6995452,7.94679576 C55.9744361,7.47351014 57.1504131,6.83512488 58.3483709,6.30680605 C60.7442866,5.2281551 63.1402024,4.62278978 65.3492806,4.34762372 C69.789418,3.77527832 73.4052724,4.46869678 75.7682168,5.17312189 C76.9551843,5.53634109 77.8454098,5.89956028 78.4388935,6.1637197 C79.0433677,6.43888576 79.3401095,6.59297875 79.3294135,6.61499204 Z" id="Path" fill="#1E0F00" fill-rule="nonzero"></path>
                                    <path d="M58.8429407,18.7002853 C58.8429407,18.8984049 50.1824747,19.0524979 39.4997679,19.0524979 C28.8170612,19.0524979 20.1565952,18.8984049 20.1565952,18.7002853 C20.1565952,18.5021657 28.8170612,18.3480728 39.4997679,18.3480728 C50.1714843,18.3480728 58.8429407,18.5021657 58.8429407,18.7002853 Z" id="Path" fill="#1E0F00" fill-rule="nonzero"></path>
                                </g>
                            </g>
                            <g filter="url(#filter-7)">
                                <g transform="translate(16.485659, 193.716905)">
                                    <g fill="#1E0F00" fill-rule="nonzero" id="Path">
                                        <path d="M3.12128469,26.6470811 C2.92345679,26.6470811 2.85751416,21.1547665 2.96741855,14.3856815 C3.07732294,7.61659649 3.3191126,2.12428197 3.5169405,2.12428197 C3.7147684,2.12428197 3.78071104,7.61659649 3.67080665,14.3966882 C3.56090226,21.1657732 3.3191126,26.6470811 3.12128469,26.6470811 Z"></path>
                                        <path d="M119.762814,27.7367387 C119.762814,27.9348582 93.1219902,27.6596922 60.2605774,27.14238 C27.3991646,26.6140611 0.769330734,26.0417157 0.769330734,25.8435962 C0.769330734,25.6454766 27.410155,25.9206427 60.2715678,26.4379549 C93.1329806,26.9662737 119.762814,27.5496257 119.762814,27.7367387 Z"></path>
                                        <path d="M119.268245,0.352212554 C119.268245,0.550332116 93.5066555,1.10066423 61.7332962,1.58495649 C29.9489464,2.06924876 4.18735728,2.31139489 4.18735728,2.11327533 C4.18735728,1.91515576 29.937956,1.36482365 61.7223058,0.880531386 C93.5066555,0.396239124 119.268245,0.154092993 119.268245,0.352212554 Z"></path>
                                        <path d="M118.784665,27.14238 C118.586837,27.14238 118.432971,21.0997333 118.432971,13.6592431 C118.432971,6.20774627 118.586837,0.176106277 118.784665,0.176106277 C118.982493,0.176106277 119.136359,6.21875291 119.136359,13.6592431 C119.136359,21.0997333 118.982493,27.14238 118.784665,27.14238 Z"></path>
                                    </g>
                                    <path d="M17.0241901,11.0506689 C17.0241901,11.017649 17.320932,10.9626158 17.8374826,11.1167087 C18.3430428,11.2597951 19.0574213,11.6780475 19.6289242,12.4595191 C20.1784461,13.2299841 20.6290541,14.4297081 20.2773601,15.7394985 C19.9476469,17.0713022 18.5958229,18.1059266 17.1011232,18.2820329 C15.6174139,18.4801525 14.0457811,17.8197539 13.3973452,16.6090233 C12.7269284,15.4313125 12.8698041,14.154542 13.2105078,13.263004 C13.5731922,12.3604593 14.1556855,11.7881139 14.6062935,11.5129479 C15.067892,11.2377818 15.3756242,11.2157685 15.3756242,11.2487885 C15.4635478,11.3478482 14.2106377,11.7330807 13.6721062,13.4281036 C13.4193261,14.2315885 13.3753643,15.3432594 13.9468672,16.2678174 C14.4853987,17.2143886 15.7492992,17.7427074 17.0131997,17.5776078 C18.2771002,17.4235148 19.3651536,16.5980166 19.650905,15.5523856 C19.9696278,14.5067546 19.650905,13.4501169 19.2112875,12.7236785 C18.2771002,11.2267752 16.9692379,11.171742 17.0241901,11.0506689 Z" id="Path" fill="#1E0F00" fill-rule="nonzero"></path>
                                </g>
                            </g>
                            <g filter="url(#filter-8)">
                                <g transform="translate(19.782790, 234.441481)">
                                    <path d="M3.78071104,23.6973715 C3.59387357,23.7193142 2.7586002,18.5902189 1.92332684,12.2283796 C1.08805347,5.86654036 0.560512392,0.693418466 0.758340295,0.660327946 C0.945177759,0.638385255 1.78045113,5.76748058 2.6157245,12.1293198 C3.45099787,18.4911591 3.9675485,23.664281 3.78071104,23.6973715 Z" id="Path" fill="#1E0F00" fill-rule="nonzero"></path>
                                    <path d="M110.662731,1.27677051 C110.662731,1.47489007 86.3298988,1.62898306 56.3260002,1.62898306 C26.3111111,1.62898306 1.98926947,1.47489007 1.98926947,1.27677051 C1.98926947,1.07865095 26.3111111,0.924557955 56.3260002,0.924557955 C86.3298988,0.935564597 110.662731,1.08965759 110.662731,1.27677051 Z" id="Path" fill="#1E0F00" fill-rule="nonzero"></path>
                                    <path d="M114.509385,22.2114042 C114.311557,22.2114042 114.157691,17.8197539 114.157691,12.4044859 C114.157691,6.98921787 114.311557,2.59756759 114.509385,2.59756759 C114.707212,2.59756759 114.861079,6.98921787 114.861079,12.4044859 C114.861079,17.8197539 114.707212,22.2114042 114.509385,22.2114042 Z" id="Path" fill="#1E0F00" fill-rule="nonzero"></path>
                                    <path d="M115.487534,23.5322013 C115.487534,23.7303208 90.8359788,23.8844138 60.425434,23.8844138 C30.0148891,23.8844138 5.36333426,23.7303208 5.36333426,23.5322013 C5.36333426,23.3340817 30.0148891,23.1799887 60.425434,23.1799887 C90.8359788,23.1799887 115.487534,23.3340817 115.487534,23.5322013 Z" id="Path" fill="#1E0F00" fill-rule="nonzero"></path>
                                    <path d="M12.2543396,11.3918748 C12.2323587,11.3698615 12.441177,11.1497287 12.9577277,11.017649 C13.4632878,10.8855693 14.2985612,10.9516091 15.0898728,11.4909346 C15.4745382,11.7661006 15.870194,12.1623398 16.1009932,12.7016652 C16.3317924,13.2409907 16.3757542,13.9123959 16.1779263,14.5397745 C15.8042514,15.7725184 14.5623318,16.9172092 12.9797085,16.895196 C11.4190662,16.8291561 10.2430892,15.6734587 9.81446208,14.4957479 C9.3418732,13.263004 9.70455769,12.0302601 10.2211083,11.2708017 C10.7486494,10.4783235 11.3970853,10.0490644 11.8696742,9.85094488 C12.3422631,9.64181867 12.6280145,9.63081203 12.6390049,9.6748386 C12.7049476,9.78490502 11.5069897,10.0600711 10.6497354,11.5349612 C10.2430892,12.2503929 10.0012995,13.2850173 10.4189362,14.2756151 C10.8036016,15.2552063 11.814722,16.1687576 13.0016894,16.2127841 C14.1886568,16.2568107 15.243739,15.3322528 15.5624617,14.3636682 C15.9251462,13.3620638 15.4415669,12.3934793 14.793131,11.909187 C14.1556855,11.4028814 13.441307,11.2708017 12.990699,11.3038217 C12.5291005,11.3258349 12.2763204,11.446908 12.2543396,11.3918748 Z" id="Path" fill="#1E0F00" fill-rule="nonzero"></path>
                                </g>
                            </g>
                            <g filter="url(#filter-9)">
                                <g transform="translate(32.971317, 277.266722)">
                                    <path d="M16.0570683,27.5952568 C16.0570683,27.61727 15.9141558,27.6612966 15.6393948,27.7053232 C15.3646338,27.7383431 14.9469971,27.8594162 14.4084656,27.8594162 C13.3314026,27.9364627 11.7377889,27.804383 9.89139515,27.1770043 C8.04500139,26.5606324 5.98978929,25.3499017 4.20933816,23.4677659 C2.42888703,21.6076433 1.00012995,18.9660492 0.692397661,15.9502292 C0.450608001,12.9234025 1.37380488,10.0726822 2.78058108,7.90437364 C4.18735728,5.72505846 5.98978929,4.16211525 7.69330734,3.21554401 C9.3968254,2.25796613 10.9354869,1.83971372 12.0125499,1.71864065 C12.540091,1.61958087 12.9687181,1.66360744 13.2544695,1.64159416 C13.5402209,1.64159416 13.6830966,1.6526008 13.6830966,1.67461408 C13.7270584,1.861727 11.1992574,1.66360744 7.94608744,3.64480306 C6.34148334,4.61338758 4.63796528,6.15431751 3.33010304,8.25658619 C2.01125035,10.3368416 1.16498654,13.0554822 1.39578576,15.8841893 C1.69252762,18.7128964 3.02237074,21.2224108 4.69291748,23.0275002 C6.37445466,24.8546028 8.31976237,26.0543268 10.0782326,26.7147254 C13.617154,28.0575357 16.0680219,27.4081438 16.0570683,27.5952568 Z" id="Path" fill="#FFBE56" fill-rule="nonzero"></path>
                                    <path d="M90.0556577,26.9568715 C90.0556577,27.1549911 74.8119187,27.3090841 56.0182679,27.3090841 C37.2136267,27.3090841 21.9808781,27.1549911 21.9808781,26.9568715 C21.9808781,26.7587519 37.2136267,26.6046589 56.0182679,26.6046589 C74.8229091,26.6046589 90.0556577,26.7697586 90.0556577,26.9568715 Z" id="Path" fill="#FFBE56" fill-rule="nonzero"></path>
                                    <path d="M90.7700362,25.2618486 C90.7260744,25.1627888 92.3196881,24.9316493 94.5397568,23.3136729 C95.6388007,22.510188 96.8587394,21.310464 97.847879,19.648461 C98.8370185,17.9974646 99.5074353,15.8181495 99.4085213,13.3856815 C99.3096074,10.9752268 98.474334,8.30061276 96.6169498,6.13230422 C94.770556,3.96399569 92.0009654,2.42306576 88.8686902,1.67461408 C85.7364151,0.893142479 82.3073981,0.739049487 78.7684767,0.761062772 C75.2185649,0.805089341 71.5367678,0.84911591 67.7670472,0.893142479 C52.7211362,1.02522219 39.0929917,1.14629525 29.1576348,1.23434839 C24.2668894,1.24535503 20.2883505,1.25636168 17.4528172,1.25636168 C16.1229741,1.24535503 15.0569015,1.23434839 14.2655899,1.22334175 C13.5402209,1.21233511 13.1555556,1.19032182 13.1555556,1.16830854 C13.1555556,1.14629525 13.5402209,1.11327533 14.2655899,1.0802554 C15.0569015,1.05824211 16.1119837,1.02522219 17.4418268,0.981195618 C20.2773601,0.926162406 24.255899,0.838109268 29.1466444,0.739049487 C39.0929917,0.595963137 52.7101457,0.408850217 67.7560568,0.188717371 C71.5257774,0.144690801 75.2075745,0.111670875 78.7574863,0.0786509476 C82.3183886,0.0676443052 85.8023577,0.23274394 89.011566,1.05824211 C92.2207742,1.85072036 95.1222501,3.46869678 97.0455769,5.76908503 C98.9689037,8.06947327 99.8041771,10.8651604 99.8811102,13.3746749 C99.9470528,15.9062026 99.2106934,18.1735709 98.1556113,19.8575872 C97.1005291,21.5526101 95.8256382,22.7523341 94.6716421,23.5448124 C93.517646,24.3372906 92.5065256,24.7665497 91.8141279,24.9976892 C91.4734243,25.1187622 91.1986633,25.1848021 91.0118259,25.2288287 C90.8689502,25.2618486 90.7700362,25.2728552 90.7700362,25.2618486 Z" id="Path" fill="#FFBE56" fill-rule="nonzero"></path>
                                    <path d="M86.2859371,15.8841893 C86.2859371,15.9062026 86.0111761,15.9502292 85.483635,15.9942557 C84.8791609,16.0382823 84.1208206,16.0933155 83.1866332,16.170362 C81.0984498,16.2914351 78.2409357,16.4675414 74.7349856,16.6766676 C67.5142671,17.0398868 57.6998051,17.5351857 46.8522417,18.0855178 C43.730957,18.2396108 40.5327393,18.3716905 37.6642347,17.3480728 C36.246468,16.8417672 34.9825675,16.1593554 33.6856957,15.7300963 C32.3998144,15.278824 31.0699712,15.1577509 29.8939942,15.58701 C27.5420403,16.4675414 25.8605031,18.6358499 23.4865683,19.186182 C21.1456048,19.9896669 18.5078994,17.7773318 19.3102014,15.708083 L19.5300102,16.0052624 C18.4859185,16.0713022 17.6506451,16.7537141 17.2110276,17.4801525 C16.7494291,18.2175975 16.6615056,19.032089 16.7933909,19.6704743 L16.5296203,19.7034942 C16.5516012,18.7789363 16.5625917,18.0414912 16.5735821,17.4471325 C16.595563,16.9298203 16.6175439,16.6656609 16.6395247,16.6656609 C16.6615056,16.6656609 16.6834865,16.9298203 16.7164578,17.4471325 C16.7384387,18.0304846 16.77141,18.7789363 16.8043813,19.7034942 L16.8483431,20.8922116 L16.5406108,19.7365141 C16.3537733,19.032089 16.419716,18.1295444 16.9142857,17.2930395 C17.3868746,16.478548 18.2880906,15.6860698 19.5080293,15.5649967 L19.8487329,15.5319768 L19.7168477,15.862176 C19.4201058,16.6216344 19.8047712,17.557199 20.5411306,18.1515576 C21.27749,18.7789363 22.3215817,18.9550425 23.3656734,18.6578632 C24.4097652,18.3826971 25.3879142,17.7553185 26.3660633,17.0288801 C27.3552028,16.3134484 28.3773137,15.4769436 29.6961663,14.9926513 C31.0260095,14.4863457 32.5536805,14.6404387 33.9055045,15.1027177 C35.2683189,15.5539901 36.5542003,16.2364019 37.9060243,16.7096875 C40.6206628,17.678272 43.7089761,17.5461923 46.8412513,17.3920993 C57.6888146,16.9188137 67.5142671,16.5005613 74.7349856,16.1813687 C78.2409357,16.0602956 81.0984498,15.9612358 83.1976237,15.895196 C84.131811,15.8731827 84.9011417,15.862176 85.4946255,15.8511694 C86.0111761,15.8511694 86.2859371,15.862176 86.2859371,15.8841893 Z" id="Path" fill="#1E0F00" fill-rule="nonzero"></path>
                                </g>
                            </g>
                            <path d="M128.258424,315.626475 C128.258424,315.824595 107.717293,315.978688 82.3843312,315.978688 C57.0403787,315.978688 36.4992481,315.824595 36.4992481,315.626475 C36.4992481,315.428356 57.0403787,315.274263 82.3843312,315.274263 C107.717293,315.274263 128.258424,315.439362 128.258424,315.626475 Z" id="Path" fill="#74EBD5" fill-rule="nonzero"></path>
                        </g>
                        <g filter="url(#filter-10)">
                            <g transform="translate(8.792351, 20.912620)">
                                <path d="M18.3760141,6.55995882 C18.4419567,6.55995882 18.5628516,7.47351014 18.7057273,9.05846663 C18.848603,10.6434231 19.0354405,12.8997848 19.2222779,15.5854055 L19.2442588,15.8825849 L18.9475169,15.9156048 C16.7824004,16.1687576 14.342523,16.4549303 11.7817507,16.7521096 C10.0232804,16.9392225 8.33075281,17.1263355 6.75912002,17.2914351 L6.40742597,17.324455 L6.39643553,16.9722425 C6.2755407,13.7032697 6.19860763,10.8965759 6.17662675,8.90437364 C6.15464587,6.91217138 6.16563631,5.73446065 6.25355983,5.73446065 C6.3304929,5.73446065 6.45138773,6.90116474 6.59426344,8.88236035 C6.73713914,10.863556 6.90199573,13.6702498 7.06685232,16.9392225 L6.69317739,16.6200299 C8.26481017,16.4439236 9.95733779,16.2458041 11.715808,16.0366779 C14.2875708,15.7615118 16.7274483,15.508359 18.8925647,15.2662129 L18.6178038,15.5964122 C18.4859185,12.9107914 18.397995,10.6434231 18.3540332,9.04745999 C18.299081,7.48451678 18.3100715,6.55995882 18.3760141,6.55995882 Z" id="Path" fill="#1E0F00" fill-rule="nonzero"></path>
                                <path d="M12.1444352,0.275166058 C12.2543396,0.440265693 9.6496055,2.42146131 6.51733036,4.98600897 C3.37406479,7.52854335 0.901216003,9.68584524 0.769330734,9.54275889 C0.637445466,9.41067919 2.91246635,7.00022452 6.0777128,4.43567686 C9.23196881,1.87112919 12.0455212,0.121073066 12.1444352,0.275166058 Z" id="Path" fill="#1E0F00" fill-rule="nonzero"></path>
                                <path d="M23.002989,9.26759284 C22.8820941,9.42168583 20.3542931,7.52854335 17.3539033,5.04104218 C14.3535134,2.56454766 12.0345308,0.429259051 12.1554256,0.275166058 C12.2763204,0.121073066 14.8041214,2.01421554 17.8045113,4.50171671 C20.7939107,6.98921787 23.1238838,9.11349984 23.002989,9.26759284 Z" id="Path" fill="#1E0F00" fill-rule="nonzero"></path>
                            </g>
                        </g>
                    </g>
                    <g id="Group" transform="translate(143.974752, 0.000000)">
                        <polygon id="Rectangle" fill="#74EBD5" fill-rule="nonzero" transform="translate(14.042317, 14.147548) rotate(5.313219) translate(-14.042317, -14.147548) " points="1.21461206 1.30111752 26.8665345 1.30460447 26.8700215 26.9939784 1.21809902 26.9904914"></polygon>
                        <g filter="url(#filter-11)">
                            <g transform="translate(10.891395, 6.603985)">
                                <path d="M2.28614128,12.9879231 C2.18722733,12.9768313 2.17623689,11.9201936 2.24217952,10.2031574 C2.2641604,9.74087845 2.28614128,9.27859948 2.30812216,8.79430722 C2.33010304,8.5301478 2.37406479,8.22196181 2.53892138,7.92478247 C2.70377796,7.62760313 2.9675485,7.39646364 3.23131904,7.23136401 C3.76985055,6.90116474 4.34135338,6.74707174 4.76998051,6.41687247 C5.20959807,6.0866732 5.583273,5.62439423 5.7811009,5.07406211 C6.22071846,3.96239124 5.74812958,2.78468051 4.95681797,2.12428197 C4.1764968,1.44187014 3.18735728,1.24375058 2.39604567,1.34281036 C0.75847025,1.56294321 0.0990439061,2.56454766 0.0331012717,2.46548788 C0.000129954517,2.4434746 0.0990439061,2.17931518 0.450737956,1.81609598 C0.802432006,1.46388343 1.42888703,1.02361774 2.33010304,0.847511459 C3.20933816,0.660398539 4.41828646,0.825498174 5.38544509,1.61797642 C5.85803397,2.01421554 6.27567066,2.54253438 6.49547944,3.20293292 C6.72627866,3.86333146 6.70429778,4.62278978 6.44052724,5.3052016 C6.18774715,5.98761342 5.72614871,6.55995882 5.17662675,6.95619795 C4.60512392,7.36344371 4.00064977,7.51753671 3.56103221,7.77068948 C3.11042421,8.01283561 2.93457718,8.34303488 2.89061543,8.83833378 C2.83566323,9.3116194 2.79170148,9.77389838 2.74773972,10.2251707 C2.53892138,11.9422069 2.37406479,12.9988446 2.28614128,12.9879231 Z" id="Path" fill="#1E0F00" fill-rule="nonzero"></path>
                                <path d="M1.91246635,14.4407147 C1.93444723,14.5287679 1.90147591,14.6498409 1.94543767,14.7378941 C2.02237074,14.8479605 1.98939942,14.7268874 2.0663325,14.7489007 C2.11029425,14.7378941 2.11029425,14.7378941 2.11029425,14.770914 C2.12128469,14.8039339 2.15425601,14.7599074 2.15425601,14.7048741 C2.15425601,14.6058144 2.07732294,14.5067546 2.07732294,14.4076948 C2.05534206,14.3196417 2.2641604,14.187562 2.52793094,14.3746749 C2.64882577,14.462728 2.78071104,14.6498409 2.73674928,14.925007 C2.68179709,15.2111797 2.41802655,15.3982926 2.18722733,15.4313125 C1.94543767,15.4753391 1.65968625,15.3982926 1.50582011,15.1671531 C1.35195396,14.9470203 1.39591572,14.7048741 1.47284879,14.5727944 C1.65968625,14.2976284 1.90147591,14.3526616 1.91246635,14.4407147 Z" id="Path" fill="#1E0F00" fill-rule="nonzero"></path>
                            </g>
                        </g>
                    </g>
                    <polygon id="Rectangle" fill="#74EBD5" fill-rule="nonzero" transform="translate(39.978702, 27.506844) rotate(5.313219) translate(-39.978702, -27.506844) " points="21.5340679 9.03548678 58.4183232 9.04050056 58.423337 45.9782012 21.5390817 45.9731875"></polygon>
                    <path d="M68.2835979,32.2384554 C68.2835979,32.4365749 65.8876822,32.5906679 62.9422445,32.5906679 C59.9858164,32.5906679 57.6008911,32.4365749 57.6008911,32.2384554 C57.6008911,32.0403358 59.9968068,31.8862428 62.9422445,31.8862428 C65.8986726,31.8972494 68.2835979,32.0513424 68.2835979,32.2384554 Z" id="Path" fill="#414BAD" fill-rule="nonzero"></path>
                    <path d="M64.3050589,29.7399476 C64.4259538,29.5748479 66.0635292,30.741552 68.437464,31.4349705 L69.0419382,31.6110767 L68.5693493,32.0293292 C68.5143971,32.0733557 68.4594449,32.1283889 68.3935023,32.1834221 C66.4262137,33.9334783 64.7226956,35.2432687 64.6018008,35.0891757 C64.4699155,34.9460894 65.9646152,33.4051594 67.9319038,31.6551033 C67.986856,31.6000701 68.0527987,31.5560435 68.1077509,31.5010103 L68.2396361,32.095369 C65.7228256,31.3469173 64.1841641,29.8610206 64.3050589,29.7399476 Z" id="Path" fill="#414BAD" fill-rule="nonzero"></path>
                    <path d="M64.3490207,86.071943 C64.3490207,86.1159695 63.5137473,86.1489895 61.9970667,86.1820094 C60.3704818,86.2150293 58.2163557,86.2700625 55.6006312,86.3361024 C54.2488072,86.3581157 52.7870788,86.5342219 51.1714843,86.5232153 C49.5668802,86.4901954 47.8194004,86.3250957 46.082911,85.6867105 C44.357412,85.0703385 42.6429036,83.8816211 41.5988118,82.131565 C40.5217488,80.4035222 40.0711408,78.3342734 39.7963798,76.2760313 C38.950116,68.0320562 38.323661,60.591566 37.8510721,55.1873046 C37.6422538,52.5787304 37.4773972,50.4214285 37.3565024,48.7924454 C37.2575884,47.2845354 37.2246171,46.4480306 37.2685789,46.437024 C37.3125406,46.437024 37.4444259,47.2625221 37.6312633,48.7704321 C37.8181008,50.3884086 38.0598905,52.5457104 38.3566323,55.143278 C38.9171447,60.6355926 39.6644946,68.0210496 40.4997679,76.1879782 C40.7635385,78.2021937 41.203156,80.1833893 42.1922956,81.7793525 C43.1484638,83.3973289 44.6871252,84.4869865 46.3137102,85.0923518 C47.9402952,85.6977171 49.6218324,85.8958367 51.1934651,85.9508699 C52.7541075,85.9948965 54.2488072,85.8518101 55.6006312,85.8518101 C58.3152697,85.8187902 60.502367,85.8738234 62.0080572,85.9288566 C63.5137473,85.9728832 64.3490207,86.0279164 64.3490207,86.071943 Z" id="Path" fill="#414BAD" fill-rule="nonzero"></path>
                    <path d="M61.9421145,89.5830619 C61.7992388,89.4619888 63.2499768,87.6458928 65.5030168,85.91785 C65.5909403,85.8518101 65.6678734,85.7967769 65.7448065,85.730737 L65.7997587,86.3250957 C63.3598812,85.0813451 61.9201337,83.4193422 62.0520189,83.2982691 C62.1839042,83.1551827 63.7775179,84.531013 66.1184814,85.6977171 L66.6130511,85.9508699 L66.1624431,86.2920758 C66.0855101,86.347109 66.008577,86.4131489 65.9206535,86.4791887 C63.7225657,88.163205 62.0849903,89.7261482 61.9421145,89.5830619 Z" id="Path" fill="#414BAD" fill-rule="nonzero"></path>
                    <polygon id="Rectangle" fill="#74EBD5" fill-rule="nonzero" transform="translate(19.904980, 238.634384) rotate(5.313219) translate(-19.904980, -238.634384) " points="2.13085941 220.834512 37.6742687 220.839344 37.6791002 256.434255 2.13569092 256.429424"></polygon>
                    <rect id="Rectangle" fill="#6D7AFD" fill-rule="nonzero" x="7.16576627" y="148.424572" width="35.5430799" height="35.5954813"></rect>
                    <path d="M44.5112782,232.824095 C44.4783069,232.768472 45.456456,232.130087 47.1379931,230.842309 C48.8195303,229.576546 51.1385129,227.56233 53.6443331,224.74463 C56.1171818,221.904916 58.7329063,218.206684 60.8210898,213.682954 C62.9092732,209.170231 64.4589251,203.832009 64.8326,198.108555 C65.1952845,192.385101 64.2830781,186.84876 62.2608373,182.32503 C60.2825582,177.757274 57.1283022,174.389241 54.0619697,172.242946 C50.9846468,170.074637 48.0062378,169.161086 45.9620162,168.764847 C43.8958136,168.379614 42.7088462,168.434647 42.7088462,168.357601 C42.7088462,168.335588 43.005588,168.313574 43.5661004,168.313574 C44.1266128,168.291561 44.9508958,168.346594 46.0059779,168.500687 C48.1051518,168.808873 51.1604938,169.678398 54.3477212,171.8357 C57.5019772,173.959982 60.7991089,177.405061 62.854321,182.060871 C64.9644853,186.68366 65.909663,192.330068 65.5359881,198.152582 C65.1623132,203.986102 63.5686995,209.40137 61.4145735,213.95812 C59.2604474,218.525877 56.5677898,222.246122 54.0289984,225.074829 C51.4572357,227.881523 49.06132,229.862718 47.3138402,231.062442 C46.4675763,231.711834 45.7422074,232.108073 45.2696185,232.405253 C44.7860392,232.691425 44.5222686,232.834512 44.5112782,232.824095 Z" id="Path" fill="#414BAD" fill-rule="nonzero"></path>
                    <path d="M52.2485712,234.705641 C52.2595377,234.90376 48.4788267,235.26698 43.7968997,235.531139 L43.7749188,235.531139 L43.3572821,235.553152 L43.4122343,235.1349 C43.9837371,230.47909 44.6101921,226.736832 44.7970296,226.758845 C44.9838671,226.780858 44.6761348,230.567143 44.104632,235.222953 L43.7419475,234.826714 L43.7639283,234.826714 C48.4348649,234.573561 52.2375569,234.507521 52.2485712,234.705641 Z" id="Path" fill="#414BAD" fill-rule="nonzero"></path>
                    <path d="M108.497614,137.836182 C108.497614,138.034301 94.8035273,138.188394 77.9222129,138.188394 C61.0299081,138.188394 47.3468115,138.034301 47.3468115,137.836182 C47.3468115,137.638062 61.0299081,137.483969 77.9222129,137.483969 C94.8035273,137.483969 108.497614,137.649069 108.497614,137.836182 Z" id="Path" fill="#414BAD" fill-rule="nonzero"></path>
                    <path d="M105.519205,142.238839 C105.37633,142.117766 106.980934,139.949457 109.113079,137.395916 C109.168031,137.329876 109.222983,137.263836 109.277936,137.197797 L109.365859,137.715109 C106.62924,136.031092 104.541056,134.567209 104.63997,134.413116 C104.738884,134.248016 106.991924,135.458747 109.739534,137.12075 L110.080238,137.329876 L109.816467,137.638062 C109.761515,137.704102 109.706563,137.770142 109.651611,137.836182 C107.519465,140.400729 105.673072,142.359912 105.519205,142.238839 Z" id="Path" fill="#414BAD" fill-rule="nonzero"></path>
                    <g filter="url(#filter-12)" id="Group">
                        <g transform="translate(223.105913, 292.776686)">
                            <path d="M25.5417804,6.05365328 C25.5417804,6.25177284 19.8377425,6.40586583 12.7928711,6.40586583 C5.74799963,6.40586583 0.0439617562,6.25177284 0.0439617562,6.05365328 C0.0439617562,5.85553372 5.74799963,5.70144072 12.7928711,5.70144072 C19.8377425,5.70144072 25.5417804,5.85553372 25.5417804,6.05365328 Z" id="Path" fill="#1E0F00" fill-rule="nonzero"></path>
                            <path d="M23.9701476,12.5145523 C23.8932145,12.492539 23.9701476,11.7881139 24.3108512,10.6654364 C24.6625453,9.55376554 25.2780098,8.01283561 26.3990346,6.5269389 L26.3660633,6.89015809 C26.2671494,6.70304517 26.157245,6.49391897 26.058331,6.29579941 C24.2668894,2.83971372 22.0248399,0.583352043 22.1567251,0.451272335 C22.27762,0.2861727 24.8274018,2.41045467 26.6737956,5.96560014 C26.7837,6.17472634 26.8936044,6.38385255 26.9925183,6.57096547 L27.0914323,6.75807839 L26.959547,6.93418466 C24.8383923,9.77389838 24.1789659,12.5915988 23.9701476,12.5145523 Z" id="Path" fill="#1E0F00" fill-rule="nonzero"></path>
                        </g>
                    </g>
                    <g id="Group" transform="translate(253.879142, 282.870708)">
                        <polygon id="Rectangle" fill="#74EBD5" fill-rule="nonzero" transform="translate(18.600661, 19.243058) rotate(-3.749667) translate(-18.600661, -19.243058) " points="1.17068079 1.78759837 36.0339951 1.78424422 36.030641 36.6985177 1.16732664 36.7018719"></polygon>
                        <g transform="translate(8.792351, 9.905978)">
                            <g>
                                <path d="M16.9912188,9.69685189 C19.1013831,7.71565627 19.2222779,4.40265693 17.2439989,2.27837496 C15.2657199,0.165099635 11.9575977,0.0440265693 9.83644296,2.02522219 C8.02302051,3.7202451 7.6823169,6.38385255 8.85829388,8.4531013 L8.85829388,8.4531013 L7.79222129,9.44369911 L8.04500139,11.2157685 L6.38544509,10.7534895 L5.05560197,11.9972401 L5.30838207,13.7693095 L3.65981621,13.3070306 L2.51681054,14.3746749 L2.67067669,15.4533258 L1.6595563,15.1671531 L0.989139515,15.7945317 L0.890225564,17.4345214 L3.33010304,18.0508934 L11.2652,10.6434231 C13.1445651,11.4909346 15.4085956,11.1827486 16.9912188,9.69685189 Z M16.2218881,3.24695948 C16.7933909,3.85232481 16.7604196,4.80990269 16.144955,5.37124145 C15.5404808,5.94358685 14.5843126,5.91056693 14.0238002,5.29419496 C13.4632878,4.67782299 13.4852687,3.73125175 14.1007333,3.16991299 C14.7052075,2.60857423 15.6503852,2.64159416 16.2218881,3.24695948 Z" id="Shape"></path>
                                <path d="M16.2218881,3.24695948 C16.1559454,3.33501262 15.7383087,2.90575357 15.0019493,3.02682664 C14.6502553,3.08185985 14.2655899,3.33501262 14.0787524,3.74225839 C13.8809245,4.13849751 13.9358767,4.69983627 14.2875708,5.06305547 C14.6282744,5.43728131 15.1777963,5.52533445 15.595433,5.36023481 C16.0130697,5.20614182 16.2878307,4.83191598 16.3647638,4.49071007 C16.5296203,3.75326503 16.1229741,3.3019927 16.2218881,3.24695948 C16.2328785,3.16991299 16.9032953,3.52212554 16.8483431,4.56775656 C16.8043813,5.06305547 16.4746682,5.6684208 15.8372227,5.9545935 C15.2217581,6.25177284 14.3205421,6.14170642 13.7710201,5.53634109 C13.2105078,4.9419824 13.1555556,4.03943773 13.4962592,3.44507905 C13.8259723,2.82870708 14.4524274,2.54253438 14.9469971,2.53152773 C15.9910888,2.54253438 16.2988211,3.23595284 16.2218881,3.24695948 Z" id="Path" fill="#FFFFFF" fill-rule="nonzero"></path>
                                <path d="M16.9912188,9.69685189 C17.0022092,9.70785853 16.9142857,9.81792495 16.7164578,10.0160445 C16.5076395,10.1921508 16.1889167,10.4563102 15.7163279,10.709463 C14.793131,11.1937552 13.0896129,11.6450276 11.188267,10.8415427 L11.4190662,10.8085228 C9.33088276,12.7897184 6.64921563,15.354266 3.56090226,18.2930395 L3.44000743,18.4141126 L3.27515084,18.370086 C2.50582011,18.1829731 1.68153718,17.9738469 0.82428293,17.7647207 L0.560512392,17.6986809 L0.571502831,17.4235148 C0.604474148,16.9062026 0.637445466,16.3558705 0.659426344,15.7835251 L0.670416783,15.6514454 L0.769330734,15.5633922 C0.978149076,15.3652727 1.2089483,15.1561465 1.42875708,14.9360136 L1.57163279,14.8039339 L1.75847025,14.8589671 C2.07719298,14.9470203 2.41789659,15.0460801 2.76959064,15.1341332 L2.34096352,15.508359 C2.29700176,15.1671531 2.24204957,14.8039339 2.18709737,14.4297081 L2.16511649,14.2536018 L2.29700176,14.1325287 C2.65968625,13.7913228 3.04435162,13.4281036 3.44000743,13.0648844 L3.58288313,12.9328047 L3.7697206,12.9878379 C4.29726167,13.1309243 4.85777406,13.2960239 5.4292769,13.4501169 L4.98965933,13.8353494 C4.91272626,13.2740106 4.82480275,12.6686453 4.73687924,12.06328 L4.71489836,11.8871737 L4.84678363,11.7661006 C4.95668802,11.6670409 5.07758285,11.5459678 5.19847768,11.4359014 C5.52819085,11.1277154 5.85790402,10.8195294 6.17662675,10.5223501 L6.31950246,10.3902704 L6.50633992,10.4453036 C7.06685232,10.5993966 7.61637427,10.7534895 8.15490578,10.9075825 L7.71528822,11.292815 C7.62736471,10.6984563 7.55043163,10.1040977 7.46250812,9.52074561 L7.44052724,9.34463933 L7.57241251,9.22356627 C7.935097,8.893367 8.28679105,8.56316773 8.6384851,8.23296846 L8.57254247,8.65122087 C7.6823169,7.08827766 7.64934559,5.17312189 8.33075281,3.66521189 C9.00116959,2.13528861 10.3310127,1.04563102 11.7597698,0.61637197 C13.1885269,0.165099635 14.6832266,0.363219197 15.8482131,0.94657124 C17.0241901,1.52992328 17.848473,2.49850781 18.3320524,3.46709233 C19.2772301,5.49231452 18.7606795,7.385457 18.1891766,8.36504816 C17.5847025,9.36665262 16.9912188,9.69685189 16.9912188,9.69685189 C16.9362666,9.65282532 17.4528172,9.24557955 17.9583774,8.23296846 C18.4419567,7.25337729 18.848603,5.47030123 17.9254061,3.64319861 C17.4638077,2.76266722 16.6834865,1.89314248 15.6174139,1.39784357 C14.5623318,0.891538028 13.2105078,0.737445036 11.9356168,1.15569744 C10.6717163,1.56294321 9.49573935,2.54253438 8.92423652,3.89635138 C8.34174325,5.23916175 8.385705,6.92317802 9.16602618,8.28800167 L9.29791145,8.51914116 L9.10008354,8.70625408 C8.74838949,9.03645335 8.39669544,9.36665262 8.03401095,9.70785853 L8.14391534,9.41067919 C8.23183886,9.99403123 8.31976237,10.5883899 8.39669544,11.1827486 L8.47362852,11.7110674 L7.95707788,11.5679811 C7.40755593,11.4138881 6.85803397,11.2597951 6.29752158,11.1057021 L6.62723475,11.0286556 C6.30851202,11.3368416 5.97879885,11.6340209 5.64908568,11.9422069 C5.52819085,12.0522733 5.40729602,12.1733464 5.29739163,12.2724062 L5.40729602,11.9642202 C5.49521953,12.5695855 5.58314304,13.1749509 5.66007612,13.7362896 L5.73700919,14.2646084 L5.22045855,14.1215221 C4.64895572,13.9564225 4.08844333,13.8023295 3.57189269,13.6592431 L3.90160587,13.5821966 C3.50595006,13.9454158 3.11029425,14.3196417 2.7586002,14.6498409 L2.86850459,14.3526616 C2.92345679,14.7268874 2.97840899,15.0901066 3.02237074,15.4313125 L3.09930382,15.9486247 L2.59374362,15.8055384 C2.24204957,15.7064786 1.90134596,15.6074188 1.58262322,15.5193657 L1.90134596,15.4423192 C1.67054674,15.662452 1.43974752,15.8715782 1.23092917,16.0586911 L1.34083357,15.8385583 C1.30786225,16.4109037 1.26390049,16.9722425 1.23092917,17.478548 L0.989139515,17.1373421 C1.83540332,17.3574749 2.65968625,17.5666011 3.42901699,17.7647207 L3.13227513,17.8417672 C6.2755407,14.9580269 9.01216003,12.4485125 11.1333148,10.5113434 L11.2432192,10.4122836 L11.364114,10.4673168 C13.0896129,11.2597951 14.7052075,10.9185892 15.6174139,10.5113434 C16.5625917,10.0710777 16.9582475,9.65282532 16.9912188,9.69685189 Z" id="Path" fill="#FFFFFF" fill-rule="nonzero"></path>
                            </g>
                            <g>
                                <path d="M16.9912188,9.69685189 C19.1013831,7.71565627 19.2222779,4.40265693 17.2439989,2.27837496 C15.2657199,0.165099635 11.9575977,0.0440265693 9.83644296,2.02522219 C8.02302051,3.7202451 7.6823169,6.38385255 8.85829388,8.4531013 L8.85829388,8.4531013 L7.79222129,9.44369911 L8.04500139,11.2157685 L6.38544509,10.7534895 L5.05560197,11.9972401 L5.30838207,13.7693095 L3.65981621,13.3070306 L2.51681054,14.3746749 L2.67067669,15.4533258 L1.6595563,15.1671531 L0.989139515,15.7945317 L0.890225564,17.4345214 L3.33010304,18.0508934 L11.2652,10.6434231 C13.1445651,11.4909346 15.4085956,11.1827486 16.9912188,9.69685189 Z M16.2218881,3.24695948 C16.7933909,3.85232481 16.7604196,4.80990269 16.144955,5.37124145 C15.5404808,5.94358685 14.5843126,5.91056693 14.0238002,5.29419496 C13.4632878,4.67782299 13.4852687,3.73125175 14.1007333,3.16991299 C14.7052075,2.60857423 15.6503852,2.64159416 16.2218881,3.24695948 Z" id="Shape"></path>
                                <path d="M16.2218881,3.24695948 C16.1559454,3.33501262 15.7383087,2.90575357 15.0019493,3.02682664 C14.6502553,3.08185985 14.2655899,3.33501262 14.0787524,3.74225839 C13.8809245,4.13849751 13.9358767,4.69983627 14.2875708,5.06305547 C14.6282744,5.43728131 15.1777963,5.52533445 15.595433,5.36023481 C16.0130697,5.20614182 16.2878307,4.83191598 16.3647638,4.49071007 C16.5296203,3.75326503 16.1229741,3.3019927 16.2218881,3.24695948 C16.2328785,3.16991299 16.9032953,3.52212554 16.8483431,4.56775656 C16.8043813,5.06305547 16.4746682,5.6684208 15.8372227,5.9545935 C15.2217581,6.25177284 14.3205421,6.14170642 13.7710201,5.53634109 C13.2105078,4.9419824 13.1555556,4.03943773 13.4962592,3.44507905 C13.8259723,2.82870708 14.4524274,2.54253438 14.9469971,2.53152773 C15.9910888,2.54253438 16.2988211,3.23595284 16.2218881,3.24695948 Z" id="Path" fill="#FFFFFF" fill-rule="nonzero"></path>
                                <path d="M16.9912188,9.69685189 C17.0022092,9.70785853 16.9142857,9.81792495 16.7164578,10.0160445 C16.5076395,10.1921508 16.1889167,10.4563102 15.7163279,10.709463 C14.793131,11.1937552 13.0896129,11.6450276 11.188267,10.8415427 L11.4190662,10.8085228 C9.33088276,12.7897184 6.64921563,15.354266 3.56090226,18.2930395 L3.44000743,18.4141126 L3.27515084,18.370086 C2.50582011,18.1829731 1.68153718,17.9738469 0.82428293,17.7647207 L0.560512392,17.6986809 L0.571502831,17.4235148 C0.604474148,16.9062026 0.637445466,16.3558705 0.659426344,15.7835251 L0.670416783,15.6514454 L0.769330734,15.5633922 C0.978149076,15.3652727 1.2089483,15.1561465 1.42875708,14.9360136 L1.57163279,14.8039339 L1.75847025,14.8589671 C2.07719298,14.9470203 2.41789659,15.0460801 2.76959064,15.1341332 L2.34096352,15.508359 C2.29700176,15.1671531 2.24204957,14.8039339 2.18709737,14.4297081 L2.16511649,14.2536018 L2.29700176,14.1325287 C2.65968625,13.7913228 3.04435162,13.4281036 3.44000743,13.0648844 L3.58288313,12.9328047 L3.7697206,12.9878379 C4.29726167,13.1309243 4.85777406,13.2960239 5.4292769,13.4501169 L4.98965933,13.8353494 C4.91272626,13.2740106 4.82480275,12.6686453 4.73687924,12.06328 L4.71489836,11.8871737 L4.84678363,11.7661006 C4.95668802,11.6670409 5.07758285,11.5459678 5.19847768,11.4359014 C5.52819085,11.1277154 5.85790402,10.8195294 6.17662675,10.5223501 L6.31950246,10.3902704 L6.50633992,10.4453036 C7.06685232,10.5993966 7.61637427,10.7534895 8.15490578,10.9075825 L7.71528822,11.292815 C7.62736471,10.6984563 7.55043163,10.1040977 7.46250812,9.52074561 L7.44052724,9.34463933 L7.57241251,9.22356627 C7.935097,8.893367 8.28679105,8.56316773 8.6384851,8.23296846 L8.57254247,8.65122087 C7.6823169,7.08827766 7.64934559,5.17312189 8.33075281,3.66521189 C9.00116959,2.13528861 10.3310127,1.04563102 11.7597698,0.61637197 C13.1885269,0.165099635 14.6832266,0.363219197 15.8482131,0.94657124 C17.0241901,1.52992328 17.848473,2.49850781 18.3320524,3.46709233 C19.2772301,5.49231452 18.7606795,7.385457 18.1891766,8.36504816 C17.5847025,9.36665262 16.9912188,9.69685189 16.9912188,9.69685189 C16.9362666,9.65282532 17.4528172,9.24557955 17.9583774,8.23296846 C18.4419567,7.25337729 18.848603,5.47030123 17.9254061,3.64319861 C17.4638077,2.76266722 16.6834865,1.89314248 15.6174139,1.39784357 C14.5623318,0.891538028 13.2105078,0.737445036 11.9356168,1.15569744 C10.6717163,1.56294321 9.49573935,2.54253438 8.92423652,3.89635138 C8.34174325,5.23916175 8.385705,6.92317802 9.16602618,8.28800167 L9.29791145,8.51914116 L9.10008354,8.70625408 C8.74838949,9.03645335 8.39669544,9.36665262 8.03401095,9.70785853 L8.14391534,9.41067919 C8.23183886,9.99403123 8.31976237,10.5883899 8.39669544,11.1827486 L8.47362852,11.7110674 L7.95707788,11.5679811 C7.40755593,11.4138881 6.85803397,11.2597951 6.29752158,11.1057021 L6.62723475,11.0286556 C6.30851202,11.3368416 5.97879885,11.6340209 5.64908568,11.9422069 C5.52819085,12.0522733 5.40729602,12.1733464 5.29739163,12.2724062 L5.40729602,11.9642202 C5.49521953,12.5695855 5.58314304,13.1749509 5.66007612,13.7362896 L5.73700919,14.2646084 L5.22045855,14.1215221 C4.64895572,13.9564225 4.08844333,13.8023295 3.57189269,13.6592431 L3.90160587,13.5821966 C3.50595006,13.9454158 3.11029425,14.3196417 2.7586002,14.6498409 L2.86850459,14.3526616 C2.92345679,14.7268874 2.97840899,15.0901066 3.02237074,15.4313125 L3.09930382,15.9486247 L2.59374362,15.8055384 C2.24204957,15.7064786 1.90134596,15.6074188 1.58262322,15.5193657 L1.90134596,15.4423192 C1.67054674,15.662452 1.43974752,15.8715782 1.23092917,16.0586911 L1.34083357,15.8385583 C1.30786225,16.4109037 1.26390049,16.9722425 1.23092917,17.478548 L0.989139515,17.1373421 C1.83540332,17.3574749 2.65968625,17.5666011 3.42901699,17.7647207 L3.13227513,17.8417672 C6.2755407,14.9580269 9.01216003,12.4485125 11.1333148,10.5113434 L11.2432192,10.4122836 L11.364114,10.4673168 C13.0896129,11.2597951 14.7052075,10.9185892 15.6174139,10.5113434 C16.5625917,10.0710777 16.9582475,9.65282532 16.9912188,9.69685189 Z" id="Path" fill="#FFFFFF" fill-rule="nonzero"></path>
                            </g>
                        </g>
                    </g>
                    <g filter="url(#filter-13)" id="Group">
                        <g transform="translate(227.502089, 319.192627)">
                            <path d="M48.4018936,0.14308635 C48.4238745,0.14308635 48.4568458,0.440265693 48.5008076,1.01261109 C48.5447693,1.65099635 48.5887311,2.47649452 48.6546737,3.50011226 C48.7645781,5.6684208 48.8854729,8.80531386 48.9843869,12.679652 C49.0723104,16.5539901 49.1272626,21.1767798 49.0942913,26.2948685 C49.0723104,28.8594162 49.0393391,31.5450369 48.9733965,34.340724 C48.9294347,35.727561 48.9404251,37.1694311 48.6546737,38.6333146 C48.3909032,40.0751847 47.6985055,41.605108 46.4016337,42.5516792 C45.1157523,43.4982505 43.5880813,43.8284497 42.1593242,44.0595892 C40.7195767,44.2577088 39.3128005,44.4118018 37.9280052,44.5658948 C35.1584146,44.8520675 32.465757,45.0611937 29.9049847,45.1932734 C24.7834401,45.4684394 20.1674557,45.4684394 16.2988211,45.3363597 C12.4301866,45.2152867 9.29791145,44.9621339 7.14378539,44.7530077 C6.06672236,44.6539479 5.23144899,44.5438815 4.6709366,44.4778416 C4.11042421,44.4007951 3.81368235,44.3567686 3.81368235,44.3237486 C3.81368235,44.3017353 4.12141465,44.3017353 4.68192704,44.3347553 C5.31937251,44.3677752 6.14365543,44.4228084 7.16576627,44.4888483 C9.31989232,44.620928 12.4521675,44.7860276 16.3098116,44.8520675 C20.1674557,44.9181073 24.7724496,44.8630741 29.8720134,44.5548881 C32.4217952,44.4118018 35.0924719,44.1806623 37.8510721,43.8834829 C39.224877,43.7403966 40.6426436,43.575297 42.0494198,43.3771774 C43.4342152,43.1570445 44.8629722,42.8268453 45.9730066,42.0013471 C47.0940314,41.1868556 47.709496,39.8660585 47.9622761,38.5122415 C48.237037,37.1474178 48.237037,35.727561 48.2700084,34.340724 C48.3249605,31.5560435 48.3799127,28.8704228 48.4348649,26.3058751 C48.5008076,21.1877865 48.5008076,16.5760033 48.4788267,12.7016652 C48.4348649,8.893367 48.4018936,5.77848722 48.3799127,3.53313219 C48.3689223,2.50951445 48.3689223,1.68401628 48.3579319,1.03462438 C48.3579319,0.440265693 48.3689223,0.14308635 48.4018936,0.14308635 Z" id="Path" fill="#1E0F00" fill-rule="nonzero"></path>
                            <path d="M11.7267985,51.9513518 C11.6718463,52.0283983 10.5508215,51.3019599 8.67145642,50.1792823 C6.80308178,49.0676115 4.14339553,47.5927214 1.05508215,46.2058845 L0.560512392,45.9857516 L0.967158637,45.6335391 C1.19795786,45.4354195 1.43974752,45.2152867 1.68153718,44.9951538 C4.38518519,42.5846991 6.86902441,40.4384039 8.68244686,38.897474 C10.4958693,37.3675507 11.6608558,36.4539994 11.715808,36.5310459 C11.7817507,36.6080924 10.737659,37.6427167 9.01216003,39.2716998 C7.27567066,40.9006829 4.85777406,43.1020113 2.14313562,45.512466 C1.90134596,45.7325988 1.6595563,45.9417251 1.42875708,46.1508513 L1.34083357,45.5785059 C4.46211826,46.9873561 7.09982363,48.5502993 8.92423652,49.7830432 C10.7486494,51.0157872 11.7707602,51.8853119 11.7267985,51.9513518 Z" id="Path" fill="#1E0F00" fill-rule="nonzero"></path>
                        </g>
                    </g>
                    <g filter="url(#filter-14)" id="Group">
                        <g transform="translate(195.629815, 48.429226)">
                            <path d="M17.3758842,20.065109 C17.3758842,20.065109 18.6947368,19.6688698 21.1236239,20.0210824 C23.4755778,20.4173215 27.0144992,21.8041584 29.7511185,25.2822574 C31.0919521,26.9992936 32.1800056,29.2446486 32.465757,31.8422162 C32.5976423,33.1299934 32.5536805,34.4728038 32.3228813,35.8376274 C32.0591107,37.1914444 31.6085027,38.5452614 30.9710573,39.8440452 C29.7071568,42.4526194 27.6079829,44.8410608 24.8713636,46.4480306 C22.1347443,48.0550004 18.749689,48.7043923 15.4305764,48.3191598 C12.1004734,47.944934 8.97918871,46.6131302 6.51733036,44.6319346 C4.03349114,42.6617456 2.27502089,40.0201515 1.32984313,37.2794975 C0.373674928,34.5388436 0.175847025,31.6991299 0.670416783,29.1565955 C1.17597698,26.6250678 2.37393484,24.4127327 3.92358674,22.8607961 C5.45125777,21.2758396 7.20972802,20.2632285 8.836313,19.6798765 C10.462898,19.0855178 11.9795786,18.8984049 13.1885269,18.9424314 C14.4084656,18.9644447 15.3316625,19.2065909 15.9361366,19.3937038 C16.5406108,19.6138366 16.8373526,19.7459163 16.8373526,19.7679296 C16.8153718,19.877996 15.5844426,19.1955842 13.1885269,19.2175975 C12.0015595,19.2286041 10.5398311,19.4377303 8.97918871,20.0541023 C7.41854637,20.6594676 5.73700919,21.6720787 4.28627123,23.2130087 C2.82454284,24.7319253 1.70351805,26.8452006 1.24191961,29.2776686 C0.791311612,31.7101365 1.00012995,34.4507905 1.93431727,37.0703713 C2.86850459,39.7009589 4.56103221,42.2104733 6.93496705,44.1036158 C9.29791145,45.9967583 12.3092917,47.2735288 15.5075095,47.6257413 C18.6947368,47.9999672 21.9259259,47.3725886 24.53066,45.8536719 C27.1463845,44.3347553 29.1686253,42.0563803 30.3995544,39.5578725 C31.0260095,38.3141219 31.465627,37.0153381 31.7184071,35.7165543 C31.9492063,34.4177705 32.0041585,33.1299934 31.8942542,31.8972494 C31.6524645,29.4207549 30.6303537,27.263453 29.3664532,25.5794368 C26.7727096,22.1783843 23.3766639,20.7475208 21.0906526,20.2852418 C18.7167177,19.8559827 17.3758842,20.1531621 17.3758842,20.065109 Z" id="Path" fill="#FFBE56" fill-rule="nonzero"></path>
                            <path d="M51.9957672,2.25636168 C52.039729,2.26736832 52.0067576,2.77367387 51.841901,3.69823182 C51.6770445,4.61178313 51.3473313,5.92157357 50.7428571,7.48451678 C49.5668802,10.5883899 47.0610601,14.6828609 42.9396454,17.786734 C38.8292212,20.8796005 34.1912559,22.156371 30.8941242,22.4315371 C29.2345679,22.5746234 27.8827439,22.5416035 26.959547,22.4425437 C26.0363501,22.3434839 25.5307899,22.2334175 25.5416049,22.1893909 C25.5527708,22.0573112 27.5969925,22.3544906 30.8501624,21.9362381 C34.0703611,21.539999 38.5434698,20.2302086 42.5329992,17.2253952 C46.5225285,14.2205819 49.0173582,10.2912106 50.2922491,7.29740386 C51.589121,4.28158386 51.8638819,2.22334175 51.9957672,2.25636168 Z" id="Path" fill="#FFBE56" fill-rule="nonzero"></path>
                            <path d="M54.468616,4.56775656 C54.3147498,4.66681634 53.1277824,3.12588642 51.7979393,1.07865095 L52.3364708,1.13368416 C52.2815186,1.18871737 52.2265664,1.24375058 52.1716142,1.29878379 C50.4021535,3.12588642 48.8525016,4.50171671 48.7206164,4.369637 C48.5887311,4.23755729 49.9075838,2.64159416 51.6770445,0.814491532 C51.7319967,0.75945832 51.7869489,0.704425109 51.841901,0.649391897 L52.1496333,0.33019927 L52.391423,0.704425109 C53.7102757,2.75166058 54.6334726,4.46869678 54.468616,4.56775656 Z" id="Path" fill="#FFBE56" fill-rule="nonzero"></path>
                        </g>
                    </g>
                    <polygon id="Rectangle" fill="#6D7AFD" fill-rule="nonzero" transform="translate(276.455698, 35.165976) rotate(-7.527250) translate(-276.455698, -35.165976) " points="259.917546 18.6042749 293.000183 18.5979409 292.993849 51.7276764 259.911212 51.7340105"></polygon>
                    <polygon id="Rectangle" fill="#74EBD5" fill-rule="nonzero" transform="translate(232.938716, 28.431658) rotate(8.047457) translate(-232.938716, -28.431658) " points="216.393452 11.8629638 249.477218 11.8697246 249.483979 45.000353 216.400213 44.9935922"></polygon>
                    <path d="M260.08874,34.2856908 C260.08874,34.4838104 257.549949,34.7039432 254.406683,34.7919964 C251.263418,34.8800495 248.713636,34.7809897 248.702646,34.5938768 C248.702646,34.3957573 251.241437,34.1756244 254.384702,34.0875713 C257.527968,34.0105248 260.08874,34.0985779 260.08874,34.2856908 Z" id="Path" fill="#FFBE56" fill-rule="nonzero"></path>
                    <g id="Group" transform="translate(85.725425, 35.120591)">
                        <g filter="url(#filter-15)">
                            <g transform="translate(0.000000, 2.301993)">
                                <path d="M22.4644574,33.8674384 C22.4754479,33.8454251 22.7721897,33.911465 23.3436926,34.0765646 C23.904205,34.2636775 24.7284879,34.5938768 25.6736656,35.2322621 C27.5310498,36.465006 29.9599369,39.0845869 30.7512485,43.1570445 C31.1578947,45.1602534 31.015019,47.482655 30.212717,49.7610299 C29.4104149,52.0283983 27.9486865,54.2297267 25.9594171,56.0568293 C23.9701476,57.883932 21.4423466,59.3368088 18.573842,60.0522405 C15.7273183,60.7566656 12.5620718,60.8116988 9.57267242,59.8321077 C6.583273,58.8965431 4.00051982,56.8823275 2.47284879,54.3397931 C0.901216003,51.8192721 0.307732294,48.9135185 0.35169405,46.2168911 C0.428627123,43.5092571 1.21993874,40.9667227 2.50582011,38.9194873 C3.79170148,36.8832584 5.47323865,35.3313219 7.18774715,34.2416643 C10.638745,32.0183225 14.0238002,31.5340303 16.2548594,31.478997 C17.3868746,31.4679904 18.2551193,31.5560435 18.8376125,31.6551033 C19.4201058,31.7541631 19.7278381,31.820203 19.7168477,31.8422162 C19.7058572,31.9192627 18.4749281,31.6551033 16.2548594,31.7541631 C14.067762,31.8862428 10.7596398,32.4475816 7.45151768,34.6599167 C5.80295182,35.7385676 4.20933816,37.2684909 2.98939942,39.2276732 C1.78045113,41.1868556 1.04409171,43.6303302 0.989139515,46.2278978 C0.956168198,48.8144587 1.53866147,51.5881326 3.04435162,53.9765739 C4.50608001,56.3870286 6.92397661,58.2691645 9.77050032,59.1717091 C12.617024,60.0962671 15.6503852,60.0632472 18.3870045,59.391842 C21.1346143,58.7204368 23.5744918,57.3335999 25.4978186,55.5945504 C27.4211455,53.8444942 28.8499025,51.7422256 29.6412141,49.573917 C30.4325258,47.3946018 30.5973823,45.1932734 30.2346979,43.2561043 C29.5423002,39.3377397 27.2562889,36.7291654 25.4868282,35.4634016 C23.7173675,34.1426045 22.4204957,33.9664982 22.4644574,33.8674384 Z" id="Path" fill="#FFBE56" fill-rule="nonzero"></path>
                                <path d="M73.3501903,0.242146131 C73.3721712,0.242146131 73.4051425,0.484292262 73.4381138,0.94657124 C73.4600947,1.40885022 73.5370278,2.09126204 73.5260373,2.97179343 C73.5590086,4.7328562 73.4051425,7.28639722 72.8336397,10.3902704 C72.2621368,13.4941435 71.1740834,17.1263355 69.3496705,20.8796005 C67.536248,24.6438722 64.931514,28.496197 61.5354683,31.9302694 C58.1064513,35.3313219 54.2597976,37.9398961 50.5010675,39.7559921 C46.7423373,41.5830947 43.1154924,42.6727523 40.0271791,43.2450977 C36.9278752,43.8174431 34.3780934,43.9715361 32.6196231,43.9385161 C31.740388,43.9605294 31.0589808,43.8724763 30.5973823,43.850463 C30.1357839,43.8174431 29.8939942,43.7844232 29.8939942,43.7624099 C29.8939942,43.69637 30.8611529,43.7183833 32.6086327,43.6633501 C34.3561125,43.6083169 36.872923,43.388184 39.9282651,42.7497988 C45.983997,41.5390681 54.292769,38.1710356 61.0408985,31.4239638 C67.7780377,24.6658854 71.141112,16.3448638 72.3500603,10.2802039 C72.9765154,7.23136401 73.2073146,4.69983627 73.2512763,2.94978014 C73.3062285,1.21073066 73.2842477,0.242146131 73.3501903,0.242146131 Z" id="Path" fill="#FFBE56" fill-rule="nonzero"></path>
                            </g>
                        </g>
                        <path d="M79.2080943,7.88236035 C79.0542282,7.99242678 76.6033603,4.89956028 73.6469321,0.882135837 L74.2294254,0.84911591 C74.1415019,0.99220226 74.0535784,1.1573019 73.9656549,1.31139489 C71.3609208,5.84613152 69.1188713,9.44530356 68.9540147,9.34624378 C68.7891581,9.247184 70.7564467,5.49391897 73.3611807,0.959182333 C73.4491042,0.805089341 73.5480182,0.639989706 73.6249513,0.496903356 L73.8887218,0.0346243783 L74.2074445,0.463883429 C77.1528822,4.50332116 79.3619605,7.77229393 79.2080943,7.88236035 Z" id="Path" fill="#74EBD5" fill-rule="nonzero"></path>
                    </g>
                </g>
                <g id="Character" transform="translate(373.000000, 104.000000)" fill-rule="nonzero">
                    <g id="Group">
                        <ellipse id="Oval" fill="#74EBD5" transform="translate(44.810387, 45.337523) rotate(-82.651837) translate(-44.810387, -45.337523) " cx="44.8103868" cy="45.337523" rx="39.6692406" ry="39.9191923"></ellipse>
                        <g transform="translate(30.769231, 28.378423)" fill="#FFFFFF" id="Path">
                            <path d="M27.7582418,32.9517154 L0.362622616,32.9844598 L0.362622616,29.6445376 C0.351648352,22.1351702 6.48351648,16.0338092 14.043956,16.0228798 L14.043956,16.0228798 C21.6043956,16.0119796 27.7472527,22.1024259 27.7582418,29.6117933 L27.7582418,32.9517154 Z"></path>
                            <path d="M22.0879371,8.96103291 C22.0989011,13.3815181 18.4945055,16.9615653 14.043956,16.972505 C9.59340659,16.9833949 5.98901099,13.4033476 5.97799692,8.98286247 C5.96703297,4.56237729 9.57142857,0.982330039 14.021978,0.971415261 C18.4725275,0.971415261 22.0769231,4.55146251 22.0879371,8.96103291 Z"></path>
                        </g>
                    </g>
                </g>
            </g>
        </g>
    </g>
</svg>