<?xml version="1.0" encoding="UTF-8"?>
<svg width="714px" height="513px" viewBox="0 0 714 513" version="1.1" xmlns="http://www.w3.org/2000/svg" xmlns:xlink="http://www.w3.org/1999/xlink">
    <title>uni</title>
    <defs>
        <filter x="-18.6%" y="-15.3%" width="137.3%" height="141.6%" filterUnits="objectBoundingBox" id="filter-1">
            <feOffset dx="10" dy="10" in="SourceAlpha" result="shadowOffsetOuter1"></feOffset>
            <feGaussianBlur stdDeviation="10" in="shadowOffsetOuter1" result="shadowBlurOuter1"></feGaussianBlur>
            <feColorMatrix values="0 0 0 0 0   0 0 0 0 0   0 0 0 0 0  0 0 0 0.05 0" type="matrix" in="shadowBlurOuter1" result="shadowMatrixOuter1"></feColorMatrix>
            <feMerge>
                <feMergeNode in="shadowMatrixOuter1"></feMergeNode>
                <feMergeNode in="SourceGraphic"></feMergeNode>
            </feMerge>
        </filter>
        <path d="M344.479778,15.077779 C357.830176,15.2426479 371.235513,18.1003761 383.322293,23.8158324 C391.892918,27.8825994 399.749325,33.1584053 405.957534,39.8630752 C418.428893,53.2724151 423.373485,72.9467744 414.857799,87.6750657 C407.715611,99.9852793 392.057738,108.833245 391.892918,123.011974 C391.673158,139.553823 412.605263,150.545085 430.900252,153.952377 C449.140301,157.359668 469.632887,158.019144 483.367863,169.779794 C495.179943,179.891755 498.311518,196.103867 494.410785,209.733032 C490.510051,223.307241 480.565928,234.628241 469.523007,244.300552 C441.833294,268.536285 406.287174,284.418659 369.862015,297.003654 C292.891206,323.547552 209.382547,336.462285 125.324489,334.868552 C104.337445,334.483858 80.8781042,332.230649 66.1542091,318.051921 C51.3204342,303.76328 50.825975,281.176236 60.5503386,264.799256 C70.2747021,248.422275 88.1301719,237.431013 106.80974,229.462348 C125.489309,221.438726 145.542375,215.888139 163.672544,207.040173 C177.407521,200.390459 191.472137,187.695552 185.648507,174.066386 C181.528014,164.394076 169.331355,159.722789 158.618073,155.765935 C143.509598,150.215347 128.401124,143.730503 116.039645,133.948279 C103.678166,124.166056 94.1735617,110.591847 93.2395833,96.2482502 C92.3605448,82.8389103 99.0082735,70.0340899 108.842517,60.4167355 C118.67676,50.7993811 131.477759,44.0397548 144.608396,38.2143859 C196.471669,15.2976042 308.384259,14.6381285 344.479778,15.077779 Z" id="path-2"></path>
        <filter x="-0.9%" y="-1.3%" width="102.3%" height="103.1%" filterUnits="objectBoundingBox" id="filter-3">
            <feOffset dx="1" dy="1" in="SourceAlpha" result="shadowOffsetOuter1"></feOffset>
            <feGaussianBlur stdDeviation="1.5" in="shadowOffsetOuter1" result="shadowBlurOuter1"></feGaussianBlur>
            <feColorMatrix values="0 0 0 0 1   0 0 0 0 1   0 0 0 0 1  0 0 0 0.120227307 0" type="matrix" in="shadowBlurOuter1"></feColorMatrix>
        </filter>
        <filter x="-1.7%" y="-2.3%" width="103.8%" height="105.3%" filterUnits="objectBoundingBox" id="filter-4">
            <feGaussianBlur stdDeviation="5" in="SourceAlpha" result="shadowBlurInner1"></feGaussianBlur>
            <feOffset dx="1" dy="1" in="shadowBlurInner1" result="shadowOffsetInner1"></feOffset>
            <feComposite in="shadowOffsetInner1" in2="SourceAlpha" operator="arithmetic" k2="-1" k3="1" result="shadowInnerInner1"></feComposite>
            <feColorMatrix values="0 0 0 0 0   0 0 0 0 0   0 0 0 0 0  0 0 0 0.15 0" type="matrix" in="shadowInnerInner1"></feColorMatrix>
        </filter>
        <filter x="-13.7%" y="-41.1%" width="127.5%" height="182.3%" filterUnits="objectBoundingBox" id="filter-5">
            <feOffset dx="10" dy="10" in="SourceAlpha" result="shadowOffsetOuter1"></feOffset>
            <feGaussianBlur stdDeviation="10" in="shadowOffsetOuter1" result="shadowBlurOuter1"></feGaussianBlur>
            <feColorMatrix values="0 0 0 0 0   0 0 0 0 0   0 0 0 0 0  0 0 0 0.15 0" type="matrix" in="shadowBlurOuter1" result="shadowMatrixOuter1"></feColorMatrix>
            <feMerge>
                <feMergeNode in="shadowMatrixOuter1"></feMergeNode>
                <feMergeNode in="SourceGraphic"></feMergeNode>
            </feMerge>
        </filter>
        <filter x="-45.7%" y="-33.5%" width="191.3%" height="167.1%" filterUnits="objectBoundingBox" id="filter-6">
            <feOffset dx="10" dy="10" in="SourceAlpha" result="shadowOffsetOuter1"></feOffset>
            <feGaussianBlur stdDeviation="10" in="shadowOffsetOuter1" result="shadowBlurOuter1"></feGaussianBlur>
            <feColorMatrix values="0 0 0 0 0   0 0 0 0 0   0 0 0 0 0  0 0 0 0.15 0" type="matrix" in="shadowBlurOuter1" result="shadowMatrixOuter1"></feColorMatrix>
            <feMerge>
                <feMergeNode in="shadowMatrixOuter1"></feMergeNode>
                <feMergeNode in="SourceGraphic"></feMergeNode>
            </feMerge>
        </filter>
        <filter x="-43.9%" y="-25.3%" width="187.9%" height="144.9%" filterUnits="objectBoundingBox" id="filter-7">
            <feOffset dx="10" dy="10" in="SourceAlpha" result="shadowOffsetOuter1"></feOffset>
            <feGaussianBlur stdDeviation="10" in="shadowOffsetOuter1" result="shadowBlurOuter1"></feGaussianBlur>
            <feColorMatrix values="0 0 0 0 0   0 0 0 0 0   0 0 0 0 0  0 0 0 0.15 0" type="matrix" in="shadowBlurOuter1" result="shadowMatrixOuter1"></feColorMatrix>
            <feMerge>
                <feMergeNode in="shadowMatrixOuter1"></feMergeNode>
                <feMergeNode in="SourceGraphic"></feMergeNode>
            </feMerge>
        </filter>
        <filter x="-46.0%" y="-41.1%" width="192.0%" height="182.1%" filterUnits="objectBoundingBox" id="filter-8">
            <feOffset dx="0" dy="2" in="SourceAlpha" result="shadowOffsetOuter1"></feOffset>
            <feGaussianBlur stdDeviation="5" in="shadowOffsetOuter1" result="shadowBlurOuter1"></feGaussianBlur>
            <feColorMatrix values="0 0 0 0 0   0 0 0 0 0   0 0 0 0 0  0 0 0 0.05 0" type="matrix" in="shadowBlurOuter1" result="shadowMatrixOuter1"></feColorMatrix>
            <feMerge>
                <feMergeNode in="shadowMatrixOuter1"></feMergeNode>
                <feMergeNode in="SourceGraphic"></feMergeNode>
            </feMerge>
        </filter>
    </defs>
    <g id="Home" stroke="none" stroke-width="1" fill="none" fill-rule="evenodd">
        <g id="Desktop-HD-Copy-6" transform="translate(-78.000000, -1712.000000)">
            <g id="uni" filter="url(#filter-1)" transform="translate(164.000000, 1756.000000)">
                <path d="M121.5,181 C171.48177,181 212,140.48177 212,90.5 C212,40.5182301 171.48177,0 121.5,0 C71.5182301,0 31,40.5182301 31,90.5 C31,140.48177 71.5182301,181 121.5,181 Z" id="Oval" stroke="#FFFFFF" opacity="0.5" stroke-dasharray="12.0716,12.0716"></path>
                <g id="Path">
                    <use fill="black" fill-opacity="1" filter="url(#filter-3)" xlink:href="#path-2"></use>
                    <use fill="#6776F3" fill-rule="evenodd" xlink:href="#path-2"></use>
                    <use fill="black" fill-opacity="1" filter="url(#filter-4)" xlink:href="#path-2"></use>
                </g>
                <g id="Group" filter="url(#filter-5)" transform="translate(0.000000, 242.000000)" fill-rule="nonzero">
                    <rect id="Rectangle" fill="#C1C7FF" x="20.3697632" y="74.3102542" width="382.138954" height="52.5059889"></rect>
                    <path d="M400.916472,74.3102542 L400.916472,126.871166 L0,126.871166 L0,130.825592 C0,135.713701 4.28259173,139.613205 9.55347385,139.613205 L399.214416,139.613205 C411.622951,139.613205 421.67057,130.331288 421.67057,118.852469 L421.67057,83.7020158 C421.67057,72.223196 411.622951,62.9412796 399.214416,62.9412796 L9.55347385,62.9412796 C4.28259173,62.9412796 0,66.8957055 0,71.7288928 L0,74.2553316 L400.916472,74.2553316 L400.916472,74.3102542 Z" id="Path" fill="#808BFF"></path>
                    <polygon id="Rectangle" fill="#8FFFEA" transform="translate(197.862930, 33.186366) rotate(-180.000000) translate(-197.862930, -33.186366) " points="42.5915277 10.338572 353.134333 10.338572 353.134333 56.0341607 42.5915277 56.0341607"></polygon>
                    <path d="M353.149102,10.3254455 L353.149102,56.0210342 L30.8566224,56.0210342 L30.8566224,59.4811569 C30.8566224,63.7101957 34.3156388,67.1703184 38.5433255,67.1703184 L351.776477,67.1703184 C361.714286,67.1703184 369.840229,59.0966988 369.840229,49.1007888 L369.840229,18.5089103 C369.840229,8.56792287 361.769191,0.43938066 351.776477,0.43938066 L38.5433255,0.43938066 C34.3156388,0.43938066 30.8566224,3.89950336 30.8566224,8.12854221 L30.8566224,10.3254455 L353.149102,10.3254455 Z" id="Path" fill="#65D9C3"></path>
                    <rect id="Rectangle" fill="#8FFFEA" x="42.6062972" y="30.7017236" width="310.542805" height="25.3193105"></rect>
                    <polygon id="Path" fill="#8FFFEA" points="45.7358834 140.931347 57.4855582 134.175869 69.2352329 140.931347 69.2352329 97.7072743 45.7358834 97.7072743"></polygon>
                    <polygon id="Path" fill="#65D9C3" points="45.7358834 140.931347 57.4855582 134.175869 57.4855582 97.7072743 45.7358834 97.7072743"></polygon>
                </g>
                <g id="Group" filter="url(#filter-6)" transform="translate(415.000000, 208.000000)" fill-rule="nonzero">
                    <path d="M60.1196415,172.395873 C73.6136486,172.395873 79.3184321,161.576508 81.5674333,150.098095 C84.0907029,137.191746 82.2256776,123.406667 82.2256776,123.406667 L37.9587518,123.406667 C37.9587518,123.406667 37.9038981,123.955873 37.7941907,124.889524 C36.9713854,133.017778 34.2835547,172.395873 60.1196415,172.395873 Z" id="Path" fill="#9CFFED"></path>
                    <path d="M37.9587518,123.406667 C37.9587518,124.395238 47.8872692,125.164127 60.1196415,125.164127 C72.3520138,125.164127 82.2805313,124.395238 82.2805313,123.406667 C82.2805313,122.418095 72.3520138,121.649206 60.1196415,121.649206 C47.8872692,121.649206 37.9587518,122.418095 37.9587518,123.406667 Z" id="Path" fill="#6D7AFD"></path>
                    <path d="M0.164561063,0.494285714 C0.164561063,0.494285714 23.5322319,36.0828571 37.5199223,57.7765079 C51.5076126,79.4701587 55.1828096,83.9736508 56.8832739,91.0034921 C58.5288846,98.0333333 60.0647878,123.900952 60.0647878,123.900952 L61.1070079,123.900952 C61.1070079,123.900952 60.7230321,101.932698 59.4613973,94.5184127 C58.2546161,87.3787302 59.5711046,84.7974603 60.558471,77.2733333 C61.5458374,69.7492063 62.9171796,57.7215873 55.292517,49.3736508 C47.7227081,41.0257143 49.6974409,32.8425397 47.0096102,27.3504762 C44.3217795,21.8584127 23.6419393,15.1580952 21.0089623,9.50126984 C18.3211316,3.84444444 6.63729619,0.32952381 0.164561063,0.494285714 Z" id="Path" fill="#74EBD5"></path>
                    <path d="M0.164561063,0.494285714 C0.164561063,0.494285714 7.51495519,8.84222222 12.5066408,11.6980952 C17.4983263,14.5539683 19.8570349,12.027619 23.696793,18.8926984 C27.5365511,25.7577778 27.7011122,28.7234921 31.2117482,32.2384127 C34.7223842,35.7533333 38.8912644,35.9180952 39.2203866,43.6069841 C39.5495087,51.295873 37.5747759,57.7765079 37.5747759,57.7765079 C37.5747759,57.7765079 1.64561063,2.30666667 0.164561063,0.494285714 Z" id="Path" fill="#6D7AFD"></path>
                    <path d="M58.1997624,123.900952 L57.1575424,123.900952 C57.1575424,123.900952 56.8284203,116.76127 54.0308822,113.35619 C52.2207105,111.104444 44.4863406,108.578095 36.861678,105.55746 C32.6379441,103.909841 28.4690638,102.04254 25.3424036,100.065397 C16.4561063,94.4085714 8.00863838,76.2298413 7.24068675,72.9895238 C6.96641831,71.8361905 6.85671094,71.1771429 6.85671094,70.6828571 L6.85671094,70.6828571 C6.85671094,69.804127 7.29554044,69.6942857 8.06349206,68.8155556 C8.44746788,68.3761905 9.48968794,68.5409524 10.8061764,68.9253968 C14.6459346,70.0787302 17.8823021,72.7149206 19.8570349,76.1749206 C21.7220603,79.3603175 24.6841594,83.4244444 28.3045028,84.3580952 C34.5578231,86.0606349 34.0641399,87.0492063 36.3679948,93.4749206 C38.6718497,99.8457143 44.4863406,100.889206 51.8367347,108.413333 C59.1322751,115.93746 58.1997624,123.900952 58.1997624,123.900952 Z" id="Path" fill="#74EBD5"></path>
                    <path d="M36.8068243,105.55746 C32.5830904,103.909841 28.4142101,102.04254 25.2875499,100.065397 C16.4012526,94.4085714 7.95378469,76.2298413 7.18583306,72.9895238 C6.91156463,71.8361905 6.80185725,71.1771429 6.80185725,70.6828571 C6.80185725,70.9025397 7.24068675,73.7584127 11.8483965,75.6806349 C16.675521,77.6577778 17.6080337,77.6577778 18.2114243,80.6784127 C18.8148148,83.6990476 19.3633517,86.9393651 21.8866213,87.5984127 C24.4098909,88.2025397 25.9457942,85.4015873 27.9205269,90.0149206 C29.8952597,94.628254 30.8277724,96.1660317 32.6927978,96.8250794 C34.5029694,97.4292063 35.9291653,96.4955556 36.3131411,100.065397 C36.5874096,102.207302 36.7519706,104.294286 36.8068243,105.55746 Z" id="Path" fill="#6D7AFD"></path>
                    <path d="M65.8792787,123.900952 L67.1409135,123.900952 C67.1409135,123.900952 69.5544758,79.8546032 72.9005507,75.7904762 C75.0398445,73.1542857 82.1708239,68.4311111 91.2216823,64.8063492 C96.2133679,62.8292063 101.1502,60.6873016 104.880251,58.2707937 C115.412159,51.5704762 125.450383,30.0415873 126.273189,26.1971429 C126.602311,24.8790476 126.712018,24.0552381 126.712018,23.5060317 L126.712018,23.5060317 C126.712018,22.4625397 126.163481,22.2977778 125.285822,21.2542857 C124.846993,20.76 123.585358,20.9247619 121.994601,21.4190476 C117.441745,22.7920635 113.601987,25.9225397 111.243278,30.0415873 C109.049131,33.8311111 105.538495,38.6092063 101.259907,39.7625397 C93.8546593,41.7396825 94.4580499,43.0028571 91.7153655,50.5269841 C88.9726811,58.1060317 82.0611165,59.3142857 73.3942339,68.2663492 C64.7273513,77.1634921 65.8792787,123.900952 65.8792787,123.900952 Z" id="Path" fill="#74EBD5"></path>
                    <path d="M91.1668286,64.8063492 C96.1585142,62.8292063 101.095346,60.6873016 104.825397,58.2707937 C115.357305,51.5704762 125.39553,30.0415873 126.218335,26.1971429 C126.547457,24.8790476 126.657164,24.0552381 126.657164,23.5060317 C126.602311,23.7806349 126.163481,27.1857143 120.678113,29.4374603 C114.973329,31.7990476 113.876255,31.7990476 113.108304,35.3688889 C112.340352,38.9387302 111.736961,42.7831746 108.774862,43.5520635 C105.812763,44.3209524 103.947738,40.9707937 101.589029,46.4079365 C99.2303207,51.8450794 98.1332469,53.712381 95.9390994,54.4812698 C93.7998056,55.2501587 92.154195,54.0968254 91.6605118,58.3257143 C91.4410971,60.8520635 91.276536,63.3234921 91.1668286,64.8063492 Z" id="Path" fill="#6D7AFD"></path>
                    <path d="M60.1196415,172.395873 C73.6136486,172.395873 79.3184321,161.576508 81.5674333,150.098095 C68.2928409,145.045397 51.6173199,137.026984 37.7941907,124.834603 C36.9713854,133.017778 34.2835547,172.395873 60.1196415,172.395873 Z" id="Path" fill="#95FAE8"></path>
                </g>
                <path d="M329,117 C330.141417,112.207692 335.902853,103.269231 340.957698,103 C340.631579,104.669231 340.088047,106.769231 340.957698,108.384615 C341.827348,109.946154 329,117 329,117 Z" id="Path" fill="#E2E2E2" fill-rule="nonzero"></path>
                <g id="Group" filter="url(#filter-7)" transform="translate(224.000000, 73.000000)" fill-rule="nonzero">
                    <path d="M101.064426,263.001207 C101.064426,263.001207 101.557423,294.214054 99.092437,294.983384 C95.8605664,293.60958 86.9318394,269.925183 89.5063803,266.957765 C92.0809213,263.990346 95.0389045,258.550079 95.0389045,258.550079 L101.064426,263.001207 Z" id="Path" fill="#6875F9"></path>
                    <path d="M70.9368192,145.403509 C70.9368192,145.403509 130.37037,171.011232 131.68503,175.682168 C133.054466,180.408057 103.200747,264.100251 103.200747,264.100251 L94.4911298,259.704075 C94.4911298,259.704075 99.6402116,196.289242 111.746032,186.507751 C98.270775,180.682818 32.4830377,173.97865 35.0575786,152.327485 C37.6321195,130.621368 70.9368192,145.403509 70.9368192,145.403509 Z" id="Path" fill="#6D7AFD"></path>
                    <path d="M112.512916,266.573099 C116.183007,273.167363 127.905384,292.510536 127.35761,295.532906 C123.906629,296.576998 105.884843,283.773137 105.665733,278.497726 C105.446623,273.222315 107.363834,268.111761 107.363834,268.111761 L112.512916,266.573099 Z" id="Path" fill="#6875F9"></path>
                    <path d="M33.5238095,153.096816 C30.291939,170.846375 23.9925303,175.682168 79.7012138,198.047712 C80.6324308,203.982549 94.2720199,258.33027 106.542172,270.969275 C109.061936,270.639562 113.389356,268.111761 113.389356,268.111761 C113.389356,268.111761 101.338313,189.914787 98.8733271,186.562703 C96.627451,183.48538 62.6654217,153.096816 62.6654217,153.096816 L33.5238095,153.096816 L33.5238095,153.096816 Z" id="Path" fill="#808BFF"></path>
                    <path d="M25.4167445,162.548594 L24.6498599,167.274483 C24.6498599,167.274483 1.36943666,175.737121 0.273887333,176.671308 C-0.821661998,177.605495 23.1708683,177.660447 23.8281979,177.660447 C22.4587613,179.47387 20.2676626,185.133946 20.9249922,186.507751 C23.5543106,184.144806 26.7314037,178.869396 28.7033925,177.22083 C30.6753813,175.572264 32.0448179,164.087255 32.0448179,164.087255 L25.4167445,162.548594 Z" id="Path" fill="#FFD3AE"></path>
                    <path d="M62.3367569,74.4052724 C51.1073763,77.8123085 40.6996576,78.6365915 32.0995954,126.719762 L25.1976346,163.537733 L32.3187053,165.46106 L36.6461251,154.415669 C36.6461251,154.415669 70.9915966,163.922399 73.7852474,147.93131 C76.5788982,131.885269 77.017118,127.983663 78.1126673,126.719762 C79.2082166,125.40091 81.1254279,121.279495 81.1254279,121.279495 C81.1254279,121.279495 105.337068,177.935208 107.911609,96.1663418 C105.337068,97.6500511 100.954871,95.946533 100.954871,95.946533 C100.954871,95.946533 97.7230003,124.246914 95.1484594,120.784925 C92.5739185,117.322937 91.0401494,74.9547944 70.1151572,75.7241251 L62.3367569,74.4052724 Z" id="Path" fill="#74EBD5"></path>
                    <g id="Group-2" filter="url(#filter-8)" transform="translate(38.399004, 0.274761)" fill="#6D7AFD">
                        <path d="M28.3747277,11.1552956 C28.3747277,19.0134596 22.0205415,25.3879142 14.1873638,25.3879142 C6.35418612,25.3879142 -3.65929509e-13,19.0134596 -3.65929509e-13,11.1552956 C-3.65929509e-13,3.29713172 12.4892624,3.67705866e-13 20.3224401,3.67705866e-13 C28.1556178,3.67705866e-13 28.3747277,3.29713172 28.3747277,11.1552956 Z" id="Path"></path>
                        <path d="M7.23062558,32.9713172 C7.23062558,21.3214518 16.6523498,11.8696742 28.2651727,11.8696742 C39.8779956,11.8696742 49.6283847,21.6511649 49.6283847,33.3010304 C49.6283847,44.9508958 40.5901027,55.6665738 29.0320573,55.6665738 C17.3644569,55.6665738 7.23062558,44.6211826 7.23062558,32.9713172 Z" id="Path"></path>
                    </g>
                    <path d="M62.5558668,58.1943748 C62.7201992,66.2723475 57.9545596,77.372691 57.9545596,77.372691 L69.2387177,90.6161701 L70.9915966,79.8455398 L70.9915966,58.1394226 L62.5558668,58.1394226 L62.5558668,58.1943748 Z" id="Path" fill="#FFD3AE"></path>
                    <path d="M87.6439465,43.3572821 C87.6439465,55.1720041 80.6872082,66.4372041 71.7584812,66.4372041 C62.8297541,66.4372041 52.5863679,55.1720041 52.5863679,43.3572821 C52.5863679,31.5425601 62.5558668,21.9259259 71.4845938,21.9259259 C79.2082166,21.9259259 85.6719577,29.1246635 87.2605042,38.7412977 C87.5343915,40.225007 87.6439465,41.7636684 87.6439465,43.3572821 Z" id="Path" fill="#FFE3CA"></path>
                    <path d="M87.2605042,38.5214889 C81.3993153,36.1585445 77.1266729,32.2019864 74.9903517,23.7393484 C73.9495798,32.2019864 65.4590725,40.4448157 51.1621538,43.3023299 C51.1621538,30.9930382 61.5150949,21.0466908 70.8272642,21.0466908 C78.8795518,21.101643 85.6171802,28.5751416 87.2605042,38.5214889 Z" id="Path" fill="#6D7AFD"></path>
                    <path d="M122.920635,32.8064606 C122.098973,31.2128469 120.729536,29.7840899 120.729536,29.7840899 C120.729536,29.7840899 106.268285,42.5329992 105.008403,43.3572821 C103.748522,44.181565 73.4018052,33.0812216 73.4018052,33.0812216 L72.4158108,40.7745289 L73.4565826,69.789288 L105.93962,79.5158266 L118.867102,74.4602246 L122.920635,32.8064606 Z" id="Path" fill="#D6D6D6"></path>
                    <path d="M123.797074,32.2019864 C123.797074,32.2019864 108.349829,42.3681426 107.911609,44.1266128 C107.473389,45.8850831 104.241519,47.5886011 99.6949891,45.0608001 C95.0936819,42.5329992 70.1151572,36.7080665 70.1151572,36.7080665 L72.1967009,81.6589622 L100.352319,86.2749466 L119.688764,78.4167827 L123.797074,32.2019864 Z" id="Path" fill="#65D9C3"></path>
                    <ellipse id="Oval" fill="#FFE3CA" transform="translate(51.345795, 48.128342) rotate(-19.255708) translate(-51.345795, -48.128342) " cx="51.3457952" cy="48.1283416" rx="4.49352412" ry="6.70216209"></ellipse>
                    <path d="M107.856832,97.7050032 L108.459384,89.187413 L112.129474,80.2302051 L99.8593215,69.7343358 C99.8593215,69.7343358 100.242764,72.3720412 101.721755,74.4052724 C103.145969,76.4385037 103.858077,77.5375476 103.858077,77.5375476 C103.858077,77.5375476 96.4631186,73.1413719 95.2580143,72.4819456 C94.6554622,73.3062285 94.2172425,77.5375476 96.5726735,79.4608744 C98.9281046,81.3842012 102.379085,86.11009 102.379085,86.11009 L100.790538,97.1005291 C100.845316,97.1554813 106.323063,100.232804 107.856832,97.7050032 Z" id="Path" fill="#FFD3AE"></path>
                </g>
            </g>
        </g>
    </g>
</svg>