<?xml version="1.0" encoding="UTF-8"?>
<svg width="109px" height="80px" viewBox="0 0 109 80" version="1.1" xmlns="http://www.w3.org/2000/svg" xmlns:xlink="http://www.w3.org/1999/xlink">
    <title>code</title>
    <defs>
        <filter id="filter-1">
            <feColorMatrix in="SourceGraphic" type="matrix" values="0 0 0 0 1.000000 0 0 0 0 1.000000 0 0 0 0 1.000000 0 0 0 1.000000 0"></feColorMatrix>
        </filter>
    </defs>
    <g id="Home" stroke="none" stroke-width="1" fill="none" fill-rule="evenodd">
        <g id="code" transform="translate(-116.000000, -483.000000)" filter="url(#filter-1)">
            <g transform="translate(116.991094, 483.000000)">
                <path d="M66.3796909,1.0790801 L62.7719464,0.0885149304 C62.3075812,-0.06657974 61.8501438,-0.0178065476 61.4053394,0.234426364 C60.9591087,0.486863347 60.6577502,0.86582493 60.5028939,1.3706989 L38.8038569,76.5891652 C38.6490006,77.0942432 38.697495,77.5705471 38.9495441,78.0166484 C39.2015931,78.4635659 39.5791572,78.764572 40.0840703,78.9196667 L43.6907961,79.91064 C44.15618,80.0669591 44.6119874,80.0179818 45.0580143,79.7653408 C45.504245,79.5116794 45.8049923,79.1339422 45.9596448,78.6298845 L67.6592931,3.41019381 C67.8139456,2.90531985 67.7658587,2.42901595 67.5134021,1.98189434 C67.2611493,1.5349768 66.8839927,1.2339707 66.3796909,1.0790801 Z" id="Path" fill="#000000" fill-rule="nonzero"></path>
                <path d="M33.5541328,15.7974172 C33.5541328,15.2932562 33.3617263,14.8467659 32.977519,14.4591692 L30.0950554,11.5499522 C29.7108481,11.1621516 29.2686967,10.9677419 28.769207,10.9677419 C28.2697172,10.9677419 27.827364,11.1623554 27.4433585,11.5499522 L0.582359561,38.6621596 C0.197546537,39.0499601 0.00574571124,39.4962465 0.00574571124,40.0004076 C0.00574571124,40.5045686 0.198152223,40.9508551 0.582359561,41.3384518 L27.4431566,68.4506592 C27.8271621,68.8390711 28.2687077,69.0322581 28.7690051,69.0322581 C29.2693024,69.0322581 29.7108481,68.8384597 30.0948535,68.4506592 L32.9773171,65.5430724 C33.3615244,65.1554757 33.5541328,64.7089855 33.5541328,64.2042131 C33.5541328,63.7006634 33.3615244,63.2543769 32.9773171,62.8667802 L10.3240244,40.0004076 L32.977519,17.1356652 C33.362332,16.7480685 33.5541328,16.3015782 33.5541328,15.7974172 Z" id="Path" fill="#000000" fill-rule="nonzero"></path>
                <path d="M105.88111,38.661868 L79.0177275,11.549946 C78.6336966,11.1623534 78.191314,10.9677419 77.6925989,10.9677419 C77.1922684,10.9677419 76.7515012,11.1623534 76.3660569,11.549946 L73.484614,14.4589287 C73.1005831,14.8467251 72.9089715,15.2923955 72.9089715,15.7971626 C72.9089715,16.3019296 73.1003812,16.7478038 73.484614,17.1353965 L96.1400121,40.0005095 L73.484614,62.8668451 C73.1005831,63.2544378 72.9089715,63.7009233 72.9089715,64.2042639 C72.9089715,64.7092348 73.1003812,65.1555165 73.484614,65.5431092 L76.3660569,68.4506653 C76.7515012,68.8390731 77.1924704,69.0322581 77.6925989,69.0322581 C78.1915159,69.0322581 78.6336966,68.8384617 79.0177275,68.4506653 L105.88111,41.3389471 C106.265343,40.9513545 106.457359,40.5042576 106.457359,40.0001019 C106.457359,39.4957424 106.265343,39.0494606 105.88111,38.661868 Z" id="Path" fill="#000000" fill-rule="nonzero"></path>
            </g>
        </g>
    </g>
</svg>