<?xml version="1.0" encoding="UTF-8"?>
<svg width="686px" height="533px" viewBox="0 0 686 533" version="1.1" xmlns="http://www.w3.org/2000/svg" xmlns:xlink="http://www.w3.org/1999/xlink">
    <title>Group 5</title>
    <defs>
        <path d="M603.080249,282.481335 C568.658176,77.0483623 441.270111,255.533558 463.749097,138.732912 C486.228084,21.9307307 329.427598,-21.868744 277.790806,89.0927906 C226.154014,200.054325 119.644599,64.2719626 60.0748033,100.772548 C0.50500717,137.273134 18.0700275,317.927931 48.6193203,378.712097 C79.1686132,439.496263 87.8129313,490.350128 192.461168,499.61732 C297.109404,508.884511 637.502321,487.914308 603.080249,282.481335 Z" id="path-1"></path>
        <filter x="-0.7%" y="-0.8%" width="101.7%" height="102.1%" filterUnits="objectBoundingBox" id="filter-2">
            <feOffset dx="1" dy="1" in="SourceAlpha" result="shadowOffsetOuter1"></feOffset>
            <feGaussianBlur stdDeviation="1.5" in="shadowOffsetOuter1" result="shadowBlurOuter1"></feGaussianBlur>
            <feColorMatrix values="0 0 0 0 1   0 0 0 0 1   0 0 0 0 1  0 0 0 0.120227307 0" type="matrix" in="shadowBlurOuter1"></feColorMatrix>
        </filter>
        <filter x="-1.3%" y="-1.6%" width="102.9%" height="103.6%" filterUnits="objectBoundingBox" id="filter-3">
            <feGaussianBlur stdDeviation="5" in="SourceAlpha" result="shadowBlurInner1"></feGaussianBlur>
            <feOffset dx="1" dy="1" in="shadowBlurInner1" result="shadowOffsetInner1"></feOffset>
            <feComposite in="shadowOffsetInner1" in2="SourceAlpha" operator="arithmetic" k2="-1" k3="1" result="shadowInnerInner1"></feComposite>
            <feColorMatrix values="0 0 0 0 0   0 0 0 0 0   0 0 0 0 0  0 0 0 0.15 0" type="matrix" in="shadowInnerInner1"></feColorMatrix>
        </filter>
        <filter x="-39.8%" y="-37.9%" width="179.7%" height="175.9%" filterUnits="objectBoundingBox" id="filter-4">
            <feOffset dx="10" dy="10" in="SourceAlpha" result="shadowOffsetOuter1"></feOffset>
            <feGaussianBlur stdDeviation="20" in="shadowOffsetOuter1" result="shadowBlurOuter1"></feGaussianBlur>
            <feColorMatrix values="0 0 0 0 0   0 0 0 0 0   0 0 0 0 0  0 0 0 0.15 0" type="matrix" in="shadowBlurOuter1" result="shadowMatrixOuter1"></feColorMatrix>
            <feMerge>
                <feMergeNode in="shadowMatrixOuter1"></feMergeNode>
                <feMergeNode in="SourceGraphic"></feMergeNode>
            </feMerge>
        </filter>
        <ellipse id="path-5" cx="129.915721" cy="33.5077399" rx="23.7041096" ry="18.2383901"></ellipse>
        <filter x="-13.7%" y="-34.3%" width="154.8%" height="163.1%" filterUnits="objectBoundingBox" id="filter-6">
            <feOffset dx="8" dy="-1" in="SourceAlpha" result="shadowOffsetOuter1"></feOffset>
            <feGaussianBlur stdDeviation="2.5" in="shadowOffsetOuter1" result="shadowBlurOuter1"></feGaussianBlur>
            <feColorMatrix values="0 0 0 0 0   0 0 0 0 0   0 0 0 0 0  0 0 0 0.05 0" type="matrix" in="shadowBlurOuter1"></feColorMatrix>
        </filter>
        <ellipse id="path-7" cx="74.8883235" cy="69.9845201" rx="23.7041096" ry="18.2383901"></ellipse>
        <filter x="-13.7%" y="-34.3%" width="154.8%" height="163.1%" filterUnits="objectBoundingBox" id="filter-8">
            <feOffset dx="8" dy="-1" in="SourceAlpha" result="shadowOffsetOuter1"></feOffset>
            <feGaussianBlur stdDeviation="2.5" in="shadowOffsetOuter1" result="shadowBlurOuter1"></feGaussianBlur>
            <feColorMatrix values="0 0 0 0 0   0 0 0 0 0   0 0 0 0 0  0 0 0 0.05 0" type="matrix" in="shadowBlurOuter1"></feColorMatrix>
        </filter>
        <ellipse id="path-9" cx="38.4855838" cy="120.034056" rx="23.7041096" ry="18.2383901"></ellipse>
        <filter x="-13.7%" y="-34.3%" width="154.8%" height="163.1%" filterUnits="objectBoundingBox" id="filter-10">
            <feOffset dx="8" dy="-1" in="SourceAlpha" result="shadowOffsetOuter1"></feOffset>
            <feGaussianBlur stdDeviation="2.5" in="shadowOffsetOuter1" result="shadowBlurOuter1"></feGaussianBlur>
            <feColorMatrix values="0 0 0 0 0   0 0 0 0 0   0 0 0 0 0  0 0 0 0.05 0" type="matrix" in="shadowBlurOuter1"></feColorMatrix>
        </filter>
        <ellipse id="path-11" cx="50.7609263" cy="177.718266" rx="24.9739726" ry="19.0866873"></ellipse>
        <filter x="-13.0%" y="-32.7%" width="152.1%" height="160.3%" filterUnits="objectBoundingBox" id="filter-12">
            <feOffset dx="8" dy="-1" in="SourceAlpha" result="shadowOffsetOuter1"></feOffset>
            <feGaussianBlur stdDeviation="2.5" in="shadowOffsetOuter1" result="shadowBlurOuter1"></feGaussianBlur>
            <feColorMatrix values="0 0 0 0 0   0 0 0 0 0   0 0 0 0 0  0 0 0 0.05 0" type="matrix" in="shadowBlurOuter1"></feColorMatrix>
        </filter>
        <ellipse id="path-13" cx="112.984214" cy="215.891641" rx="27.090411" ry="20.7832817"></ellipse>
        <filter x="-12.0%" y="-30.1%" width="148.0%" height="155.3%" filterUnits="objectBoundingBox" id="filter-14">
            <feOffset dx="8" dy="-1" in="SourceAlpha" result="shadowOffsetOuter1"></feOffset>
            <feGaussianBlur stdDeviation="2.5" in="shadowOffsetOuter1" result="shadowBlurOuter1"></feGaussianBlur>
            <feColorMatrix values="0 0 0 0 0   0 0 0 0 0   0 0 0 0 0  0 0 0 0.05 0" type="matrix" in="shadowBlurOuter1"></feColorMatrix>
        </filter>
        <filter x="-19.0%" y="-34.6%" width="137.9%" height="162.9%" filterUnits="objectBoundingBox" id="filter-15">
            <feOffset dx="5" dy="10" in="SourceAlpha" result="shadowOffsetOuter1"></feOffset>
            <feGaussianBlur stdDeviation="15" in="shadowOffsetOuter1" result="shadowBlurOuter1"></feGaussianBlur>
            <feColorMatrix values="0 0 0 0 0   0 0 0 0 0   0 0 0 0 0  0 0 0 0.2 0" type="matrix" in="shadowBlurOuter1" result="shadowMatrixOuter1"></feColorMatrix>
            <feMerge>
                <feMergeNode in="shadowMatrixOuter1"></feMergeNode>
                <feMergeNode in="SourceGraphic"></feMergeNode>
            </feMerge>
        </filter>
        <filter x="-12.4%" y="-10.7%" width="124.7%" height="121.4%" filterUnits="objectBoundingBox" id="filter-16">
            <feOffset dx="0" dy="2" in="SourceAlpha" result="shadowOffsetOuter1"></feOffset>
            <feGaussianBlur stdDeviation="5" in="shadowOffsetOuter1" result="shadowBlurOuter1"></feGaussianBlur>
            <feColorMatrix values="0 0 0 0 0   0 0 0 0 0   0 0 0 0 0  0 0 0 0.2 0" type="matrix" in="shadowBlurOuter1" result="shadowMatrixOuter1"></feColorMatrix>
            <feMerge>
                <feMergeNode in="shadowMatrixOuter1"></feMergeNode>
                <feMergeNode in="SourceGraphic"></feMergeNode>
            </feMerge>
        </filter>
    </defs>
    <g id="Home" stroke="none" stroke-width="1" fill="none" fill-rule="evenodd">
        <g id="Desktop-HD-Copy-6" transform="translate(-610.000000, -4470.000000)">
            <g id="Group-5" transform="translate(641.000000, 4472.000000)">
                <g id="Path" transform="translate(313.013880, 263.186401) scale(-1, -1) rotate(185.000000) translate(-313.013880, -263.186401) ">
                    <use fill="black" fill-opacity="1" filter="url(#filter-2)" xlink:href="#path-1"></use>
                    <use fill="#6776F3" fill-rule="evenodd" xlink:href="#path-1"></use>
                    <use fill="black" fill-opacity="1" filter="url(#filter-3)" xlink:href="#path-1"></use>
                </g>
                <g id="creative-copy-2" filter="url(#filter-4)" transform="translate(343.000000, 97.653153)">
                    <path d="M224.583806,142.436787 C212.508879,135.242229 189.981593,124.915476 189.868391,108.286367 C189.67972,80.9508439 242.394323,68.2132496 216.716236,36.0560443 C157.888701,-37.6549523 27.15875,47.3888965 7.98980344,116.828718 C-8.82075892,177.764154 26.1021939,236.782307 87.1749103,249.671765 C125.720341,257.79649 168.284459,250.013459 200.415085,226.835214 C222.48956,210.927458 263.770717,165.804863 224.583806,142.436787 Z M169.397616,170.474681 C157.945302,179.776352 142.115828,179.168896 134.040721,169.107905 C125.965613,159.046914 128.701339,143.347971 140.153652,134.0463 C151.605966,124.744629 167.43544,125.352085 175.510548,135.413077 C183.585655,145.474068 180.84993,161.17301 169.397616,170.474681 Z" id="Shape" fill="#6270F6" fill-rule="nonzero"></path>
                    <path d="M221.187528,134.828255 C209.112115,127.632926 186.583922,117.305066 186.470715,100.674174 C186.282037,73.3357213 238.998762,60.5967618 213.319641,28.4361099 C154.489738,-45.301772 23.7545223,39.7511917 4.60367175,109.198455 C-12.2075675,170.140423 22.7167915,229.164901 83.7919673,242.036756 C122.33895,250.162352 164.904782,242.378487 197.055569,219.197757 C219.093198,203.307281 260.394885,158.17985 221.187528,134.828255 Z M166.017984,162.850169 C154.565209,172.152836 138.735097,171.545315 130.659665,161.483246 C122.584232,151.421177 125.320068,135.720551 136.772843,126.417883 C148.225617,117.115216 164.055729,117.722737 172.131162,127.784806 C180.206594,137.86586 177.470759,153.547501 166.017984,162.850169 Z" id="Shape" fill="#6D7AFD" fill-rule="nonzero"></path>
                    <g id="Oval">
                        <use fill="black" fill-opacity="1" filter="url(#filter-6)" xlink:href="#path-5"></use>
                        <use fill="#65D9C3" fill-rule="evenodd" xlink:href="#path-5"></use>
                    </g>
                    <g id="Oval">
                        <use fill="black" fill-opacity="1" filter="url(#filter-8)" xlink:href="#path-7"></use>
                        <use fill="#B1B7FF" fill-rule="evenodd" xlink:href="#path-7"></use>
                    </g>
                    <g id="Oval">
                        <use fill="black" fill-opacity="1" filter="url(#filter-10)" xlink:href="#path-9"></use>
                        <use fill="#5C6AFF" fill-rule="evenodd" xlink:href="#path-9"></use>
                    </g>
                    <g id="Oval">
                        <use fill="black" fill-opacity="1" filter="url(#filter-12)" xlink:href="#path-11"></use>
                        <use fill="#A0A8FF" fill-rule="evenodd" xlink:href="#path-11"></use>
                    </g>
                    <g id="Oval">
                        <use fill="black" fill-opacity="1" filter="url(#filter-14)" xlink:href="#path-13"></use>
                        <use fill="#9CFFED" fill-rule="evenodd" xlink:href="#path-13"></use>
                    </g>
                </g>
                <g id="website" filter="url(#filter-15)" transform="translate(26.000000, 185.653153)">
                    <path d="M366.961763,247.850303 C366.961763,257.461603 359.232612,265.221184 349.659005,265.221184 L59.4645215,265.221184 C49.8909142,265.221184 42.1617633,257.461603 42.1617633,247.850303 L42.1617633,54.6543695 C42.1617633,45.0430702 49.8909142,37.2834891 59.4645215,37.2834891 L349.659005,37.2834891 C359.232612,37.2834891 366.961763,45.0430702 366.961763,54.6543695 L366.961763,247.850303 Z" id="Path" fill="#6776F3"></path>
                    <path d="M0.715929944,245.732087 L0.715929944,250.022477 C0.715929944,259.318322 10.4065058,266.915888 22.2994852,266.915888 L384.286541,266.915888 C396.179521,266.915888 405.870097,259.318322 405.870097,250.022477 L405.870097,245.732087 L0.715929944,245.732087 Z" id="Path" fill="#6271ED"></path>
                    <polygon id="Path" fill="#A0A8FF" points="54.8492633 50.8411215 54.8492633 227.937695 353.42843 227.937695 353.42843 65.5844554 54.8492633 65.5844554"></polygon>
                    <rect id="Rectangle" fill="#8C98F9" x="265.461763" y="83.0404984" width="79.5083333" height="108.461059"></rect>
                    <rect id="Rectangle" fill="#74EBD5" x="54.8492633" y="50.8411215" width="298.579167" height="14.4049844"></rect>
                    <rect id="Rectangle" fill="#8C98F9" x="70.9200966" y="50.8411215" width="183.545833" height="167.775701"></rect>
                    <path d="M394.711032,270.361786 L394.711032,270.361786 C391.936105,271.378609 388.834716,272 385.570097,272 C388.834716,272 392.017721,271.378609 394.711032,270.361786 L394.711032,270.361786 Z M394.874263,270.305296 L394.874263,270.305296 C394.874263,270.305296 394.792648,270.305296 394.792648,270.361786 C394.792648,270.305296 394.874263,270.305296 394.874263,270.305296 L394.874263,270.305296 Z" id="Shape" fill="#535671"></path>
                    <path d="M405.024263,256.747664 L4.09926328,256.747664 C7.53425339,262.271143 14.9326936,266.068536 23.4761306,266.068536 L23.4761306,266.068536 C23.4761306,266.068536 23.5642073,266.068536 23.5642073,266.068536 L385.471243,266.068536 C385.471243,266.068536 385.471243,266.068536 385.471243,266.068536 C385.471243,266.068536 385.559319,266.068536 385.559319,266.068536 C385.559319,266.068536 385.559319,266.068536 385.559319,266.068536 C385.559319,266.068536 385.559319,266.068536 385.647396,266.068536 C385.647396,266.068536 385.735473,266.068536 385.735473,266.068536 C385.735473,266.068536 385.735473,266.068536 385.735473,266.068536 C385.735473,266.068536 385.735473,266.068536 385.823549,266.068536 C385.823549,266.068536 385.823549,266.068536 385.823549,266.068536 C389.434693,265.982231 392.781606,265.291796 395.688136,264.083535 C395.688136,264.083535 395.688136,264.083535 395.688136,264.083535 C395.688136,264.083535 395.688136,264.083535 395.776213,264.083535 C395.776213,264.083535 395.776213,264.083535 395.776213,264.083535 C395.776213,264.083535 395.86429,264.083535 395.86429,264.083535 C395.86429,264.083535 395.86429,264.083535 395.86429,264.083535 C395.86429,264.083535 395.86429,264.083535 395.86429,264.083535 C395.86429,264.083535 395.86429,264.083535 395.86429,264.083535 C395.86429,264.083535 395.86429,264.083535 395.86429,264.083535 C395.86429,264.083535 395.86429,264.083535 395.952366,264.083535 C395.952366,264.083535 395.952366,264.083535 395.952366,264.083535 C395.952366,264.083535 395.952366,264.083535 396.040443,264.083535 C396.040443,264.083535 396.040443,264.083535 396.040443,264.083535 C400.09197,262.271143 403.086577,259.768317 405.024263,256.747664 Z" id="Path" fill="#4F5CCC"></path>
                    <g id="Group" transform="translate(260.386763, 77.956386)">
                        <rect id="Rectangle" fill="#5D6BE0" x="0.261935484" y="0.35561003" width="80.5015054" height="107.483132"></rect>
                        <g transform="translate(7.858065, 11.557326)" fill="#FFFFFF">
                            <rect id="Rectangle" x="0.43655914" y="0" width="20.1690323" height="1.24463511"></rect>
                            <rect id="Rectangle" x="0.43655914" y="3.11158776" width="10.652043" height="1.24463511"></rect>
                            <rect id="Rectangle" x="0.43655914" y="6.31207803" width="17.2004301" height="1.24463511"></rect>
                            <rect id="Rectangle" x="8.38193548" y="12.6241561" width="10.0408602" height="1.24463511"></rect>
                            <rect id="Rectangle" x="15.3668817" y="15.8246463" width="9.77892473" height="1.24463511"></rect>
                            <rect id="Rectangle" x="14.5810753" y="3.11158776" width="18.1608602" height="1.24463511"></rect>
                            <rect id="Rectangle" x="35.3612903" y="3.11158776" width="8.64387097" height="1.24463511"></rect>
                            <rect id="Rectangle" x="47.3230108" y="3.11158776" width="11.6997849" height="1.24463511"></rect>
                            <rect id="Rectangle" x="20.4309677" y="6.31207803" width="10.2154839" height="1.24463511"></rect>
                            <polygon id="Path" points="18.4227957 9.51256831 16.5019355 9.51256831 8.38193548 9.51256831 8.38193548 10.7572034 16.5019355 10.7572034 18.4227957 10.7572034 27.3286022 10.7572034 27.3286022 9.51256831"></polygon>
                            <rect id="Rectangle" x="21.4787097" y="12.6241561" width="10.0408602" height="1.24463511"></rect>
                            <rect id="Rectangle" x="30.1225806" y="9.51256831" width="11.175914" height="1.24463511"></rect>
                            <rect id="Rectangle" x="43.4812903" y="9.51256831" width="5.84989247" height="1.24463511"></rect>
                            <rect id="Rectangle" x="51.775914" y="9.51256831" width="7.24688172" height="1.24463511"></rect>
                            <rect id="Rectangle" x="33.7023656" y="12.6241561" width="12.6602151" height="1.24463511"></rect>
                            <rect id="Rectangle" x="48.2834409" y="12.6241561" width="3.7544086" height="1.24463511"></rect>
                            <rect id="Rectangle" x="27.8524731" y="15.8246463" width="7.24688172" height="1.24463511"></rect>
                            <rect id="Rectangle" x="8.38193548" y="22.2256269" width="10.0408602" height="1.24463511"></rect>
                            <rect id="Rectangle" x="8.38193548" y="25.3372146" width="10.0408602" height="1.24463511"></rect>
                            <rect id="Rectangle" x="21.4787097" y="25.3372146" width="8.99311828" height="1.24463511"></rect>
                            <polygon id="Path" points="31.5195699 22.2256269 30.1225806 22.2256269 21.4787097 22.2256269 21.4787097 23.470262 30.1225806 23.470262 31.5195699 23.470262 38.6791398 23.470262 38.6791398 22.2256269"></polygon>
                            <rect id="Rectangle" x="40.3380645" y="22.2256269" width="4.54021505" height="1.24463511"></rect>
                            <rect id="Rectangle" x="46.7991398" y="22.2256269" width="5.58795699" height="1.24463511"></rect>
                            <rect id="Rectangle" x="39.2903226" y="25.3372146" width="10.0408602" height="1.24463511"></rect>
                            <rect id="Rectangle" x="8.38193548" y="28.5377049" width="10.0408602" height="1.24463511"></rect>
                            <rect id="Rectangle" x="8.38193548" y="31.7381952" width="10.0408602" height="1.24463511"></rect>
                            <rect id="Rectangle" x="21.4787097" y="28.5377049" width="5.84989247" height="1.24463511"></rect>
                            <rect id="Rectangle" x="21.4787097" y="31.7381952" width="18.3354839" height="1.24463511"></rect>
                            <polygon id="Path" points="41.2111828 28.5377049 36.6709677 28.5377049 30.1225806 28.5377049 30.1225806 29.78234 36.6709677 29.78234 41.2111828 29.78234 49.3311828 29.78234 49.3311828 28.5377049"></polygon>
                            <rect id="Rectangle" x="51.775914" y="28.5377049" width="7.24688172" height="1.24463511"></rect>
                            <rect id="Rectangle" x="42.0843011" y="31.7381952" width="10.3027957" height="1.24463511"></rect>
                            <rect id="Rectangle" x="32.48" y="25.3372146" width="4.27827957" height="1.24463511"></rect>
                            <rect id="Rectangle" x="0.43655914" y="38.0502732" width="10.652043" height="1.24463511"></rect>
                            <rect id="Rectangle" x="0.43655914" y="41.2507635" width="17.2004301" height="1.24463511"></rect>
                            <rect id="Rectangle" x="8.38193548" y="44.4512538" width="10.0408602" height="1.24463511"></rect>
                            <rect id="Rectangle" x="8.38193548" y="47.5628415" width="10.0408602" height="1.33353761"></rect>
                            <polygon id="Path" points="29.1621505 38.0502732 27.2412903 38.0502732 14.5810753 38.0502732 14.5810753 39.3838108 27.2412903 39.3838108 29.1621505 39.3838108 32.3926882 39.3838108 32.3926882 38.0502732"></polygon>
                            <rect id="Rectangle" x="35.6232258" y="38.0502732" width="16.1526882" height="1.24463511"></rect>
                            <rect id="Rectangle" x="20.4309677" y="41.2507635" width="10.2154839" height="1.24463511"></rect>
                            <rect id="Rectangle" x="21.4787097" y="47.5628415" width="7.77075269" height="1.33353761"></rect>
                            <polygon id="Path" points="36.9329032 44.4512538 35.6232258 44.4512538 21.4787097 44.4512538 21.4787097 45.6958889 35.6232258 45.6958889 36.9329032 45.6958889 44.1797849 45.6958889 44.1797849 44.4512538"></polygon>
                            <rect id="Rectangle" x="31.5195699" y="47.5628415" width="14.8430108" height="1.33353761"></rect>
                            <rect id="Rectangle" x="48.2834409" y="47.5628415" width="3.7544086" height="1.33353761"></rect>
                            <rect id="Rectangle" x="27.8524731" y="50.7633318" width="7.24688172" height="1.24463511"></rect>
                            <polygon id="Path" points="25.0584946 50.7633318 22.4391398 50.7633318 15.3668817 50.7633318 15.3668817 52.0079669 22.4391398 52.0079669 25.0584946 52.0079669 50.2043011 52.0079669 50.2043011 50.7633318"></polygon>
                            <rect id="Rectangle" x="52.2124731" y="50.7633318" width="4.01634409" height="1.24463511"></rect>
                            <rect id="Rectangle" x="8.38193548" y="57.0754098" width="10.0408602" height="1.24463511"></rect>
                            <rect id="Rectangle" x="8.38193548" y="60.2759001" width="10.0408602" height="1.24463511"></rect>
                            <rect id="Rectangle" x="21.4787097" y="57.0754098" width="16.5019355" height="1.24463511"></rect>
                            <rect id="Rectangle" x="21.4787097" y="60.2759001" width="8.99311828" height="1.24463511"></rect>
                            <rect id="Rectangle" x="40.3380645" y="57.0754098" width="4.54021505" height="1.24463511"></rect>
                            <rect id="Rectangle" x="46.7991398" y="57.0754098" width="5.58795699" height="1.24463511"></rect>
                            <rect id="Rectangle" x="39.2903226" y="60.2759001" width="10.0408602" height="1.24463511"></rect>
                            <rect id="Rectangle" x="32.48" y="60.2759001" width="4.27827957" height="1.24463511"></rect>
                            <rect id="Rectangle" x="0.43655914" y="65.5211481" width="10.652043" height="1.24463511"></rect>
                            <rect id="Rectangle" x="0.43655914" y="68.6327358" width="17.2004301" height="1.24463511"></rect>
                            <rect id="Rectangle" x="8.38193548" y="71.8332261" width="10.0408602" height="1.24463511"></rect>
                            <rect id="Rectangle" x="8.38193548" y="75.0337164" width="10.0408602" height="1.24463511"></rect>
                            <rect id="Rectangle" x="15.3668817" y="78.1453041" width="9.77892473" height="1.24463511"></rect>
                            <rect id="Rectangle" x="14.5810753" y="65.5211481" width="10.0408602" height="1.24463511"></rect>
                            <polygon id="Path" points="37.8060215 65.5211481 35.6232258 65.5211481 27.2412903 65.5211481 27.2412903 66.7657832 35.6232258 66.7657832 37.8060215 66.7657832 59.0227957 66.7657832 59.0227957 65.5211481"></polygon>
                            <rect id="Rectangle" x="20.4309677" y="68.6327358" width="10.2154839" height="1.24463511"></rect>
                            <rect id="Rectangle" x="21.4787097" y="75.0337164" width="7.77075269" height="1.24463511"></rect>
                            <polygon id="Path" points="36.6709677 71.8332261 35.6232258 71.8332261 21.4787097 71.8332261 21.4787097 73.0778612 35.6232258 73.0778612 36.6709677 73.0778612 44.1797849 73.0778612 44.1797849 71.8332261"></polygon>
                            <rect id="Rectangle" x="46.3625806" y="71.8332261" width="5.15139785" height="1.24463511"></rect>
                            <rect id="Rectangle" x="54.0460215" y="71.8332261" width="4.97677419" height="1.24463511"></rect>
                            <rect id="Rectangle" x="31.5195699" y="75.0337164" width="14.8430108" height="1.24463511"></rect>
                            <rect id="Rectangle" x="48.2834409" y="75.0337164" width="3.7544086" height="1.24463511"></rect>
                            <rect id="Rectangle" x="27.8524731" y="78.1453041" width="7.24688172" height="1.24463511"></rect>
                            <rect id="Rectangle" x="8.38193548" y="87.7467749" width="10.0408602" height="1.24463511"></rect>
                            <polygon id="Path" points="18.4227957 84.5462847 14.7556989 84.5462847 8.38193548 84.5462847 8.38193548 85.7909198 14.7556989 85.7909198 18.4227957 85.7909198 37.9806452 85.7909198 37.9806452 84.5462847"></polygon>
                            <rect id="Rectangle" x="21.4787097" y="87.7467749" width="8.99311828" height="1.24463511"></rect>
                            <rect id="Rectangle" x="40.3380645" y="84.5462847" width="4.54021505" height="1.24463511"></rect>
                            <rect id="Rectangle" x="46.7991398" y="84.5462847" width="5.58795699" height="1.24463511"></rect>
                            <rect id="Rectangle" x="39.2903226" y="87.7467749" width="10.0408602" height="1.24463511"></rect>
                            <rect id="Rectangle" x="32.48" y="87.7467749" width="4.27827957" height="1.24463511"></rect>
                        </g>
                        <rect id="Rectangle" fill="#74EBD5" x="0.261935484" y="0.35561003" width="80.5015054" height="6.40098054"></rect>
                        <path d="M76.8344086,3.11158776 C76.8344086,4.00061284 76.135914,4.80073541 75.1754839,4.80073541 C74.3023656,4.80073541 73.5165591,4.08951535 73.5165591,3.11158776 C73.5165591,2.22256269 74.2150538,1.42244012 75.1754839,1.42244012 C76.135914,1.42244012 76.8344086,2.22256269 76.8344086,3.11158776 Z" id="Path" fill="#E7E5E4"></path>
                        <path d="M71.4210753,3.11158776 C71.4210753,4.00061284 70.7225806,4.80073541 69.7621505,4.80073541 C68.8890323,4.80073541 68.1032258,4.08951535 68.1032258,3.11158776 C68.1032258,2.22256269 68.8017204,1.42244012 69.7621505,1.42244012 C70.6352688,1.42244012 71.4210753,2.22256269 71.4210753,3.11158776 Z" id="Path" fill="#E7E5E4"></path>
                    </g>
                    <g id="Group" filter="url(#filter-16)" transform="translate(64.999263, 0.000000)">
                        <rect id="Rectangle" fill="#FFFFFF" x="0.789976415" y="0.617455697" width="184.766706" height="214.080711"></rect>
                        <rect id="Rectangle" fill="#74EBD5" x="0.789976415" y="0.617455697" width="184.766706" height="10.3203309"></rect>
                        <path d="M180.377948,5.46889331 C180.377948,6.79201267 179.236871,7.9387161 177.920244,7.9387161 C176.603616,7.9387161 175.462539,6.79201267 175.462539,5.46889331 C175.462539,4.14577396 176.603616,2.99907053 177.920244,2.99907053 C179.324646,2.99907053 180.377948,4.14577396 180.377948,5.46889331 Z" id="Path" fill="#E7E5E4"></path>
                        <path d="M172.214858,5.46889331 C172.214858,6.79201267 171.073781,7.9387161 169.757154,7.9387161 C168.352752,7.9387161 167.29945,6.79201267 167.29945,5.46889331 C167.29945,4.14577396 168.440527,2.99907053 169.757154,2.99907053 C171.073781,2.99907053 172.214858,4.14577396 172.214858,5.46889331 Z" id="Path" fill="#E7E5E4"></path>
                        <rect id="Rectangle" fill="#74EBD5" x="0.789976415" y="29.5496655" width="184.766706" height="12.0844901"></rect>
                        <rect id="Rectangle" fill="#FFFFFF" x="118.584237" y="32.9015678" width="56.6149764" height="5.2924774"></rect>
                        <g transform="translate(13.166274, 33.519024)" fill="#E3E3E3" id="Rectangle">
                            <rect x="0.175550314" y="0.26462387" width="16.5895047" height="3.52831827"></rect>
                            <rect x="18.0816824" y="0.26462387" width="16.5895047" height="3.52831827"></rect>
                            <rect x="36.0755896" y="0.26462387" width="16.5895047" height="3.52831827"></rect>
                            <rect x="53.9817217" y="0.26462387" width="16.5895047" height="3.52831827"></rect>
                        </g>
                        <rect id="Rectangle" fill="#6776F3" x="37.392217" y="59.5403708" width="33.6178852" height="27.4326745"></rect>
                        <path d="M178.88577,33.5190235 C178.183569,33.5190235 177.569143,34.1364792 177.569143,34.8421429 C177.569143,35.5478065 178.183569,36.1652622 178.88577,36.1652622 C179.587972,36.1652622 180.202398,35.5478065 180.202398,34.8421429 C180.202398,34.1364792 179.587972,33.5190235 178.88577,33.5190235 L178.88577,33.5190235 Z M177.656918,33.6954395 L177.656918,33.6954395 C178.359119,32.9897758 179.500197,32.9897758 180.114623,33.6954395 C180.816824,34.4011031 180.816824,35.4595986 180.114623,36.1652622 C179.412421,36.8709259 178.271344,36.8709259 177.656918,36.1652622 C176.954717,35.4595986 176.954717,34.3128952 177.656918,33.6954395 Z" id="Shape" fill="#FFFFFF"></path>
                        <path d="M180.465723,36.7827179 L180.114623,36.4298861 C180.202398,36.3416782 180.290173,36.3416782 180.290173,36.2534702 C180.377948,36.1652622 180.465723,36.0770543 180.465723,35.9888463 L180.904599,36.3416782 L180.465723,36.7827179 Z" id="Path" fill="#FFFFFF"></path>
                        <path d="M182.484552,37.9294214 C182.660102,38.1058373 182.660102,38.2822532 182.484552,38.4586691 C182.309002,38.635085 182.133451,38.635085 181.957901,38.4586691 L180.377948,36.9591339 L180.904599,36.4298861 L182.484552,37.9294214 Z" id="Path" fill="#FFFFFF"></path>
                        <path d="M178.797995,35.9888463 C178.88577,35.9888463 179.061321,35.9888463 179.149096,35.9006384 L179.149096,35.9006384 C179.236871,35.9006384 179.236871,35.8124304 179.236871,35.7242225 C179.236871,35.6360145 179.149096,35.6360145 179.061321,35.6360145 C178.973546,35.6360145 178.88577,35.7242225 178.797995,35.7242225 C178.53467,35.7242225 178.359119,35.5478065 178.271344,35.3713906 C178.271344,35.2831827 178.183569,35.2831827 178.095794,35.2831827 C178.008019,35.2831827 178.008019,35.3713906 178.008019,35.4595986 C178.095794,35.8124304 178.446895,35.9888463 178.797995,35.9888463 L178.797995,35.9888463 Z" id="Path" fill="#FFFFFF"></path>
                        <rect id="Rectangle" fill="#6776F3" x="74.784434" y="59.3639549" width="33.6178852" height="27.4326745"></rect>
                        <rect id="Rectangle" fill="#6776F3" x="112.264426" y="59.1875389" width="33.6178852" height="27.4326745"></rect>
                        <rect id="Rectangle" fill="#D3D3D3" x="15.5362028" y="180.120648" width="48.1885613" height="2.38161483"></rect>
                        <rect id="Rectangle" fill="#D3D3D3" x="15.5362028" y="184.442837" width="48.1885613" height="2.38161483"></rect>
                        <rect id="Rectangle" fill="#D3D3D3" x="15.5362028" y="188.765027" width="48.1885613" height="2.38161483"></rect>
                        <rect id="Rectangle" fill="#D3D3D3" x="15.5362028" y="193.087217" width="48.1885613" height="2.38161483"></rect>
                        <rect id="Rectangle" fill="#D3D3D3" x="15.5362028" y="197.409407" width="48.1885613" height="2.38161483"></rect>
                        <rect id="Rectangle" fill="#D3D3D3" x="15.5362028" y="201.731597" width="48.1885613" height="2.38161483"></rect>
                        <rect id="Rectangle" fill="#D3D3D3" x="15.5362028" y="206.053787" width="48.1885613" height="2.38161483"></rect>
                        <rect id="Rectangle" fill="#D3D3D3" x="69.6934748" y="180.120648" width="48.1885613" height="2.38161483"></rect>
                        <rect id="Rectangle" fill="#D3D3D3" x="69.6934748" y="184.442837" width="48.1885613" height="2.38161483"></rect>
                        <rect id="Rectangle" fill="#D3D3D3" x="69.6934748" y="188.765027" width="48.1885613" height="2.38161483"></rect>
                        <rect id="Rectangle" fill="#D3D3D3" x="69.6934748" y="193.087217" width="48.1885613" height="2.38161483"></rect>
                        <rect id="Rectangle" fill="#D3D3D3" x="69.6934748" y="197.409407" width="48.1885613" height="2.38161483"></rect>
                        <rect id="Rectangle" fill="#D3D3D3" x="69.6934748" y="201.731597" width="48.1885613" height="2.38161483"></rect>
                        <rect id="Rectangle" fill="#D3D3D3" x="69.6934748" y="206.053787" width="48.1885613" height="2.38161483"></rect>
                        <rect id="Rectangle" fill="#D3D3D3" x="124.114072" y="180.120648" width="48.1885613" height="2.38161483"></rect>
                        <rect id="Rectangle" fill="#D3D3D3" x="124.114072" y="184.442837" width="48.1885613" height="2.38161483"></rect>
                        <rect id="Rectangle" fill="#D3D3D3" x="124.114072" y="188.765027" width="48.1885613" height="2.38161483"></rect>
                        <rect id="Rectangle" fill="#D3D3D3" x="124.114072" y="193.087217" width="48.1885613" height="2.38161483"></rect>
                        <rect id="Rectangle" fill="#D3D3D3" x="124.114072" y="197.409407" width="48.1885613" height="2.38161483"></rect>
                        <rect id="Rectangle" fill="#D3D3D3" x="124.114072" y="201.731597" width="48.1885613" height="2.38161483"></rect>
                        <rect id="Rectangle" fill="#D3D3D3" x="124.114072" y="206.053787" width="48.1885613" height="2.38161483"></rect>
                        <rect id="Rectangle" fill="#6776F3" x="0.789976415" y="104.702845" width="184.766706" height="57.9526275"></rect>
                        <rect id="Rectangle" fill="#74EBD5" x="18.0816824" y="114.317512" width="47.6619104" height="38.8115009"></rect>
                        <rect id="Rectangle" fill="#FFFFFF" x="78.0321148" y="127.901537" width="76.1888365" height="1.23491139"></rect>
                        <rect id="Rectangle" fill="#FFFFFF" x="78.0321148" y="131.077024" width="76.1888365" height="1.23491139"></rect>
                        <rect id="Rectangle" fill="#FFFFFF" x="78.0321148" y="134.25251" width="76.1888365" height="1.23491139"></rect>
                        <rect id="Rectangle" fill="#FFFFFF" x="78.0321148" y="137.339789" width="50.2073899" height="1.23491139"></rect>
                        <g transform="translate(2.633255, 130.547776)" fill="#E3E3E3" id="Path">
                            <polygon points="0.263325472 3.17548644 2.54547956 1.85236709 4.82763365 0.52924774 4.82763365 3.17548644 4.82763365 5.82172514 2.54547956 4.49860579"></polygon>
                            <polygon points="180.816824 3.17548644 178.53467 1.85236709 176.252516 0.52924774 176.252516 3.17548644 176.252516 5.82172514 178.53467 4.49860579"></polygon>
                        </g>
                        <rect id="Rectangle" fill="#74EBD5" x="15.5362028" y="165.389919" width="48.1885613" height="12.5255299"></rect>
                        <rect id="Rectangle" fill="#74EBD5" x="69.6934748" y="165.919167" width="48.1885613" height="12.5255299"></rect>
                        <rect id="Rectangle" fill="#74EBD5" x="124.114072" y="166.095582" width="48.1885613" height="12.5255299"></rect>
                    </g>
                </g>
            </g>
        </g>
    </g>
</svg>