<?xml version="1.0" encoding="UTF-8"?>
<svg width="95px" height="95px" viewBox="0 0 95 95" version="1.1" xmlns="http://www.w3.org/2000/svg" xmlns:xlink="http://www.w3.org/1999/xlink">
    <title>linkedin-svgrepo-com</title>
    <defs>
        <filter id="filter-1">
            <feColorMatrix in="SourceGraphic" type="matrix" values="0 0 0 0 1.000000 0 0 0 0 1.000000 0 0 0 0 1.000000 0 0 0 1.000000 0"></feColorMatrix>
        </filter>
    </defs>
    <g id="Home" stroke="none" stroke-width="1" fill="none" fill-rule="evenodd">
        <g id="linkedin-svgrepo-com" transform="translate(-156.000000, -76.000000)" filter="url(#filter-1)">
            <g transform="translate(156.000000, 76.000000)">
                <path d="M22.4771503,31 L3.52284967,31 C2.68162751,31 2,31.6825959 2,32.5243322 L2,93.4756678 C2,94.3177089 2.68162751,95 3.52284967,95 L22.4771503,95 C23.3183725,95 24,94.3177089 24,93.4756678 L24,32.5243322 C24,31.6825959 23.3183725,31 22.4771503,31 Z" id="XMLID_802_" fill="#000000" fill-rule="nonzero"></path>
                <path d="M12.5050244,0 C5.60969074,0 0,5.60633203 0,12.4974104 C0,19.3915354 5.60969074,25 12.5050244,25 C19.3948769,25 25,19.3912307 25,12.4974104 C25.0003045,5.60633203 19.3948769,0 12.5050244,0 Z" id="XMLID_803_" fill="#000000" fill-rule="nonzero"></path>
                <path d="M70.8033794,29 C63.2003003,29 57.5798925,32.3000307 54.1709023,36.0496887 L54.1709023,32.0617037 C54.1709023,31.2137386 53.4901386,30.5260914 52.6499823,30.5260914 L34.52092,30.5260914 C33.6807638,30.5260914 33,31.2137386 33,32.0617037 L33,93.4640806 C33,94.3123528 33.6807638,95 34.52092,95 L53.409834,95 C54.2499902,95 54.930754,94.3123528 54.930754,93.4640806 L54.930754,63.0841422 C54.930754,52.8468297 57.6848359,48.8585375 64.7528554,48.8585375 C72.4505358,48.8585375 73.0622498,55.2522127 73.0622498,63.6108572 L73.0622498,93.4643878 C73.0622498,94.31266 73.7430136,95 74.5831698,95 L93.47908,95 C94.3192362,95 95,94.31266 95,93.4643878 L95,59.7841115 C95,44.5615874 92.125157,29 70.8033794,29 Z" id="XMLID_804_" fill="#000000" fill-rule="nonzero"></path>
            </g>
        </g>
    </g>
</svg>