<?xml version="1.0" encoding="UTF-8"?>
<svg width="80px" height="80px" viewBox="0 0 80 80" version="1.1" xmlns="http://www.w3.org/2000/svg" xmlns:xlink="http://www.w3.org/1999/xlink">
    <title>progettazione</title>
    <defs>
        <filter id="filter-1">
            <feColorMatrix in="SourceGraphic" type="matrix" values="0 0 0 0 1.000000 0 0 0 0 1.000000 0 0 0 0 1.000000 0 0 0 1.000000 0"></feColorMatrix>
        </filter>
    </defs>
    <g id="Home" stroke="none" stroke-width="1" fill="none" fill-rule="evenodd">
        <g id="progettazione" transform="translate(-822.000000, -894.000000)" filter="url(#filter-1)">
            <g transform="translate(822.000000, 894.000000)">
                <path d="M77.955462,8.64723499 L71.3531405,2.04303551 C68.6250643,-0.680201558 64.185635,-0.682632477 61.4533046,2.04546659 L59.8744358,3.62313292 L68.1255145,11.8742802 C69.0371016,12.7858748 69.0371016,14.2626581 68.1255145,15.1742527 C67.2139274,16.0858474 65.7371563,16.0858474 64.8255693,15.1742527 L56.5750983,6.92310566 L53.2745453,10.2242938 L58.2262864,15.1742527 C59.1378735,16.0834165 59.1378735,17.5626308 58.2262864,18.4742255 C57.3146993,19.3858201 55.8379281,19.3858201 54.9263412,18.4742255 L49.9745999,13.5242665 L43.373494,20.1260349 L59.8744358,36.626506 L77.9578929,18.5477608 C80.6811074,15.8172309 80.6811074,11.3777648 77.955462,8.64723499 Z" id="Path" fill="#000000" fill-rule="nonzero"></path>
                <path d="M8.69470151,77.9402028 C11.4424226,80.687821 15.9052546,80.6853769 18.6499207,77.9402028 L36.626506,59.9655141 L20.036307,43.373494 L13.3988831,50.0106686 L18.3767983,54.9883969 C19.2933164,55.9048806 19.2933164,57.389584 18.3767983,58.3060679 C17.4602802,59.2225514 15.9755209,59.2225514 15.059003,58.3060679 L10.0810878,53.3283395 L6.76268135,56.6472324 L15.059003,64.9414094 C15.9755209,65.8578933 15.9755209,67.3425967 15.059003,68.2590804 C14.1424847,69.1755641 12.6577255,69.1755641 11.7412075,68.2590804 L3.44488602,59.9649032 L2.05849958,61.3494046 C-0.686166526,64.0945786 -0.686166526,68.560298 2.05849958,71.3048611 L8.69470151,77.9402028 Z" id="Path" fill="#000000" fill-rule="nonzero"></path>
                <path d="M0.153548239,3.24137891 L8.88342959,25.060241 L24.0963855,9.36511015 L3.14165668,0.158684414 C2.29368005,-0.179553958 1.32456378,0.033088468 0.67788346,0.699617025 C0.0318059426,1.36614558 -0.173709349,2.36220793 0.153548239,3.24137891 Z" id="Path" fill="#000000" fill-rule="nonzero"></path>
                <polygon id="Path" fill="#000000" fill-rule="nonzero" points="64.7549089 60.7228916 71.3253012 54.1264803 28.7396722 11.5662651 22.1686747 18.1626763"></polygon>
                <polygon id="Path" fill="#000000" fill-rule="nonzero" points="60.7228916 64.7267865 18.1371815 22.1686747 11.5662651 28.7647599 54.1495549 71.3253012"></polygon>
                <path d="M77.9230261,61.2254672 L74.53013,57.8313253 L57.8313253,74.5368771 L61.2260663,77.9328647 C63.9719935,80.6754937 68.4706404,80.7025633 71.2442422,77.9328647 C71.2442422,77.9304038 71.2442422,77.9304038 71.2442422,77.9304038 L77.9230261,71.2491674 C80.6880181,68.4831601 80.6966278,63.9994722 77.9230261,61.2254672 L77.9230261,61.2254672 Z" id="Path" fill="#000000" fill-rule="nonzero"></path>
            </g>
        </g>
    </g>
</svg>