<?xml version="1.0" encoding="UTF-8"?>
<svg width="80px" height="80px" viewBox="0 0 80 80" version="1.1" xmlns="http://www.w3.org/2000/svg" xmlns:xlink="http://www.w3.org/1999/xlink">
    <title>Group</title>
    <g id="Home" stroke="none" stroke-width="1" fill="none" fill-rule="evenodd">
        <g id="Artboard" transform="translate(-415.000000, -483.000000)">
            <g id="Group" transform="translate(415.000000, 483.000000)">
                <path d="M59.5,19.5 L64.5,24.5 M59.5,29.5 L64.5,24.5" id="Combined-Shape" stroke="#FFFFFF" stroke-width="2" stroke-linecap="round"></path>
                <path d="M20.3946875,55 C29.9118367,57.6131903 36.4469408,57.6131903 40,55 C45.3295887,51.0802145 35.8177533,30.309791 40,24.8030398 C42.7881645,21.1318724 50.4327892,21.1318724 62.9338741,24.8030398" id="Path-2" stroke="#FFFFFF" stroke-width="2" stroke-linecap="round" stroke-linejoin="round" fill-rule="nonzero"></path>
                <path d="M25,30 C27.7614237,30 30,32.2385763 30,35 L30,75 C30,77.7614237 27.7614237,80 25,80 L5,80 C2.23857625,80 -1.43817996e-15,77.7614237 0,75 L0,35 C-3.38176876e-16,32.2385763 2.23857625,30 5,30 L25,30 Z M28,39 L2,39 L2,71 L28,71 L28,39 Z M19,34 L11,34 C10.4477153,34 10,34.4477153 10,35 C10,35.5128358 10.3860402,35.9355072 10.8833789,35.9932723 L11,36 L19,36 C19.5522847,36 20,35.5522847 20,35 C20,34.4477153 19.5522847,34 19,34 Z" id="Combined-Shape" fill="#FFFFFF"></path>
                <path d="M75,0 C77.7614237,-5.07265313e-16 80,2.23857625 80,5 L80,45 C80,47.7614237 77.7614237,50 75,50 L55,50 C52.2385763,50 50,47.7614237 50,45 L50,5 C50,2.23857625 52.2385763,5.07265313e-16 55,0 L75,0 Z M78,9 L52,9 L52,41 L78,41 L78,9 Z M69,4 L61,4 C60.4477153,4 60,4.44771525 60,5 C60,5.51283584 60.3860402,5.93550716 60.8833789,5.99327227 L61,6 L69,6 C69.5522847,6 70,5.55228475 70,5 C70,4.44771525 69.5522847,4 69,4 Z" id="Combined-Shape-Copy" fill="#FFFFFF"></path>
                <rect id="Rectangle" fill="#FFFFFF" x="8" y="51" width="14" height="8" rx="3"></rect>
            </g>
        </g>
    </g>
</svg>