<?xml version="1.0" encoding="UTF-8"?>
<svg width="265px" height="63px" viewBox="0 0 265 63" version="1.1" xmlns="http://www.w3.org/2000/svg" xmlns:xlink="http://www.w3.org/1999/xlink">
    <title>Group 3</title>
    <g id="Home" stroke="none" stroke-width="1" fill="none" fill-rule="evenodd">
        <g id="Desktop-HD-Copy-6" transform="translate(-1076.000000, -1407.000000)" fill="#FFFFFF">
            <g id="Group-3" transform="translate(1076.000000, 1407.335861)">
                <path d="M48.1818182,8.72324367 C48.1818182,8.34087313 47.7247317,7.77172928 47.3587777,7.5776027 C45.157358,6.24665908 42.9587862,7.95997324 40.7573665,7.95997324 C39.9314781,7.95997324 39.1084376,8.15115851 38.4690861,7.67466599 C38.4690861,7.29229544 38.8293443,7.19670281 38.8293443,6.81727358 C38.2853971,6.81727358 37.6389259,6.62608831 37.0009983,6.53196633 C37.0009983,6.53196633 35.6268909,6.43490304 34.7967307,6.15106644 C31.7765424,4.81865216 28.9357712,4.1465624 25.4570724,5.86428853 C24.3549386,6.34078106 23.2585005,6.81727358 22.0652342,6.81727358 C21.5141673,6.81727358 22.8854268,7.95997324 22.7060097,8.5320584 C20.8762398,8.82030696 19.224463,9.38650949 17.6666667,10.914521 L17.6666667,11.0071723 C18.7631047,12.4410619 20.4177293,12.6278352 22.0652342,12.6278352 C22.6120293,12.6278352 23.6201827,13.9631908 26.1875564,14.3455613 C29.9453485,15.1044198 32.1453442,12.9131424 34.7967307,14.0558421 C34.6201615,13.5778789 34.6201615,13.2925717 34.6201615,12.9131424 C37.7357542,13.7749468 40.2105714,13.6734715 42.5956801,12.4410619 C44.792828,11.8616234 45.8009813,8.62618038 48.1818182,8.72324367" id="Fill-207"></path>
                <path d="M15.7036173,8.61364656 L18.2708534,7.29546677 C18.7485131,7.38370743 18.7485131,7.82491076 19.032447,8.09099031 C19.7038325,7.91179388 19.4154621,7.03345987 19.7984771,6.59225653 C20.1770557,6.59225653 20.1770557,7.12305808 20.4639473,7.38370743 C21.1264598,7.38370743 20.9327341,6.41984785 21.2270198,5.97864452 C21.6055984,5.45191562 22.6526048,5.6270394 22.4618367,4.74734784 L21.5094749,0.790093349 C21.3956056,0.319023947 21.1190657,0.103173702 20.9327341,0.172408686 C17.5136962,1.31682225 14.8444214,2.46123581 11.6087575,3.51469361 C11.3248236,3.60564937 10.9403297,3.7319014 10.5661876,3.60564937 L5.32819787,-1.65201186e-13 C5.61508946,2.1069156 5.90050222,4.04549516 6.09127034,5.27814938 C6.12528326,5.50621757 6.07943976,5.6270394 5.90050222,5.6270394 C4.85497464,5.6270394 3.85085408,6.3098864 3.2371427,7.29546677 C2.33949737,8.72768066 1.52614494,10.0227821 -2.23820962e-13,10.6377517 C0.283933942,11.2554364 0.85475947,11.6056839 1.42854264,11.7794502 C1.90028706,11.957289 2.38238323,11.8690484 2.85708529,12.1324128 C2.85708529,12.3088942 2.75948299,12.4012075 2.66483835,12.5709011 C1.42854264,14.5936486 2.98426403,17.3223215 0.607796094,18.8169827 C1.65628133,19.2541134 3.2371427,18.8169827 4.09485981,17.9386487 L4.26048795,18.0160289 C3.59501777,19.4197343 3.33178735,21.042005 3.42495317,22.6004709 C3.42495317,22.6004709 3.4988943,22.9656515 3.33178735,23.4217879 C3.33178735,23.4217879 3.15432863,23.9295111 3.0478534,24.1820152 C6.10014327,23.7204486 7.24918844,20.1039388 7.48136359,19.4862542 L7.75198813,19.550059 C7.75198813,19.550059 6.73307935,22.1660553 7.61593645,23.2996085 C7.81114104,23.5575428 8.15422788,23.8127619 8.48844179,23.7774657 C8.84779569,22.5149454 9.61234698,20.9238983 10.8486427,20.0496369 C11.9917726,20.1351625 13.1349024,20.6632489 14.2765535,21.1017371 C14.9435025,19.6097911 13.4853834,17.4024169 13.4853834,17.4024169 L13.6096045,17.3141762 L13.7988938,17.4974453 C13.7988938,17.4974453 14.7512556,18.4626625 15.2289153,18.8169827 C15.7953043,19.1699453 17.5136962,19.5174778 18.4645791,18.9907489 C18.7973142,18.8074798 19.3208174,18.3784944 19.4154621,18.0255318 C16.3676087,18.2020131 16.1753617,14.6846044 14.7512556,13.0134619 L14.8444214,12.9238637 C15.6089727,13.2768264 15.9890301,14.2447586 16.7506237,14.5936486 C16.7506237,14.5936486 20.7449236,15.356591 20.9090729,15.3891722 C21.1885704,15.4394015 21.2980033,15.0334944 21.2980033,15.0334944 C21.3349738,14.9140301 21.7179889,13.5171125 21.5094749,12.8383381 C21.0347728,12.5709011 20.8454835,13.2768264 20.4639473,13.2768264 C19.4154621,13.0134619 18.7485131,12.9238637 17.6053832,12.4826604 L15.7036173,8.96660923 C15.5601715,8.70188723 15.7036173,8.61364656 15.7036173,8.61364656 M14.1819088,6.32753454 C14.1819088,6.94386165 13.7027703,7.38370743 13.0373001,7.38370743 C12.4649958,7.38370743 11.9917726,6.94386165 11.9917726,6.32753454 C11.9917726,5.71528007 12.4649958,5.27814938 13.0373001,5.27814938 C13.7027703,5.27814938 14.1819088,5.71528007 14.1819088,6.32753454" id="Fill-209"></path>
                <path d="M19.7755022,40.4054597 C18.6618958,40.2173123 17.4224035,39.9559167 16.2825133,39.3570048 C16.2825133,39.3570048 16.0113744,39.1932735 16.0113744,39.4532329 L16.0113744,41.1968277 C16.0030742,41.8689878 16.6020699,42.697698 18.6867964,42.5210405 C18.6867964,42.5210405 19.0672209,43.3195897 17.106997,44.1554811 C16.3821154,44.4628364 16.6753881,44.9755739 16.6753881,44.9755739 C16.6753881,44.9755739 16.9313101,45.617573 18.6273118,46.1173843 C18.0269327,47.3511141 16.6325039,47.4229261 16.8898092,48.1568445 C16.8898092,48.1568445 17.057196,48.6983068 18.1071677,48.9927359 C17.7820777,50.0239559 16.8192577,50.390197 16.5453521,50.9848001 C16.2589962,51.625363 17.1581814,52.1136844 17.0820965,52.1639528 C15.5728486,53.1650118 14.4606256,54.5308756 14.271105,55.264794 C13.739894,56.8446575 13.4480047,58.6959702 13.1049309,60.2471089 C12.9887285,60.7655914 12.3897328,61.2151344 11.9899412,61.2352417 C10.5249609,61.2941275 9.41550461,61.2352417 8.14419498,61.2266243 C7.72365295,61.2237518 7.90349,60.9005979 7.90349,60.9005979 C9.24673445,58.3814338 12.3164146,56.3161213 11.8184043,53.2052265 C10.48346,44.8520573 8.12482791,40.0205475 6.79680045,32.7129607 C6.28772325,29.9137299 6.22823869,27.0656669 7.07623956,24.7188515 C7.30172756,25.8635344 8.63113839,26.9306604 9.69771045,26.8933181 C10.1417696,25.3148909 11.0617053,22.7009349 11.6897516,22.6061431 C12.402183,22.5127875 14.8604172,23.8384366 14.8604172,23.8384366 C15.5728486,23.1361155 15.7568358,22.0977143 15.8232371,21.2690041 C16.6228203,21.6395539 17.4403873,21.8248288 18.5180262,21.5447621 C20.3827981,20.9831924 20.6470202,20.3799718 21.2667664,19.6359997 C21.9736643,22.0962781 20.9499765,23.7623159 20.6982046,24.6312409 C20.6982046,24.6312409 20.6594705,24.751885 20.7051214,24.823697 C20.7231051,24.8495493 20.7839731,24.9271062 20.9638101,24.8366231 C21.6333573,24.5091605 22.3167381,23.9705707 22.6888625,23.6330544 C23.1661223,23.2036188 24.4941498,21.4715139 24.4941498,21.4715139 C25.2536155,22.6693376 25.0696284,24.4071875 24.5813016,25.5705415 C24.5813016,25.5705415 24.3488968,26.0157758 24.8870246,25.9138028 C26.2316524,25.6638971 27.2290564,22.9795654 28.1738926,22.5257137 C28.1738926,22.5257137 28.2582777,22.485499 28.2610444,22.5343311 C28.3412794,23.7335911 28.3025452,25.507347 28.7811885,26.3619095 C28.7811885,26.3619095 28.8849406,26.6003253 29.0426439,26.3475471 C29.5378875,25.5346355 30.3928051,23.3860212 31.3127408,23.1906926 C31.2878403,24.5623014 31.5935633,26.6261776 32.1787254,26.6922446 C32.6822692,26.7453855 33.1429287,25.3766492 33.3698,24.7992809 C33.6450891,24.1041409 34.0006131,23.5440075 34.351987,23.5440075 C34.4391388,24.7533212 34.8818147,26.574473 35.8280342,26.6003253 C36.2734768,26.6132514 36.1780248,25.7615614 36.2734768,25.1310522 C36.4477804,24.0366377 36.9734579,23.7407723 36.9734579,23.7407723 C37.2611972,24.7475763 37.6416217,25.4972933 38.4149211,26.0373194 C38.6404091,26.1924332 38.9392152,26.2383929 38.9392152,25.7845412 C38.9322984,24.8007171 39.1328859,23.9633895 39.5036269,23.6043296 C39.538211,23.750826 39.733265,24.0883423 39.8868182,24.3009058 C40.3073602,24.884019 40.7541861,25.1755756 41.4029829,24.9687571 C41.6921055,24.8754016 41.9660112,24.5091605 42.0130455,24.2247851 C41.5053516,23.4348533 40.8510214,22.1494189 40.7638696,21.2172995 C40.585416,19.8169659 41.2079288,18.6105247 42.2772676,18.0561363 C43.0727007,17.5879222 44.2388748,17.4945666 44.9499229,18.1451831 C45.3967488,18.5545114 45.7550395,19.1476783 45.7550395,19.8255834 C45.7550395,20.3857168 45.5171013,20.9401052 45.0370747,21.2172995 C44.6857008,21.4169368 44.2195078,21.4083193 43.8598337,21.1282526 C43.5333603,20.8797832 43.2553045,20.3799718 42.9855489,20.1932607 C42.7240935,20.8410047 43.1681527,21.5907218 43.52091,22.0546271 C44.2527085,22.9091897 45.2016948,22.7009349 45.5724358,22.4510292 C47.8854169,20.6844546 47.4413578,18.8905914 48.8648372,15.2640866 C49.192694,14.4483025 49.5994024,13.6411359 50.0863458,12.9000363 C50.1458304,12.8038083 50.2053149,12.7104527 50.2620328,12.6257146 C51.3963896,10.8462138 53.3317129,9.67280607 55.529875,9.67280607 C59.0297808,9.67280607 61.8587559,12.6357682 61.8587559,16.2881254 C61.8587559,18.1049684 61.1601582,19.7537714 60.0230346,20.9458502 C59.9220492,21.0535682 59.8155303,21.1584137 59.7103948,21.2474605 C59.2317516,21.6524801 59.1404497,22.0560634 59.3687044,22.2384658 C60.0852859,22.797163 60.2595895,22.8948273 60.7935672,23.5440075 C63.02078,26.3346209 63.9960501,29.590576 65.2466093,32.8450948 C65.5675493,33.6335903 66.0157586,34.5958708 66.5787869,35.1703666 C67.5388401,36.1556269 68.4158916,36.5031969 69.6982681,36.6640557 C69.8061703,36.6769819 69.0218041,37.6651147 69.6097329,38.0543356 C70.0510254,38.3473284 71.3762861,38.2281206 71.8217287,37.9494901 C72.0029491,39.3469512 69.919606,39.9027759 70.0510254,40.3810436 C70.1616943,40.7831907 71.1217475,41.1537405 72.2768547,40.9756468 C71.9946489,42.0456453 70.8755091,42.0456453 70.856142,42.7077517 C70.8326249,43.3727306 71.4413041,43.6843946 72.3321892,43.483321 C72.3321892,43.483321 72.0084825,44.0448907 71.2683839,44.8175876 C70.4591172,45.6635327 70.9308436,46.7421485 70.9308436,46.7421485 C71.2642338,47.4990468 71.6100743,48.3665355 72.4705254,49.0947089 C73.0653711,49.6002652 73.5218805,49.8659695 73.8787879,50.3327474 C71.5824071,51.6210543 72.1053179,53.7768498 72.014016,54.887063 C71.9531481,55.2346329 71.6571086,55.264794 71.6571086,55.264794 L66.9633615,56.0231284 C66.5787869,56.0848867 66.2855142,55.9355178 66.7295733,55.3883106 C67.870847,53.9721784 69.2887929,52.5632274 70.0939096,51.0709745 C69.969407,50.5539283 69.7176351,50.006721 69.3607278,49.4063729 C67.825196,46.846994 66.4044833,44.4743263 64.9810038,41.870424 C64.8177671,41.5774312 64.3529575,41.5013105 64.3529575,41.5013105 C60.8821024,40.8435128 56.8869531,39.7347358 54.3069831,38.027047 C54.1202292,37.9710337 54.1299128,38.2166306 54.1299128,38.2166306 C54.1229959,38.8988444 54.0745783,40.5146139 54.3512507,40.9368683 C55.1937181,42.2136853 57.4306144,41.5975385 57.7681547,41.5874848 C57.6823862,42.4793896 57.2065097,42.967711 56.3432919,43.5321532 C56.3432919,43.5321532 56.1731383,43.6369987 56.2436898,43.8036025 C56.3737258,44.1210114 57.1345749,43.9529714 57.8248725,43.6915758 C57.4568982,45.0861644 56.2602901,45.0028625 56.366809,45.4954926 C56.4304437,45.7971029 56.8191684,46.0728609 57.2286435,46.0498811 C56.5383459,47.0064166 55.5423253,47.1529131 55.5423253,47.8753415 L55.7221624,51.17582 C55.7221624,51.17582 55.7221624,51.2763568 55.6723613,51.3352426 C55.6018099,51.4242894 55.4524068,51.4501418 55.4524068,51.4501418 L50.8817789,52.5761535 C50.77526,52.5991334 50.6189401,52.584771 50.5110379,52.4239122 C50.3906854,52.2601809 50.5566889,52.0088389 50.5566889,52.0088389 L53.4949496,47.3511141 C53.6734033,46.3299478 52.9568218,45.68364 52.5113793,44.8491848 C51.5347257,43.5378981 50.4640036,42.5210405 49.3061297,41.7770685 C48.3529933,40.5361575 48.2796751,39.130079 48.0735542,38.3616908 C47.9960859,38.0672617 47.7028132,38.1936508 47.4510413,38.4363753 C46.8299118,39.088428 46.2350661,39.8754873 45.8380413,40.7501572 C45.6402205,41.1882103 46.0109615,41.5041829 46.5684564,41.6578606 C46.9018466,41.7526524 47.4648749,41.8172832 48.0638706,41.5731224 C48.1551725,42.4434836 47.1550018,43.0797377 46.5753732,43.3684219 C46.5753732,43.3684219 46.3734023,43.45316 46.5131219,43.5867303 C46.857579,43.9285553 47.4897754,43.9299915 47.9559684,43.8409447 C47.9559684,43.8409447 47.8024152,44.6753998 46.6237908,45.4193719 C45.6678877,46.0240288 47.2310867,45.9723242 47.4524246,45.8732236 C47.2310867,46.4836254 46.3692522,47.2678122 46.1036467,47.8222007 C45.5005009,49.077474 45.9293431,50.6156866 45.8380413,52.0131476 C45.7508895,52.2889056 45.4645335,52.4296571 45.1283766,52.477053 L40.3156604,52.6608917 C40.0320712,52.6608917 40.0611218,52.3018318 40.2257418,52.1007583 L43.6080618,47.8222007 C43.8695172,47.4617046 43.6205121,47.2161076 43.5084597,47.06243 C42.0061287,45.0229698 40.6739511,42.8872816 39.7000643,40.5634461 C38.9848662,40.6539291 37.8214588,41.0330964 37.6554554,41.7627061 C37.5129691,42.3946515 38.8935643,42.5210405 39.5202273,42.5210405 C39.5202273,42.5210405 39.6156792,43.1730933 37.8352924,43.8179648 C37.8352924,43.8179648 36.8724725,44.142555 36.5847332,44.6050241 C36.5847332,44.6050241 36.4823644,44.7429031 36.6179339,44.8463124 C37.0052752,45.1551039 37.9985291,45.1752112 38.1479322,45.1752112 C37.4355008,46.1949413 35.3687581,46.1575991 34.9551328,46.5382025 C34.7448618,46.7320949 35.2069047,47.1730204 36.4214965,47.1572218 C35.8114339,47.9959857 34.7766791,47.8652879 33.8553601,48.1640257 C33.8553601,48.1640257 33.4445016,48.2545088 33.5690042,48.4972333 C33.8996277,49.1349236 34.7144279,48.9625749 34.4764896,49.2455141 C34.1555496,49.6261175 33.2411474,49.868842 32.7472872,50.0325733 C32.3308952,50.1632711 32.1261577,50.426103 32.1261577,50.426103 C31.7761671,50.8023977 31.8909861,51.277793 31.6599647,51.8810136 C31.3030573,52.8174418 30.8147305,53.8845678 30.1977511,54.6845532 C30.1977511,54.6845532 30.1022991,54.8425395 29.9459792,54.7089693 L26.7379629,52.0131476 C26.470974,51.7833493 26.6189938,51.4357794 26.6189938,51.4357794 C26.9191833,50.7736729 27.5818137,50.6314852 28.20986,50.2393918 C29.0647777,49.6993658 29.9542794,49.119125 30.7206619,48.2071129 C30.8866654,48.0089118 30.9101825,47.8078383 30.9101825,47.8078383 C31.2795401,45.3791572 32.0307057,43.1443685 32.5508498,40.7874994 C32.689186,40.059326 31.9158866,40.2244935 31.9158866,40.2244935 C30.854848,40.4040235 29.127029,40.9009623 26.2537862,40.6309493 C25.9964809,40.6079695 25.9273128,40.7243049 25.710125,41.2442236 C25.4320692,41.9005851 25.068245,42.3687992 25.4500529,42.8915903 C26.1071498,43.7964213 27.9442545,43.0941001 27.9124372,43.1745295 C27.2996078,44.796044 25.5980726,44.4901249 24.9008582,45.4394793 C24.9008582,45.4394793 24.6518531,45.7295997 24.8552073,45.9780691 C25.0516447,46.2179211 25.7862099,46.3270753 26.9496173,46.0197201 C26.9496173,46.0197201 26.4654406,47.164403 25.4154689,47.500483 C24.5467176,47.781986 23.9919894,47.8940127 23.8550366,48.3076496 C23.7775683,48.6279311 24.051474,48.8950716 25.4168522,48.7571926 C25.4168522,48.7571926 25.0959123,49.8286273 23.8550366,50.1991771 C23.0872707,50.426103 22.939251,50.9388405 22.7206798,51.3582224 C22.1950023,52.3650263 22.0884834,53.7509975 21.4452201,54.6917344 C21.4452201,54.6917344 21.3428513,54.8382308 21.1325803,54.6443385 L18.3852235,52.1093757 C18.280088,52.0160201 18.2330536,51.9241008 18.2330536,51.9241008 C17.9729816,51.5348799 18.7545811,51.1298603 19.0533873,50.8770822 C19.767202,50.2810428 20.9472098,49.7453254 21.0910794,48.5604278 C21.3013504,46.7823633 20.6248864,45.7109286 20.1725271,44.1928234 C19.847437,43.1041538 19.8322201,41.7253638 19.9096883,40.6381305 C19.9249053,40.431312 19.7755022,40.4054597 19.7755022,40.4054597 M47.2380035,23.4721955 C47.178519,23.5382626 47.1536185,23.6301819 47.2642874,23.6330544 C48.2381742,23.6330544 49.3061297,22.9853103 50.1983981,22.3303851 C51.336905,21.5663057 52.3343089,20.2593277 53.1076083,19.0442691 C53.7494882,19.6604158 54.6002558,20.0381468 55.5367919,20.0381468 C57.509466,20.0381468 59.1086324,18.3649278 59.1086324,16.3053603 C59.1086324,14.241484 57.509466,12.5567751 55.5367919,12.5567751 C55.4510234,12.5524663 55.2670363,12.5596475 55.1854179,12.56252 C53.5821014,12.6544393 52.5113793,13.5908675 51.4434239,15.6317639 C50.5566889,17.401211 49.3988149,21.1253801 47.3555893,23.3558601 C47.3555893,23.3558601 47.3071716,23.4003836 47.2380035,23.4721955" id="Fill-211"></path>
                <path d="M139.782933,41.5556415 L139.782933,30.2922922 C141.039772,29.1767528 142.33252,28.5290203 144.63074,28.3850797 L144.882108,25.1104318 C141.398869,25.2903575 138.885191,26.4058969 136.515152,29.0328123 L136.515152,41.5556415 L139.782933,41.5556415 Z M154.84106,41.915493 C155.738802,41.915493 156.600635,41.8075375 157.534286,41.7355672 L157.821564,38.6768302 C157.10337,38.7488005 156.421086,38.8207708 155.810622,38.8207708 C152.901937,38.8207708 149.095511,38.6768302 148.951872,34.9703606 L156.277447,34.5745241 C157.713835,34.5025538 159.042493,33.3870144 159.042493,31.5517722 C159.042493,28.2411391 157.13928,25.1104318 152.61466,25.1104318 C149.20324,25.1104318 145.468633,28.2771243 145.468633,33.4589847 C145.468633,36.2658257 146.150917,38.3889491 147.695033,39.8283547 C149.16733,41.2317753 151.46555,41.915493 154.84106,41.915493 Z M148.987782,32.0915493 C149.16733,30.0763814 150.460079,28.2411391 152.830118,28.2411391 C154.661512,28.2411391 155.810622,29.464634 155.810622,30.4722179 C155.810622,31.2279059 155.523344,31.8036682 154.553783,31.8396533 L148.987782,32.0915493 Z M166.775045,41.915493 C168.42689,41.915493 170.401923,41.3397307 171.156026,39.9722953 L171.156026,41.5556415 L174.351988,41.5556415 L174.351988,30.7960842 C174.351988,27.0896146 173.02333,25.1104318 168.678258,25.1104318 C166.882774,25.1104318 163.794541,26.0460455 162.322244,26.8377186 L162.932709,29.6805448 C165.1232,28.7449311 167.134142,28.2411391 168.678258,28.2411391 C170.186465,28.2411391 171.156026,28.5290203 171.156026,30.2203219 L171.156026,31.0839653 L166.775045,31.6237425 C163.579083,31.9835939 161.173134,33.7468658 161.173134,36.9135583 C161.173134,39.4685033 163.040438,41.915493 166.775045,41.915493 Z M166.775045,38.9647113 C165.159109,38.9647113 164.369096,38.1370531 164.369096,36.6976474 C164.369096,35.5461229 165.230929,34.7544498 167.38551,34.4665686 L171.156026,33.9627767 C171.156026,37.4173503 169.432362,38.9647113 166.775045,38.9647113 Z M181.904992,41.5556415 L181.904992,17.7334778 L178.637211,18.6331063 L178.637211,41.5556415 L181.904992,41.5556415 Z M194.664899,41.915493 C195.562642,41.915493 196.424474,41.8075375 197.358126,41.7355672 L197.645403,38.6768302 C196.927209,38.7488005 196.244925,38.8207708 195.634461,38.8207708 C192.725776,38.8207708 188.91935,38.6768302 188.775711,34.9703606 L196.101287,34.5745241 C197.537674,34.5025538 198.866332,33.3870144 198.866332,31.5517722 C198.866332,28.2411391 196.963119,25.1104318 192.438499,25.1104318 C189.027079,25.1104318 185.292472,28.2771243 185.292472,33.4589847 C185.292472,36.2658257 185.974756,38.3889491 187.518872,39.8283547 C188.991169,41.2317753 191.289389,41.915493 194.664899,41.915493 Z M188.811621,32.0915493 C188.991169,30.0763814 190.283918,28.2411391 192.653957,28.2411391 C194.485351,28.2411391 195.634461,29.464634 195.634461,30.4722179 C195.634461,31.2279059 195.347183,31.8036682 194.377622,31.8396533 L188.811621,32.0915493 Z M207.173439,41.915493 C210.118033,41.915493 212.559892,40.3321467 212.595802,37.1654543 C212.595802,35.4741526 211.841698,33.8188361 210.225762,32.9911778 L206.742523,31.2279059 C206.096149,30.9040396 204.911129,30.1843368 204.947039,29.3206934 C204.982949,28.6729608 205.808871,28.1691689 207.496626,28.1691689 C208.573917,28.1691689 210.010304,28.3490946 211.446692,29.2847082 L211.877608,26.3339266 C210.656679,25.4702832 208.21482,25.1104318 206.742523,25.1104318 C203.115645,25.1104318 201.535619,27.0536295 201.535619,29.0687974 C201.535619,31.011995 202.577,32.6673116 204.408394,33.6029252 L208.107091,35.5461229 C208.933014,35.9779446 209.292111,36.5537069 209.292111,37.093484 C209.292111,38.3889491 208.430278,38.7488005 207.245259,38.7488005 C205.593413,38.7488005 203.367013,38.2090234 201.894716,37.2374245 L202.289722,40.907909 C203.869748,41.6276118 205.270226,41.915493 207.173439,41.915493 Z M220.543812,41.915493 C221.118366,41.915493 221.728831,41.8435227 222.303386,41.7355672 L221.621102,38.5328896 C221.297915,38.6408451 220.902908,38.7128154 220.507902,38.7128154 C219.789708,38.7128154 219.251063,38.4609194 219.251063,37.6332611 L219.251063,28.8888717 L221.908379,28.8888717 L223.380677,25.7221792 L219.251063,25.7221792 L219.251063,21.1160811 L215.983282,22.0157096 L215.983282,37.6332611 C215.983282,40.7279833 218.173772,41.915493 220.543812,41.915493 Z M230.754132,41.915493 C232.405977,41.915493 234.38101,41.3397307 235.135113,39.9722953 L235.135113,41.5556415 L238.331075,41.5556415 L238.331075,30.7960842 C238.331075,27.0896146 237.002417,25.1104318 232.657345,25.1104318 C230.861861,25.1104318 227.773628,26.0460455 226.301331,26.8377186 L226.911795,29.6805448 C229.102286,28.7449311 231.113228,28.2411391 232.657345,28.2411391 C234.165552,28.2411391 235.135113,28.5290203 235.135113,30.2203219 L235.135113,31.0839653 L230.754132,31.6237425 C227.55817,31.9835939 225.152221,33.7468658 225.152221,36.9135583 C225.152221,39.4685033 227.019524,41.915493 230.754132,41.915493 Z M230.754132,38.9647113 C229.138196,38.9647113 228.348183,38.1370531 228.348183,36.6976474 C228.348183,35.5461229 229.210015,34.7544498 231.364596,34.4665686 L235.135113,33.9627767 C235.135113,37.4173503 233.411448,38.9647113 230.754132,38.9647113 Z M247.176827,41.915493 C247.751382,41.915493 248.361847,41.8435227 248.936401,41.7355672 L248.254117,38.5328896 C247.93093,38.6408451 247.535924,38.7128154 247.140917,38.7128154 C246.422724,38.7128154 245.884078,38.4609194 245.884078,37.6332611 L245.884078,28.8888717 L248.541395,28.8888717 L250.013692,25.7221792 L245.884078,25.7221792 L245.884078,21.1160811 L242.616297,22.0157096 L242.616297,37.6332611 C242.616297,40.7279833 244.806788,41.915493 247.176827,41.915493 Z M260.798567,41.915493 C261.696309,41.915493 262.558142,41.8075375 263.491793,41.7355672 L263.779071,38.6768302 C263.060877,38.7488005 262.378593,38.8207708 261.768128,38.8207708 C258.859444,38.8207708 255.053018,38.6768302 254.909379,34.9703606 L262.234954,34.5745241 C263.671342,34.5025538 265,33.3870144 265,31.5517722 C265,28.2411391 263.096787,25.1104318 258.572167,25.1104318 C255.160747,25.1104318 251.42614,28.2771243 251.42614,33.4589847 C251.42614,36.2658257 252.108424,38.3889491 253.65254,39.8283547 C255.124837,41.2317753 257.423057,41.915493 260.798567,41.915493 Z M254.945289,32.0915493 C255.124837,30.0763814 256.417586,28.2411391 258.787625,28.2411391 C260.619019,28.2411391 261.768128,29.464634 261.768128,30.4722179 C261.768128,31.2279059 261.480851,31.8036682 260.51129,31.8396533 L254.945289,32.0915493 Z" id="realestate" fill-rule="nonzero"></path>
                <path d="M98.3612658,30.4723546 C98.3612658,31.2280861 98.0824876,31.8042791 97.1424531,31.8390734 L91.7460087,32.0909839 C91.91974,30.0770917 93.1735683,28.2413463 95.4711311,28.2413463 C97.2475,28.2413463 98.3612658,29.4647127 98.3612658,30.4723546 L98.3612658,30.4723546 Z M101.495163,31.5523686 C101.495163,28.2413463 99.6501096,25.111254 95.2623842,25.111254 C91.9547556,25.111254 88.3333333,28.2775323 88.3333333,33.4590944 C88.3333333,36.2662959 88.9945897,38.3887461 90.4921805,39.827837 C91.91974,41.2321336 94.1486184,41.915493 97.4212313,41.915493 C98.2912346,41.915493 99.127569,41.8069348 100.032588,41.7359545 L100.311366,38.6768426 C99.615094,38.7492147 98.9538377,38.820195 98.3612658,38.820195 C95.5411623,38.820195 91.8497088,38.6768426 91.7109931,34.9705574 L98.8137752,34.5739027 C100.206319,34.5029224 101.495163,33.3867224 101.495163,31.5523686 L101.495163,31.5523686 Z M118.660893,41.5550244 L118.660893,30.5809127 C118.660893,27.3422624 117.303365,25.111254 113.646927,25.111254 C110.686761,25.111254 107.622895,26.9094217 105.534079,28.8537253 L105.534079,41.5550244 L108.702992,41.5550244 L108.702992,30.2566302 C109.95682,29.2128022 112.080652,28.3137183 113.473196,28.3137183 C114.621977,28.3137183 115.49198,29.0332638 115.49198,30.6880791 L115.49198,41.5550244 L118.660893,41.5550244 Z M126.878788,19.6415954 C126.878788,18.5977674 126.042453,17.7334778 124.997372,17.7334778 C123.953638,17.7334778 123.117303,18.5977674 123.117303,19.6777814 C123.117303,20.7202176 123.953638,21.5845072 124.997372,21.5845072 C126.042453,21.5845072 126.878788,20.7202176 126.878788,19.6415954 L126.878788,19.6415954 Z M126.564994,41.5550244 L126.564994,25.111254 L123.396081,25.9379658 L123.396081,41.5550244 L126.564994,41.5550244 Z" id="Fill-215"></path>
            </g>
        </g>
    </g>
</svg>