<?xml version="1.0" encoding="UTF-8"?>
<svg width="102px" height="80px" viewBox="0 0 102 80" version="1.1" xmlns="http://www.w3.org/2000/svg" xmlns:xlink="http://www.w3.org/1999/xlink">
    <title>black-back-closed-envelope-shape</title>
    <defs>
        <filter id="filter-1">
            <feColorMatrix in="SourceGraphic" type="matrix" values="0 0 0 0 1.000000 0 0 0 0 1.000000 0 0 0 0 1.000000 0 0 0 1.000000 0"></feColorMatrix>
        </filter>
    </defs>
    <g id="Home" stroke="none" stroke-width="1" fill="none" fill-rule="evenodd">
        <g id="black-back-closed-envelope-shape" transform="translate(-618.000000, -894.000000)" filter="url(#filter-1)">
            <g transform="translate(618.000000, 894.000000)">
                <path d="M92.6767667,79.9597229 C94.9642494,79.9597229 96.9463279,79.2044342 98.6313164,77.7130716 L69.8000924,48.880739 C69.1083603,49.3760739 68.4378753,49.8577367 67.8045266,50.3157506 C65.6469284,51.9054042 63.8957968,53.1458661 62.5511316,54.0347344 C61.2066513,54.9256351 59.4178291,55.8337182 57.1848499,56.7608314 C54.9503926,57.6890531 52.8687298,58.1516859 50.9376443,58.1516859 L50.8811085,58.1516859 L50.8245727,58.1516859 C48.8933025,58.1516859 46.8116397,57.6892379 44.5773672,56.7608314 C42.3430947,55.8337182 40.5542725,54.9256351 39.2110855,54.0347344 C37.8666051,53.1458661 36.1163972,51.9055889 33.9576905,50.3157506 C33.3561201,49.8747344 32.6889607,49.3908545 31.9676674,48.8729792 L3.13090069,77.7130716 C4.81570439,79.2044342 6.79907621,79.9597229 9.08637413,79.9597229 L92.6767667,79.9597229 L92.6767667,79.9597229 Z" id="Path" fill="#000000" fill-rule="nonzero"></path>
                <path d="M5.73616628,30.7249885 C3.57875289,29.2866513 1.66558891,27.6393533 0,25.7838337 L0,69.6498845 L25.4117321,44.2381524 C20.3279446,40.6889607 13.7777367,36.189746 5.73616628,30.7249885 Z" id="Path" fill="#000000" fill-rule="nonzero"></path>
                <path d="M96.0848037,30.7249885 C88.3499307,35.9602771 81.7758891,40.4672517 76.36194,44.2483141 L101.76351,69.6509931 L101.76351,25.7838337 C100.134873,27.6020323 98.2422171,29.2482217 96.0848037,30.7249885 Z" id="Path" fill="#000000" fill-rule="nonzero"></path>
                <path d="M92.6767667,0.00240184758 L9.08655889,0.00240184758 C6.17034642,0.00240184758 3.92831409,0.987159353 2.35769053,2.95464203 C0.785773672,4.9230485 0.00110854503,7.38475751 0.00110854503,10.3369977 C0.00110854503,12.7216628 1.04240185,15.3054965 3.12406467,18.0892379 C5.20572748,20.8718707 7.42078522,23.057552 9.76812933,24.6473903 C11.0549654,25.556582 14.935612,28.2544111 21.4100693,32.7399538 C24.905127,35.16194 27.9445727,37.2729792 30.5564896,39.0946882 C32.7828176,40.6459122 34.7028176,41.9892841 36.288037,43.1041109 C36.4700231,43.2317783 36.7562125,43.4364896 37.1360739,43.7080831 C37.5453118,44.0020323 38.0631871,44.3750577 38.7020785,44.8363972 C39.9323788,45.7261894 40.9544573,46.4454503 41.7684988,46.9949192 C42.5814319,47.5445727 43.5663741,48.1585219 44.7218476,48.8402771 C45.8763972,49.5211085 46.965358,50.0330716 47.9874365,50.3735797 C49.0096998,50.713903 49.9560277,50.8846189 50.8266051,50.8846189 L50.8831409,50.8846189 L50.9396767,50.8846189 C51.8100693,50.8846189 52.756582,50.713903 53.77903,50.3735797 C54.8009238,50.0330716 55.8889607,49.5222171 57.0444342,48.8402771 C58.1987991,48.1585219 59.182448,47.5432794 59.9979677,46.9949192 C60.8120092,46.4454503 61.8340878,45.7263741 63.0645727,44.8363972 C63.7021709,44.3750577 64.2200462,44.0018476 64.6292841,43.7090069 C65.0093303,43.4363048 65.2953349,43.2328868 65.4784296,43.1041109 C66.7133487,42.2448037 68.6377829,40.9069746 71.225127,39.1103926 C75.9331178,35.839261 82.8666975,31.0246651 92.0550577,24.6473903 C94.8184758,22.7172286 97.1272055,20.3879908 98.9827252,17.6630023 C100.834919,14.9380139 101.76351,12.0796305 101.76351,9.08877598 C101.76351,6.58993072 100.863187,4.4517321 99.0664203,2.6708545 C97.2676212,0.892193995 95.137552,0.00240184758 92.6767667,0.00240184758 Z" id="Path" fill="#000000" fill-rule="nonzero"></path>
            </g>
        </g>
    </g>
</svg>